<?xml version="1.0" encoding="utf-8"?>
<!-- Generator: Adobe Illustrator 22.1.0, SVG Export Plug-In . SVG Version: 6.00 Build 0)  -->
<svg version="1.1" id="Layer_1" xmlns="http://www.w3.org/2000/svg" xmlns:xlink="http://www.w3.org/1999/xlink" x="0px" y="0px"
	 viewBox="0 0 269 269" style="enable-background:new 0 0 269 269;" xml:space="preserve">
<style type="text/css">
	.st0{fill:#FDBF14;}
</style>
<path class="st0" d="M95.9,158.2l-3.4,3.2c-1.5-2.1-2.8-4.4-3.9-6.9c-0.1-0.3-0.3-0.5-0.6-0.5c-0.3-0.1-0.6-0.1-0.8,0.1l-4.4,2.4
	l-5.6,3.1l-4.4,2.4c-0.5,0.3-0.6,0.8-0.4,1.3c1.8,3.8,4.1,7.4,6.6,10.7l-2,1.9l-5.1,4.8l-3.2,3c-3.3-4.1-6.1-8.6-8.5-13.5
	c-0.1-0.2-0.3-0.4-0.6-0.5c-0.3-0.1-0.5-0.1-0.8,0.1l-4.4,2.4l-5.2,2.9l-4.4,2.4c-0.5,0.3-0.7,0.8-0.4,1.3
	c3.1,6.2,6.9,11.9,11.2,17.1l-5.2,4.9c-15-19.5-21-38.4-21.7-61.5h6c0.1,7.5,1.2,14.9,3.1,22c0.1,0.3,0.2,0.5,0.5,0.6
	c0.2,0.1,0.3,0.1,0.5,0.1c0.1,0,0.2,0,0.3,0l4.8-1.4l5.5-1.6c0.1,0,0.2,0,0.3,0l4.8-1.4c0.5-0.1,0.8-0.7,0.7-1.2
	c-1.5-5.6-2.3-11.4-2.5-17.2h4.3h7h2.7c0.1,4.5,0.8,9,1.9,13.4c0.1,0.3,0.2,0.5,0.5,0.6c0.2,0.1,0.3,0.1,0.5,0.1c0.1,0,0.2,0,0.3,0
	l4.8-1.4l5.9-1.7c0.1,0,0.2,0,0.3,0l4.8-1.4c0.5-0.1,0.8-0.7,0.7-1.2c-0.7-2.8-1.1-5.6-1.2-8.4h4.6h7h3.3l17.7,0v5.8l-7.8,0
	l-8.7,8.2L95.9,158.2z"/>
<path class="st0" d="M100.7,156.3l1.5-1.4l8.3-7.7h14.2v20.1v2v3v2v4.6v2v3v2v4.4v2v3v2v2.7v2v3v2v4.3v2v3v2v4v2v3v2v8.7
	c-29.4-1-55.4-14.7-73-35.7l5.2-4.9l1.5-1.4c-0.4-0.5-0.8-1-1.2-1.4c-4-4.8-7.5-10.1-10.4-15.8l2.6-1.5l7-3.9l2.6-1.5
	c2.4,4.7,5.2,9,8.4,13c0.4,0.5,0.8,1,1.2,1.5l1.5-1.4l3.2-3l1.5-1.4l2.2-2l1.5-1.4l2-1.9l1.5-1.4c-0.4-0.5-0.8-1-1.2-1.5
	c-2.2-2.9-4.2-6-5.9-9.4l2.6-1.5l7.4-4.1l2.6-1.5c1.1,2.3,2.4,4.4,3.8,6.4c0.4,0.5,0.8,1.1,1.2,1.6l1.5-1.4l3.4-3.1l1.5-1.4
	L100.7,156.3z"/>
<path class="st0" d="M187.5,60.1l-22.1,40c-0.7,1.3-2.1,2.1-3.5,2.1c-0.7,0-1.3-0.2-1.9-0.5c-1.9-1.1-2.6-3.5-1.6-5.4l22.6-41
	c-1.9-1.3-3.8-2.4-5.7-3.6l-31.2,56.8c-0.7,1.3-2.1,2.1-3.5,2.1c-0.7,0-1.3-0.2-1.9-0.5c-1.9-1.1-2.6-3.5-1.6-5.4L168.2,48
	c-2.1-1-4.3-2-6.6-2.9l-22.4,40.6c-0.7,1.3-2.1,2.1-3.5,2.1c-0.7,0-1.3-0.2-1.9-0.5c-1.9-1.1-2.6-3.5-1.6-5.4L154,42.5
	c-8-2.4-16.5-3.8-25.2-4.1v90.8h14.2l8.2-7.7l3.7-3.5l4.9-4.5l3.7-3.4l4.7-4.4l3.7-3.4l3.5-3.2l3.7-3.4l4.6-4.3l3.7-3.4l4.4-4.1
	l3.7-3.4l6.6-6.2C197.5,69,192.7,64.3,187.5,60.1z"/>
<path class="st0" d="M98.3,42.8l21.6,39c1.1,1.9,0.4,4.4-1.6,5.4c-0.6,0.3-1.3,0.5-1.9,0.5c-1.4,0-2.8-0.7-3.5-2.1L90.6,45.5
	c-2.2,0.9-4.4,1.9-6.5,2.9l30.9,56.3c1.1,1.9,0.4,4.4-1.6,5.4c-0.6,0.3-1.3,0.5-1.9,0.5c-1.4,0-2.8-0.8-3.5-2.1L77.1,52.2
	c-1.9,1.2-3.8,2.4-5.7,3.7l22.3,40.4c1.1,1.9,0.4,4.4-1.6,5.4c-0.6,0.3-1.3,0.5-1.9,0.5c-1.4,0-2.8-0.7-3.5-2.1L64.9,60.8
	c-4.6,3.8-8.7,7.9-12.4,12.4l58,53.4l14,0.1V38.4C115.4,38.7,106.6,40.2,98.3,42.8z"/>
<path class="st0" d="M126,25.8c-25.6,0-49.1,8.6-68,22.9l5.8,6.9L88,99.4c0.4,0.8,1.3,1.3,2.2,1.3c0.4,0,0.8-0.1,1.2-0.3
	c0.6-0.3,1-0.9,1.2-1.5s0.1-1.3-0.2-1.9L67.9,52.8c2.7-1.8,5.4-3.5,8.2-5.1l33.1,60.1c0.4,0.8,1.3,1.3,2.2,1.3
	c0.4,0,0.8-0.1,1.2-0.3c1.2-0.7,1.7-2.2,1-3.4l-33-60c3.1-1.5,6.2-2.9,9.4-4.1L114.2,85c0.4,0.8,1.3,1.3,2.2,1.3
	c0.4,0,0.8-0.1,1.2-0.3c0.6-0.3,1-0.9,1.2-1.5s0.1-1.3-0.2-1.9L94.8,39.7c9.9-3.1,20.3-4.8,31.2-4.8c10.9,0,21.3,1.7,31.2,4.8
	l-23.7,42.9c-0.7,1.2-0.2,2.7,1,3.4c0.4,0.2,0.8,0.3,1.2,0.3c0.9,0,1.8-0.5,2.2-1.3L162,41.3c3.2,1.2,6.3,2.5,9.4,4l-33,60.1
	c-0.7,1.2-0.2,2.7,1,3.4c0.4,0.2,0.8,0.3,1.2,0.3c0.9,0,1.8-0.5,2.2-1.3l33-60.1c2.8,1.6,5.6,3.3,8.2,5.1L159.6,97
	c-0.7,1.2-0.2,2.7,1,3.4c0.4,0.2,0.8,0.3,1.2,0.3c0.9,0,1.8-0.5,2.2-1.3l24.2-43.8c25,18.9,41.2,48.8,41.2,82.5
	c0,25.3-9.1,48.5-24.3,66.5l-3.4-2.4L195,196l-3.7-3.4l-4.4-4.1l-3.7-3.4l-4.6-4.3l-3.7-3.4l-3.4-3.2l-3.7-3.4l-4.7-4.4l-3.7-3.4
	l-4.9-4.5l-3.7-3.5l-8.1-7.6h-14.2V238v3.5l0,9c60.8-1.5,109.6-51.2,109.6-112.3C238.4,76.1,188.1,25.8,126,25.8z"/>
<path class="st0" d="M223.7,139.3l0-2.3c-0.7-20.5-3.6-35.6-16-53.3L194.1,96c7.5,12.3,11.6,26.4,11.7,41c0,0.8,0,1.6,0,2.4
	c-0.2,15.5-4.8,30.3-13.3,43.1L179,169.8c5.4-9.2,8.4-19.7,8.6-30.4c0-0.7,0-1.5,0-2.3c-0.1-3.6-0.4-7.2-1.1-10.8
	c-1.2-6.2-3.3-12.1-6.3-17.7l-10.9,9.8h0c2.6,5.8,4,12.2,4.2,18.6c0,0.8,0,1.6,0,2.4c-0.2,7.1-2,14.1-5.1,20.4l-14.6-13.7
	c0.5-1.9,0.9-3.8,1.1-5.8h-1.4l-5.8,0l0,0l0,0l-11.9,0l-0.2,0l-0.2-0.1l-16.9-9.4l-8.6,0L50.3,75.2l-0.8,1.1
	C35.7,94.5,29.4,112.3,28.4,136l-0.1,1.3h8.2v2.1c0.1,6.9,1.1,13.8,2.8,20.5l10.4-2.7l3.4-0.9l-0.3-1.2c-1.2-5.1-1.9-10.5-2-15.8
	l0-2.1h7.8h3.5h6.2l0,2.1c0.1,3.7,0.6,7.4,1.4,10.9l0.3,1.3l3.4-0.9l7.6-2.1l3.4-0.9l-0.2-1.1c-0.5-2.3-0.8-4.6-0.9-7l0-2.1h8.1
	l3.5,0l22.7,0l18.4,7l7.6,0l0.4,0l0.3,0.3l58.6,54.9l0.6-0.8c0.8-1,1.5-2.1,2.3-3.1l0.3-0.4l0,0
	C217.6,178.3,222.9,161.2,223.7,139.3z"/>
<path class="st0" d="M155.9,136h1l0,1c0,0.8,0,1.6,0,2.4c-0.1,1.6-0.3,3.1-0.5,4.6l0,0l12,10.9c1.9-5,3-10.2,3.2-15.6
	c0-0.8,0-1.6,0-2.3c-0.1-6.7-1.8-13.3-4.6-19.2l13.7-12.8c5.8,9.7,8.9,20.7,9.1,32c0,0.9,0,1.6,0,2.4c-0.2,9.9-2.7,19.6-7.2,28.4
	l10.8,9.9c6.8-11.6,10.4-24.7,10.7-38.3c0-0.8,0-1.6,0-2.3c-0.2-15-4.6-29.5-12.7-42l14.8-13.8l-3.1-4.2l-5.8,5.4l-3.7,3.4L189,90
	l-3.7,3.4l-4.6,4.3l-1.9,1.8l-11,10.3l-11.2,10.5l-2.7,2.6l-9.6,9l-0.3,0.3l-0.4,0l-6.8,0v3.8l10.7,0l0,0l0,0l6,0H155.9z"/>
</svg>
