<?xml version="1.0" encoding="utf-8"?>
<!-- Generator: Adobe Illustrator 19.0.1, SVG Export Plug-In . SVG Version: 6.00 Build 0)  -->
<svg version="1.1" xmlns="http://www.w3.org/2000/svg" xmlns:xlink="http://www.w3.org/1999/xlink" x="0px" y="0px"
	 viewBox="0 0 1262.9 624" style="enable-background:new 0 0 1262.9 624;" xml:space="preserve">
<style type="text/css">
	.st0{fill:none;stroke:#AEAF90;stroke-width:6;stroke-miterlimit:10;}
	.st1{fill:#AEAF90;}
	.st2{fill:#EAE534;}
	.st3{fill:#0DC5CE;}
	.st4{fill:#FFD400;}
	.st5{fill:#41A02A;}
</style>
<g id="conductive">
	<polyline class="st0" points="638.8,313 648.2,303.7 638.8,294.3 620.1,313 638.8,331.8 663.5,307.1 638.8,282.5 608.3,313 
		638.8,343.6 675.3,307.1 638.8,270.6 596.4,313 638.8,355.5 688,306.3 638.8,257.1 582.8,313 638.8,369 701.3,306.5 638.8,244 
		569.8,313 638.8,382.1 714.6,306.3 638.8,230.5 556.3,313 638.8,395.6 727.2,307.2 638.8,218.8 544.6,313 638.8,407.2 739.7,306.4 
		638.8,205.6 531.4,313 638.8,420.5 752.8,306.5 638.8,192.5 518.3,313 638.8,433.5 759.3,313 776.1,329.8 781.9,324 	"/>
	
		<rect x="633.4" y="304.6" transform="matrix(0.7071 -0.7071 0.7071 0.7071 -33.3692 543.7652)" class="st1" width="12.6" height="15.1"/>
	<polyline class="st0" points="791.3,333.4 783.8,341 850.5,407.8 940.1,318.1 953.3,331.3 961.8,322.7 1028.9,391 1102.1,317.8 	
		"/>
	<polyline class="st0" points="803.7,291.2 806.4,288.5 792.5,274.6 849.6,217.6 904.9,273 870.6,307.3 	"/>
	<polyline class="st0" points="818.7,306.1 830.6,294.1 877.2,340.7 928,289.9 950.1,312 987,275.1 1027.2,315.3 1063.7,278.7 	"/>
</g>
<g id="embroid">
	<g>
		<g>
			<path class="st2" d="M638.8,146.3l7.2,7.2l-7.2,7.2l-7.2-7.2L638.8,146.3 M638.8,126.2l-27.2,27.2l27.2,27.2l27.2-27.2
				L638.8,126.2L638.8,126.2z"/>
		</g>
	</g>
	<g>
		<g>
			<path class="st2" d="M798.4,305.9l7.2,7.2l-7.2,7.2l-7.2-7.2L798.4,305.9 M798.4,285.8L771.2,313l27.2,27.2l27.2-27.2
				L798.4,285.8L798.4,285.8z"/>
		</g>
	</g>
	<g>
		<g>
			<path class="st2" d="M479.3,305.9l7.2,7.2l-7.2,7.2l-7.2-7.2L479.3,305.9 M479.3,285.8L452,313l27.2,27.2l27.2-27.2L479.3,285.8
				L479.3,285.8z"/>
		</g>
	</g>
	<g>
		<g>
			<path class="st2" d="M638.8,465.4l7.2,7.2l-7.2,7.2l-7.2-7.2L638.8,465.4 M638.8,445.4l-27.2,27.2l27.2,27.2l27.2-27.2
				L638.8,445.4L638.8,445.4z"/>
		</g>
	</g>
	<g>
		<g>
			<path class="st2" d="M676.8,184.2l90.8,90.8l-7.2,7.2l-90.8-90.8L676.8,184.2 M676.8,164.2l-27.2,27.2l110.9,110.9l27.2-27.2
				L676.8,164.2L676.8,164.2z"/>
		</g>
	</g>
	<g>
		<g>
			<path class="st2" d="M517.2,343.8l90.8,90.8l-7.2,7.2L510,351L517.2,343.8 M517.2,323.8L490,351l110.9,110.9l27.2-27.2
				L517.2,323.8L517.2,323.8z"/>
		</g>
	</g>
	<g>
		<g>
			<path class="st2" d="M600.9,184.2l7.2,7.2l-90.8,90.8l-7.2-7.2L600.9,184.2 M600.9,164.2L490,275.1l27.2,27.2l110.9-110.9
				L600.9,164.2L600.9,164.2z"/>
		</g>
	</g>
	<g>
		<g>
			<path class="st2" d="M760.4,343.8l7.2,7.2l-90.8,90.8l-7.2-7.2L760.4,343.8 M760.4,323.8L649.6,434.6l27.2,27.2L787.7,351
				L760.4,323.8L760.4,323.8z"/>
		</g>
	</g>
	<g>
		<path class="st2" d="M429.9,244.6l28.7,28.7L429.9,302l-28.7-28.7L429.9,244.6 M429.9,324.1l28.7,28.7l-28.7,28.7l-28.7-28.7
			L429.9,324.1 M429.9,224.6l-48.7,48.7l39.7,39.7l-39.7,39.7l48.7,48.7l48.7-48.7L438.8,313l39.7-39.7L429.9,224.6L429.9,224.6z"/>
	</g>
	<g>
		<polygon class="st2" points="847.8,332.7 827.7,352.8 847.8,372.9 867.9,352.8 847.8,332.7 		"/>
	</g>
	<g>
		<path class="st2" d="M847.8,244.6l28.7,28.7l-28.7,28.7l-28.7-28.7L847.8,244.6 M847.8,324.1l28.7,28.7l-28.7,28.7l-28.7-28.7
			L847.8,324.1 M847.8,224.6l-48.7,48.7l39.7,39.7l-39.7,39.7l48.7,48.7l48.7-48.7L856.7,313l39.7-39.7L847.8,224.6L847.8,224.6z"/>
	</g>
	<g>
		<polygon class="st2" points="847.8,253.2 827.7,273.3 847.8,293.4 867.9,273.3 847.8,253.2 		"/>
	</g>
	<g>
		<path class="st2" d="M371.7,302.8l10.2,10.2l-10.2,10.2L361.5,313L371.7,302.8 M371.7,282.8L341.4,313l30.3,30.3l30.3-30.3
			L371.7,282.8L371.7,282.8z"/>
	</g>
	<g>
		<path class="st2" d="M906,302.8l10.2,10.2L906,323.2L895.8,313L906,302.8 M906,282.8L875.7,313l30.3,30.3l30.3-30.3L906,282.8
			L906,282.8z"/>
	</g>
	<g>
		<path class="st2" d="M678.6,75.4l28.7,28.7l-28.7,28.7l-28.7-28.7L678.6,75.4 M599.1,75.4l28.7,28.7l-28.7,28.7l-28.7-28.7
			L599.1,75.4 M678.6,55.4l-39.7,39.7l-39.7-39.7l-48.7,48.7l48.7,48.7l39.7-39.7l39.7,39.7l48.7-48.7L678.6,55.4L678.6,55.4z"/>
	</g>
	<g>
		<path class="st2" d="M678.6,493.3l28.7,28.7l-28.7,28.7L649.9,522L678.6,493.3 M599.1,493.3l28.7,28.7l-28.7,28.7L570.4,522
			L599.1,493.3 M678.6,473.3L638.8,513l-39.7-39.7L550.4,522l48.7,48.7l39.7-39.7l39.7,39.7l48.7-48.7L678.6,473.3L678.6,473.3z"/>
	</g>
	<g>
		<path class="st2" d="M638.8,35.7L649,45.9l-10.2,10.2l-10.2-10.2L638.8,35.7 M638.8,15.6l-30.3,30.3l30.3,30.3l30.3-30.3
			L638.8,15.6L638.8,15.6z"/>
	</g>
	<g>
		<path class="st2" d="M638.8,570l10.2,10.2l-10.2,10.2l-10.2-10.2L638.8,570 M638.8,549.9l-30.3,30.3l30.3,30.3l30.3-30.3
			L638.8,549.9L638.8,549.9z"/>
	</g>
	<g>
		<path class="st2" d="M545.6,129.1l28.3,28.3L483,248.2L454.7,220L545.6,129.1 M545.6,109.1L434.7,220l48.3,48.3l110.9-110.9
			L545.6,109.1L545.6,109.1z"/>
	</g>
	<g>
		<path class="st2" d="M794.4,377.9l28.3,28.3L731.8,497l-28.3-28.3L794.4,377.9 M794.4,357.9L683.5,468.8l48.3,48.3l110.9-110.9
			L794.4,357.9L794.4,357.9z"/>
	</g>
	<g>
		<path class="st2" d="M731.8,129.1l90.8,90.8l-28.3,28.3l-90.8-90.8L731.8,129.1 M731.8,109.1l-48.3,48.3l110.9,110.9l48.3-48.3
			L731.8,109.1L731.8,109.1z"/>
	</g>
	<g>
		<path class="st2" d="M483,377.9l90.8,90.8L545.6,497l-90.8-90.8L483,377.9 M483,357.9l-48.3,48.3l110.9,110.9l48.3-48.3L483,357.9
			L483,357.9z"/>
	</g>
	<g>
		<path class="st2" d="M947.2,38l122,122l-122,122l-122-122L947.2,38 M947.2,17.9l-142,142l142,142l142-142L947.2,17.9L947.2,17.9z"
			/>
	</g>
	<g>
		<path class="st2" d="M947.2,74.5l85.5,85.5l-85.5,85.5L861.7,160L947.2,74.5 M947.2,54.4L841.7,160l105.6,105.6L1052.8,160
			L947.2,54.4L947.2,54.4z"/>
	</g>
	<g>
		<path class="st2" d="M947.4,112.7l10.3,10.3l-10.3,10.3l-10.3-10.3L947.4,112.7 M947.4,92.7l-30.4,30.4l30.4,30.4l30.4-30.4
			L947.4,92.7L947.4,92.7z"/>
	</g>
	<g>
		<path class="st2" d="M946.2,186.6l10.3,10.3l-10.3,10.3l-10.3-10.3L946.2,186.6 M946.2,166.6l-30.4,30.4l30.4,30.4l30.4-30.4
			L946.2,166.6L946.2,166.6z"/>
	</g>
	<g>
		<path class="st2" d="M1107.4,191l122,122l-122,122l-122-122L1107.4,191 M1107.4,171l-142,142l142,142l142-142L1107.4,171
			L1107.4,171z"/>
	</g>
	<g>
		<path class="st2" d="M1107.4,227.5L1193,313l-85.5,85.5l-85.5-85.5L1107.4,227.5 M1107.4,207.5L1001.9,313l105.6,105.6L1213,313
			L1107.4,207.5L1107.4,207.5z"/>
	</g>
	<g>
		<path class="st2" d="M1107.6,265.8l10.3,10.3l-10.3,10.3l-10.3-10.3L1107.6,265.8 M1107.6,245.7l-30.4,30.4l30.4,30.4l30.4-30.4
			L1107.6,245.7L1107.6,245.7z"/>
	</g>
	<g>
		<path class="st2" d="M1106.4,339.6l10.3,10.3l-10.3,10.3l-10.3-10.3L1106.4,339.6 M1106.4,319.6l-30.4,30.4l30.4,30.4l30.4-30.4
			L1106.4,319.6L1106.4,319.6z"/>
	</g>
	<g>
		<path class="st2" d="M947.2,343.8l122,122l-122,122l-122-122L947.2,343.8 M947.2,323.8l-142,142l142,142l142-142L947.2,323.8
			L947.2,323.8z"/>
	</g>
	<g>
		<path class="st2" d="M947.2,380.3l85.5,85.5l-85.5,85.5l-85.5-85.5L947.2,380.3 M947.2,360.2L841.7,465.8l105.6,105.6l105.6-105.6
			L947.2,360.2L947.2,360.2z"/>
	</g>
	<g>
		<path class="st2" d="M947.4,418.6l10.3,10.3l-10.3,10.3l-10.3-10.3L947.4,418.6 M947.4,398.5l-30.4,30.4l30.4,30.4l30.4-30.4
			L947.4,398.5L947.4,398.5z"/>
	</g>
	<g>
		<path class="st2" d="M946.2,492.4l10.3,10.3l-10.3,10.3l-10.3-10.3L946.2,492.4 M946.2,472.4l-30.4,30.4l30.4,30.4l30.4-30.4
			L946.2,472.4L946.2,472.4z"/>
	</g>
	<g>
		<g>
			<path class="st3" d="M328.6,343.8l122,122l-122,122l-122-122L328.6,343.8 M328.6,323.8l-142,142l142,142l142-142L328.6,323.8
				L328.6,323.8z"/>
		</g>
	</g>
	<g>
		<g>
			<path class="st4" d="M328.6,380.3l85.5,85.5l-85.5,85.5l-85.5-85.5L328.6,380.3 M328.6,360.2L223.1,465.8l105.6,105.6
				l105.6-105.6L328.6,360.2L328.6,360.2z"/>
		</g>
	</g>
	<g>
		<g>
			<path class="st3" d="M328.4,492.4l10.3,10.3l-10.3,10.3l-10.3-10.3L328.4,492.4 M328.4,472.4l-30.4,30.4l30.4,30.4l30.4-30.4
				L328.4,472.4L328.4,472.4z"/>
		</g>
	</g>
	<g>
		<g>
			<path class="st3" d="M329.7,418.6l10.3,10.3l-10.3,10.3l-10.3-10.3L329.7,418.6 M329.7,398.5l-30.4,30.4l30.4,30.4l30.4-30.4
				L329.7,398.5L329.7,398.5z"/>
		</g>
	</g>
	<g>
		<path class="st3" d="M168.4,190.8l122,122l-122,122l-122-122L168.4,190.8 M168.4,170.7l-142,142l142,142l142-142L168.4,170.7
			L168.4,170.7z"/>
	</g>
	<g>
		<g>
			<path class="st4" d="M168.4,227.2l85.5,85.5l-85.5,85.5l-85.5-85.5L168.4,227.2 M168.4,207.2L62.8,312.8l105.6,105.6L274,312.8
				L168.4,207.2L168.4,207.2z"/>
		</g>
	</g>
	<g>
		<path class="st3" d="M168.2,339.4l10.3,10.3L168.2,360l-10.3-10.3L168.2,339.4 M168.2,319.3l-30.4,30.4l30.4,30.4l30.4-30.4
			L168.2,319.3L168.2,319.3z"/>
	</g>
	<g>
		<path class="st3" d="M169.4,265.5l10.3,10.3l-10.3,10.3l-10.3-10.3L169.4,265.5 M169.4,245.5l-30.4,30.4l30.4,30.4l30.4-30.4
			L169.4,245.5L169.4,245.5z"/>
	</g>
	<g>
		<path class="st3" d="M328.6,38l122,122l-122,122l-122-122L328.6,38 M328.6,17.9l-142,142l142,142l142-142L328.6,17.9L328.6,17.9z"
			/>
	</g>
	<g>
		<g>
			<path class="st4" d="M328.6,74.5l85.5,85.5l-85.5,85.5L243.1,160L328.6,74.5 M328.6,54.4L223.1,160l105.6,105.6L434.2,160
				L328.6,54.4L328.6,54.4z"/>
		</g>
	</g>
	<g>
		<path class="st3" d="M328.4,186.6l10.3,10.3l-10.3,10.3l-10.3-10.3L328.4,186.6 M328.4,166.6l-30.4,30.4l30.4,30.4l30.4-30.4
			L328.4,166.6L328.4,166.6z"/>
	</g>
	<g>
		<path class="st3" d="M329.7,112.7l10.3,10.3l-10.3,10.3l-10.3-10.3L329.7,112.7 M329.7,92.7l-30.4,30.4l30.4,30.4l30.4-30.4
			L329.7,92.7L329.7,92.7z"/>
	</g>
	<g>
		
			<rect x="415.7" y="259.1" transform="matrix(0.7071 -0.7071 0.7071 0.7071 -67.3417 384.0014)" class="st4" width="28.4" height="28.4"/>
	</g>
	<g>
		
			<rect x="415.7" y="338.6" transform="matrix(0.7071 -0.7071 0.7071 0.7071 -123.5521 407.2845)" class="st4" width="28.4" height="28.4"/>
	</g>
	<g>
		
			<rect x="664.4" y="89.9" transform="matrix(0.7071 0.7071 -0.7071 0.7071 272.3371 -449.3377)" class="st4" width="28.4" height="28.4"/>
	</g>
	<g>
		
			<rect x="584.9" y="89.9" transform="matrix(0.7071 0.7071 -0.7071 0.7071 249.054 -393.1273)" class="st4" width="28.4" height="28.4"/>
	</g>
	<g>
		
			<rect x="584.9" y="507.8" transform="matrix(-0.7071 -0.7071 0.7071 -0.7071 653.5829 1314.7162)" class="st4" width="28.4" height="28.4"/>
	</g>
	<g>
		
			<rect x="664.4" y="507.8" transform="matrix(-0.7071 -0.7071 0.7071 -0.7071 789.2867 1370.9265)" class="st4" width="28.4" height="28.4"/>
	</g>
	<g>
		
			<rect x="459.9" y="174.5" transform="matrix(0.7071 -0.7071 0.7071 0.7071 17.2063 418.9112)" class="st4" width="108.8" height="28.4"/>
	</g>
	<g>
		
			<rect x="708.7" y="174.5" transform="matrix(0.7071 0.7071 -0.7071 0.7071 356.9207 -484.3113)" class="st4" width="108.8" height="28.4"/>
	</g>
	<g>
		
			<rect x="708.7" y="423.3" transform="matrix(-0.7071 0.7071 -0.7071 -0.7071 1612.0027 207.2625)" class="st4" width="108.8" height="28.4"/>
	</g>
	<g>
		
			<rect x="459.9" y="423.3" transform="matrix(-0.7071 -0.7071 0.7071 -0.7071 568.5693 1110.485)" class="st4" width="108.8" height="28.4"/>
	</g>
	<g>
		
			<rect x="888.4" y="139.1" transform="matrix(0.7071 0.7071 -0.7071 0.7071 380.0682 -596.348)" class="st4" width="42.9" height="42.9"/>
	</g>
	<g>
		
			<rect x="962.3" y="137.9" transform="matrix(0.7071 0.7071 -0.7071 0.7071 400.8331 -648.9281)" class="st4" width="42.9" height="42.9"/>
	</g>
	<g>
		
			<rect x="1048.6" y="292.2" transform="matrix(0.7071 0.7071 -0.7071 0.7071 535.2097 -664.8139)" class="st4" width="42.9" height="42.9"/>
	</g>
	<g>
		
			<rect x="1122.5" y="291" transform="matrix(0.7071 0.7071 -0.7071 0.7071 555.9747 -717.394)" class="st4" width="42.9" height="42.9"/>
	</g>
	<g>
		
			<rect x="888.4" y="445" transform="matrix(0.7071 0.7071 -0.7071 0.7071 596.3117 -506.777)" class="st4" width="42.9" height="42.9"/>
	</g>
	<g>
		
			<rect x="962.3" y="443.7" transform="matrix(0.7071 0.7071 -0.7071 0.7071 617.0767 -559.3571)" class="st4" width="42.9" height="42.9"/>
	</g>
	<g>
		
			<rect x="344.5" y="443.7" transform="matrix(-0.7071 -0.7071 0.7071 -0.7071 295.7993 1052.922)" class="st5" width="42.9" height="42.9"/>
	</g>
	<g>
		
			<rect x="270.6" y="445" transform="matrix(-0.7071 -0.7071 0.7071 -0.7071 168.8598 1002.7909)" class="st5" width="42.9" height="42.9"/>
	</g>
	<g>
		
			<rect x="184.3" y="290.7" transform="matrix(-0.7071 -0.7071 0.7071 -0.7071 130.5079 678.3771)" class="st5" width="42.9" height="42.9"/>
	</g>
	<g>
		
			<rect x="110.4" y="291.9" transform="matrix(-0.7071 -0.7071 0.7071 -0.7071 3.5684 628.246)" class="st5" width="42.9" height="42.9"/>
	</g>
	<g>
		
			<rect x="344.5" y="137.9" transform="matrix(-0.7071 -0.7071 0.7071 -0.7071 512.0429 530.8638)" class="st5" width="42.9" height="42.9"/>
	</g>
	<g>
		
			<rect x="270.6" y="139.1" transform="matrix(-0.7071 -0.7071 0.7071 -0.7071 385.1033 480.7328)" class="st5" width="42.9" height="42.9"/>
	</g>
</g>
</svg>
