<?xml version="1.0" encoding="utf-8"?>
<!-- Generator: Adobe Illustrator 19.0.1, SVG Export Plug-In . SVG Version: 6.00 Build 0)  -->
<svg version="1.1" id="Layer_1" xmlns="http://www.w3.org/2000/svg" xmlns:xlink="http://www.w3.org/1999/xlink" x="0px" y="0px"
	 viewBox="0 0 651.9 850.4" style="enable-background:new 0 0 651.9 850.4;" xml:space="preserve">
<style type="text/css">
	.st0{fill:none;stroke:#FF0000;stroke-width:1.000000e-03;stroke-miterlimit:10;}
</style>
<polygon class="st0" points="43.6,41.6 44.3,41.6 44.3,13.2 16,13.2 16,41.6 16,143.6 74.1,143.6 74.1,160.2 186,160.2 186,143.6 
	"/>
<g>
	<g>
		<circle class="st0" cx="573.5" cy="648.4" r="20.6"/>
		<circle class="st0" cx="573.5" cy="648.4" r="70.9"/>
	</g>
	<rect x="515.9" y="644.2" class="st0" width="28.3" height="8.5"/>
	<g>
		<rect x="569.3" y="590.7" class="st0" width="8.5" height="28.3"/>
		<rect x="569.3" y="677.7" class="st0" width="8.5" height="28.3"/>
	</g>
</g>
<g>
	<g>
		<path class="st0" d="M489.5,544.5c-11.4,0-20.6-9.2-20.6-20.6s9.2-20.6,20.6-20.6l67.6,0c-9-28.8-35.8-50.3-67.6-50.3
			c-39.1,0-70.9,31.7-70.9,70.9s31.7,70.9,70.9,70.9c32,0,59.3-21.4,68.1-50.6L489.5,544.5z"/>
	</g>
	<rect x="431.9" y="519.7" class="st0" width="28.3" height="8.5"/>
	<g>
		<rect x="485.3" y="466.3" class="st0" width="8.5" height="28.3"/>
		<rect x="485.3" y="553.3" class="st0" width="8.5" height="28.3"/>
	</g>
</g>
<g>
	<g>
		<path class="st0" d="M482,793.5c-11.4,0-20.6-9.2-20.6-20.6s9.2-20.6,20.6-20.6l67.6,0c-9-28.8-35.8-50.3-67.6-50.3
			c-39.1,0-70.9,31.7-70.9,70.9c0,39.1,31.7,70.9,70.9,70.9c32,0,59.3-21.4,68.1-50.6L482,793.5z"/>
	</g>
	<rect x="424.4" y="768.7" class="st0" width="28.3" height="8.5"/>
	<g>
		<rect x="477.8" y="715.3" class="st0" width="8.5" height="28.3"/>
		<rect x="477.8" y="802.3" class="st0" width="8.5" height="28.3"/>
	</g>
</g>
<g>
	<g>
		<path class="st0" d="M93.1,385.5c-11.4,0-20.6-9.2-20.6-20.6c0-11.4,9.2-20.6,20.6-20.6l67.6,0c-9-28.8-35.8-50.3-67.6-50.3
			c-39.1,0-70.9,31.7-70.9,70.9s31.7,70.9,70.9,70.9c32,0,59.3-21.4,68.1-50.6L93.1,385.5z"/>
	</g>
	<rect x="35.4" y="360.7" class="st0" width="28.3" height="8.5"/>
	<g>
		<rect x="88.8" y="307.3" class="st0" width="8.5" height="28.3"/>
		<rect x="88.8" y="394.3" class="st0" width="8.5" height="28.3"/>
	</g>
</g>
<g>
	<g>
		<circle class="st0" cx="431.1" cy="243.1" r="209.8"/>
		<circle class="st0" cx="431.1" cy="243.1" r="55.9"/>
	</g>
	<rect x="231.8" y="238.8" class="st0" width="112" height="8.5"/>
	<rect x="426.7" y="43.9" class="st0" width="8.5" height="112"/>
	<rect x="426.7" y="330.3" class="st0" width="8.5" height="112"/>
</g>
<g>
	<g>
		<circle class="st0" cx="225.3" cy="632.6" r="209.8"/>
		<circle class="st0" cx="225.3" cy="632.6" r="55.9"/>
	</g>
	<rect x="26" y="628.4" class="st0" width="112" height="8.5"/>
	<rect x="220.9" y="433.4" class="st0" width="8.5" height="112"/>
	<rect x="220.9" y="719.8" class="st0" width="8.5" height="112"/>
</g>
<polygon class="st0" points="190.6,266.7 133.8,183.3 133.8,166.7 21.9,166.7 21.9,183.3 164.3,285.4 163.6,285.4 163.6,313.7 
	191.9,313.7 191.9,285.4 "/>
<polygon class="st0" points="220.6,116.7 164.1,33.8 163.8,33.8 163.8,17.2 51.9,17.2 51.9,33.8 194.3,135.9 193.6,135.9 
	193.6,164.2 221.9,164.2 221.9,135.9 "/>
</svg>
