<?xml version="1.0" encoding="utf-8"?>
<!-- Generator: Adobe Illustrator 18.1.0, SVG Export Plug-In . SVG Version: 6.00 Build 0)  -->
<svg version="1.1" id="Layer_1" xmlns="http://www.w3.org/2000/svg" xmlns:xlink="http://www.w3.org/1999/xlink" x="0px" y="0px"
	 viewBox="0 0 1700.8 1417.3" enable-background="new 0 0 1700.8 1417.3" xml:space="preserve">
<polygon fill="none" stroke="#007F00" stroke-linecap="round" stroke-linejoin="round" points="56.9,866.4 56.9,880.6 71,880.6 
	71,901.8 56.9,901.8 56.9,916 71,916 71,930.2 56.9,930.2 56.9,944.4 71,944.4 71,958.5 56.9,958.5 56.9,972.7 71,972.7 71,986.9 
	56.9,986.9 56.9,1001 71,1001 71,1015.2 56.9,1015.2 56.9,1029.4 71,1029.4 71,1043.6 56.9,1043.6 56.9,1057.7 71,1057.7 71,1071.9 
	56.9,1071.9 56.9,1086.1 71,1086.1 71,1100.3 56.9,1100.3 56.9,1114.4 71,1114.4 71,1128.6 56.9,1128.6 56.9,1142.8 71,1142.8 
	71,1164 56.9,1164 56.9,1178.2 106.5,1178.2 106.5,1164 120.6,1164 120.6,1178.2 134.8,1178.2 134.8,1164 149,1164 149,1178.2 
	163.2,1178.2 163.2,1164 177.3,1164 177.3,1178.2 191.5,1178.2 191.5,1164 205.7,1164 205.7,1178.2 255.3,1178.2 255.3,1164 
	241.1,1164 241.1,1142.8 255.3,1142.8 255.3,1128.6 241.1,1128.6 241.1,1114.4 255.3,1114.4 255.3,1100.3 241.1,1100.3 
	241.1,1086.1 255.3,1086.1 255.3,1071.9 241.1,1071.9 241.1,1057.7 255.3,1057.7 255.3,1043.6 241.1,1043.6 241.1,1029.4 
	255.3,1029.4 255.3,1015.2 241.1,1015.2 241.1,1001 255.3,1001 255.3,986.9 241.1,986.9 241.1,972.7 255.3,972.7 255.3,958.5 
	241.1,958.5 241.1,944.4 255.3,944.4 255.3,930.2 241.1,930.2 241.1,916 255.3,916 255.3,901.8 241.1,901.8 241.1,880.6 
	255.3,880.6 255.3,866.4 205.7,866.4 205.7,880.6 191.5,880.6 191.5,866.4 177.3,866.4 177.3,880.6 163.2,880.6 163.2,866.4 
	149,866.4 149,880.6 134.8,880.6 134.8,866.4 120.6,866.4 120.6,880.6 106.5,880.6 106.5,866.4 "/>
<polyline fill="none" stroke="#007F00" stroke-linecap="round" stroke-linejoin="round" points="127.7,710.5 71,710.5 71,724.7 
	56.9,724.7 56.9,738.8 71,738.8 71,753 56.9,753 56.9,767.2 71,767.2 71,781.4 56.9,781.4 56.9,794.1 71,794.1 71,811.1 56.9,811.1 
	56.9,823.9 71,823.9 71,838.1 56.9,838.1 56.9,852.2 71,852.2 71,866.4 "/>
<polyline fill="none" stroke="#007F00" stroke-linecap="round" stroke-linejoin="round" points="241.1,866.4 241.1,852.2 
	255.3,852.2 255.3,838.1 241.1,838.1 241.1,823.9 255.3,823.9 255.3,811.1 241.1,811.1 241.1,794.1 255.3,794.1 255.3,781.4 
	241.1,781.4 241.1,767.2 255.3,767.2 255.3,753 241.1,753 241.1,738.8 255.3,738.8 255.3,724.7 241.1,724.7 241.1,710.5 
	184.4,710.5 "/>
<polyline fill="none" stroke="#007F00" stroke-linecap="round" stroke-linejoin="round" points="71,1178.2 71,1192.4 56.9,1192.4 
	56.9,1206.6 71,1206.6 71,1220.7 56.9,1220.7 56.9,1233.5 71,1233.5 71,1250.5 56.9,1250.5 56.9,1263.3 71,1263.3 71,1277.4 
	56.9,1277.4 56.9,1291.6 71,1291.6 71,1305.8 56.9,1305.8 56.9,1319.9 71,1319.9 71,1334.1 241.1,1334.1 241.1,1319.9 255.3,1319.9 
	255.3,1305.8 241.1,1305.8 241.1,1291.6 255.3,1291.6 255.3,1277.4 241.1,1277.4 241.1,1263.3 255.3,1263.3 255.3,1250.5 
	241.1,1250.5 241.1,1233.5 255.3,1233.5 255.3,1220.7 241.1,1220.7 241.1,1206.6 255.3,1206.6 255.3,1192.4 241.1,1192.4 
	241.1,1178.2 "/>
<g>
	<polyline fill="none" stroke="#007F00" stroke-linecap="round" stroke-linejoin="round" points="255.3,1029.4 269.5,1029.4 
		269.5,1043.6 255.3,1043.6 	"/>
	<polyline fill="none" stroke="#007F00" stroke-linecap="round" stroke-linejoin="round" points="255.3,1001 269.5,1001 
		269.5,1015.2 255.3,1015.2 	"/>
	<polyline fill="none" stroke="#007F00" stroke-linecap="round" stroke-linejoin="round" points="255.3,972.7 269.5,972.7 
		269.5,986.9 255.3,986.9 	"/>
	<polyline fill="none" stroke="#007F00" stroke-linecap="round" stroke-linejoin="round" points="255.3,944.4 269.5,944.4 
		269.5,958.5 255.3,958.5 	"/>
	<polyline fill="none" stroke="#007F00" stroke-linecap="round" stroke-linejoin="round" points="255.3,916 269.5,916 269.5,930.2 
		255.3,930.2 	"/>
	<polyline fill="none" stroke="#007F00" stroke-linecap="round" stroke-linejoin="round" points="255.3,880.6 269.5,880.6 
		269.5,901.8 255.3,901.8 	"/>
	<polyline fill="none" stroke="#007F00" stroke-linecap="round" stroke-linejoin="round" points="255.3,1178.2 304.9,1178.2 
		304.9,1164 319.1,1164 319.1,1178.2 333.2,1178.2 333.2,1164 347.4,1164 347.4,1178.2 361.6,1178.2 361.6,1164 375.8,1164 
		375.8,1178.2 389.9,1178.2 389.9,1164 404.1,1164 404.1,1178.2 453.7,1178.2 453.7,1164 439.5,1164 439.5,1142.8 453.7,1142.8 
		453.7,1128.6 439.5,1128.6 439.5,1114.4 453.7,1114.4 453.7,1100.3 439.5,1100.3 439.5,1086.1 453.7,1086.1 453.7,1071.9 
		439.5,1071.9 439.5,1057.7 453.7,1057.7 453.7,1043.6 439.5,1043.6 439.5,1029.4 453.7,1029.4 453.7,1015.2 439.5,1015.2 
		439.5,1001 453.7,1001 453.7,986.9 439.5,986.9 439.5,972.7 453.7,972.7 453.7,958.5 439.5,958.5 439.5,944.4 453.7,944.4 
		453.7,930.2 439.5,930.2 439.5,916 453.7,916 453.7,901.8 439.5,901.8 439.5,880.6 453.7,880.6 453.7,866.4 404.1,866.4 
		404.1,880.6 389.9,880.6 389.9,866.4 375.8,866.4 375.8,880.6 361.6,880.6 361.6,866.4 347.4,866.4 347.4,880.6 333.2,880.6 
		333.2,866.4 319.1,866.4 319.1,880.6 304.9,880.6 304.9,866.4 255.3,866.4 	"/>
	<polyline fill="none" stroke="#007F00" stroke-linecap="round" stroke-linejoin="round" points="255.3,1142.8 269.5,1142.8 
		269.5,1164 255.3,1164 	"/>
	<polyline fill="none" stroke="#007F00" stroke-linecap="round" stroke-linejoin="round" points="255.3,1114.4 269.5,1114.4 
		269.5,1128.6 255.3,1128.6 	"/>
	<polyline fill="none" stroke="#007F00" stroke-linecap="round" stroke-linejoin="round" points="255.3,1086.1 269.5,1086.1 
		269.5,1100.3 255.3,1100.3 	"/>
	<polyline fill="none" stroke="#007F00" stroke-linecap="round" stroke-linejoin="round" points="255.3,1057.7 269.5,1057.7 
		269.5,1071.9 255.3,1071.9 	"/>
	<polyline fill="none" stroke="#007F00" stroke-linecap="round" stroke-linejoin="round" points="255.3,852.2 269.5,852.2 
		269.5,866.4 	"/>
	<polyline fill="none" stroke="#007F00" stroke-linecap="round" stroke-linejoin="round" points="255.3,823.9 269.5,823.9 
		269.5,838.1 255.3,838.1 	"/>
	<polyline fill="none" stroke="#007F00" stroke-linecap="round" stroke-linejoin="round" points="255.3,794.1 269.5,794.1 
		269.5,811.1 255.3,811.1 	"/>
	<polyline fill="none" stroke="#007F00" stroke-linecap="round" stroke-linejoin="round" points="255.3,767.2 269.5,767.2 
		269.5,781.4 255.3,781.4 	"/>
	<polyline fill="none" stroke="#007F00" stroke-linecap="round" stroke-linejoin="round" points="255.3,738.8 269.5,738.8 
		269.5,753 255.3,753 	"/>
	<polyline fill="none" stroke="#007F00" stroke-linecap="round" stroke-linejoin="round" points="326.1,710.5 269.5,710.5 
		269.5,724.7 255.3,724.7 	"/>
	<polyline fill="none" stroke="#007F00" stroke-linecap="round" stroke-linejoin="round" points="439.5,866.4 439.5,852.2 
		453.7,852.2 453.7,838.1 439.5,838.1 439.5,823.9 453.7,823.9 453.7,811.1 439.5,811.1 439.5,794.1 453.7,794.1 453.7,781.4 
		439.5,781.4 439.5,767.2 453.7,767.2 453.7,753 439.5,753 439.5,738.8 453.7,738.8 453.7,724.7 439.5,724.7 439.5,710.5 
		382.8,710.5 	"/>
	<polyline fill="none" stroke="#007F00" stroke-linecap="round" stroke-linejoin="round" points="255.3,1319.9 269.5,1319.9 
		269.5,1334.1 439.5,1334.1 439.5,1319.9 453.7,1319.9 453.7,1305.8 439.5,1305.8 439.5,1291.6 453.7,1291.6 453.7,1277.4 
		439.5,1277.4 439.5,1263.3 453.7,1263.3 453.7,1250.5 439.5,1250.5 439.5,1233.5 453.7,1233.5 453.7,1220.7 439.5,1220.7 
		439.5,1206.6 453.7,1206.6 453.7,1192.4 439.5,1192.4 439.5,1178.2 	"/>
	<polyline fill="none" stroke="#007F00" stroke-linecap="round" stroke-linejoin="round" points="255.3,1291.6 269.5,1291.6 
		269.5,1305.8 255.3,1305.8 	"/>
	<polyline fill="none" stroke="#007F00" stroke-linecap="round" stroke-linejoin="round" points="255.3,1263.3 269.5,1263.3 
		269.5,1277.4 255.3,1277.4 	"/>
	<polyline fill="none" stroke="#007F00" stroke-linecap="round" stroke-linejoin="round" points="255.3,1233.5 269.5,1233.5 
		269.5,1250.5 255.3,1250.5 	"/>
	<polyline fill="none" stroke="#007F00" stroke-linecap="round" stroke-linejoin="round" points="255.3,1206.6 269.5,1206.6 
		269.5,1220.7 255.3,1220.7 	"/>
	<polyline fill="none" stroke="#007F00" stroke-linecap="round" stroke-linejoin="round" points="269.5,1178.2 269.5,1192.4 
		255.3,1192.4 	"/>
</g>
<g>
	<polyline fill="none" stroke="#007F00" stroke-linecap="round" stroke-linejoin="round" points="453.7,1029.4 467.9,1029.4 
		467.9,1043.6 453.7,1043.6 	"/>
	<polyline fill="none" stroke="#007F00" stroke-linecap="round" stroke-linejoin="round" points="453.7,1001 467.9,1001 
		467.9,1015.2 453.7,1015.2 	"/>
	<polyline fill="none" stroke="#007F00" stroke-linecap="round" stroke-linejoin="round" points="453.7,972.7 467.9,972.7 
		467.9,986.9 453.7,986.9 	"/>
	<polyline fill="none" stroke="#007F00" stroke-linecap="round" stroke-linejoin="round" points="453.7,944.4 467.9,944.4 
		467.9,958.5 453.7,958.5 	"/>
	<polyline fill="none" stroke="#007F00" stroke-linecap="round" stroke-linejoin="round" points="453.7,916 467.9,916 467.9,930.2 
		453.7,930.2 	"/>
	<polyline fill="none" stroke="#007F00" stroke-linecap="round" stroke-linejoin="round" points="453.7,880.6 467.9,880.6 
		467.9,901.8 453.7,901.8 	"/>
	<polyline fill="none" stroke="#007F00" stroke-linecap="round" stroke-linejoin="round" points="453.7,1178.2 503.3,1178.2 
		503.3,1164 517.5,1164 517.5,1178.2 531.7,1178.2 531.7,1164 545.8,1164 545.8,1178.2 560,1178.2 560,1164 574.2,1164 
		574.2,1178.2 588.4,1178.2 588.4,1164 602.5,1164 602.5,1178.2 652.1,1178.2 652.1,1164 638,1164 638,1142.8 652.1,1142.8 
		652.1,1128.6 638,1128.6 638,1114.4 652.1,1114.4 652.1,1100.3 638,1100.3 638,1086.1 652.1,1086.1 652.1,1071.9 638,1071.9 
		638,1057.7 652.1,1057.7 652.1,1043.6 638,1043.6 638,1029.4 652.1,1029.4 652.1,1015.2 638,1015.2 638,1001 652.1,1001 
		652.1,986.9 638,986.9 638,972.7 652.1,972.7 652.1,958.5 638,958.5 638,944.4 652.1,944.4 652.1,930.2 638,930.2 638,916 
		652.1,916 652.1,901.8 638,901.8 638,880.6 652.1,880.6 652.1,866.4 602.5,866.4 602.5,880.6 588.4,880.6 588.4,866.4 574.2,866.4 
		574.2,880.6 560,880.6 560,866.4 545.8,866.4 545.8,880.6 531.7,880.6 531.7,866.4 517.5,866.4 517.5,880.6 503.3,880.6 
		503.3,866.4 453.7,866.4 	"/>
	<polyline fill="none" stroke="#007F00" stroke-linecap="round" stroke-linejoin="round" points="453.7,1142.8 467.9,1142.8 
		467.9,1164 453.7,1164 	"/>
	<polyline fill="none" stroke="#007F00" stroke-linecap="round" stroke-linejoin="round" points="453.7,1114.4 467.9,1114.4 
		467.9,1128.6 453.7,1128.6 	"/>
	<polyline fill="none" stroke="#007F00" stroke-linecap="round" stroke-linejoin="round" points="453.7,1086.1 467.9,1086.1 
		467.9,1100.3 453.7,1100.3 	"/>
	<polyline fill="none" stroke="#007F00" stroke-linecap="round" stroke-linejoin="round" points="453.7,1057.7 467.9,1057.7 
		467.9,1071.9 453.7,1071.9 	"/>
	<polyline fill="none" stroke="#007F00" stroke-linecap="round" stroke-linejoin="round" points="453.7,852.2 467.9,852.2 
		467.9,866.4 	"/>
	<polyline fill="none" stroke="#007F00" stroke-linecap="round" stroke-linejoin="round" points="453.7,823.9 467.9,823.9 
		467.9,838.1 453.7,838.1 	"/>
	<polyline fill="none" stroke="#007F00" stroke-linecap="round" stroke-linejoin="round" points="453.7,794.1 467.9,794.1 
		467.9,811.1 453.7,811.1 	"/>
	<polyline fill="none" stroke="#007F00" stroke-linecap="round" stroke-linejoin="round" points="453.7,767.2 467.9,767.2 
		467.9,781.4 453.7,781.4 	"/>
	<polyline fill="none" stroke="#007F00" stroke-linecap="round" stroke-linejoin="round" points="453.7,738.8 467.9,738.8 
		467.9,753 453.7,753 	"/>
	<polyline fill="none" stroke="#007F00" stroke-linecap="round" stroke-linejoin="round" points="524.6,710.5 467.9,710.5 
		467.9,724.7 453.7,724.7 	"/>
	<polyline fill="none" stroke="#007F00" stroke-linecap="round" stroke-linejoin="round" points="638,866.4 638,852.2 652.1,852.2 
		652.1,838.1 638,838.1 638,823.9 652.1,823.9 652.1,811.1 638,811.1 638,794.1 652.1,794.1 652.1,781.4 638,781.4 638,767.2 
		652.1,767.2 652.1,753 638,753 638,738.8 652.1,738.8 652.1,724.7 638,724.7 638,710.5 581.3,710.5 	"/>
	<polyline fill="none" stroke="#007F00" stroke-linecap="round" stroke-linejoin="round" points="453.7,1319.9 467.9,1319.9 
		467.9,1334.1 638,1334.1 638,1319.9 652.1,1319.9 652.1,1305.8 638,1305.8 638,1291.6 652.1,1291.6 652.1,1277.4 638,1277.4 
		638,1263.3 652.1,1263.3 652.1,1250.5 638,1250.5 638,1233.5 652.1,1233.5 652.1,1220.7 638,1220.7 638,1206.6 652.1,1206.6 
		652.1,1192.4 638,1192.4 638,1178.2 	"/>
	<polyline fill="none" stroke="#007F00" stroke-linecap="round" stroke-linejoin="round" points="453.7,1291.6 467.9,1291.6 
		467.9,1305.8 453.7,1305.8 	"/>
	<polyline fill="none" stroke="#007F00" stroke-linecap="round" stroke-linejoin="round" points="453.7,1263.3 467.9,1263.3 
		467.9,1277.4 453.7,1277.4 	"/>
	<polyline fill="none" stroke="#007F00" stroke-linecap="round" stroke-linejoin="round" points="453.7,1233.5 467.9,1233.5 
		467.9,1250.5 453.7,1250.5 	"/>
	<polyline fill="none" stroke="#007F00" stroke-linecap="round" stroke-linejoin="round" points="453.7,1206.6 467.9,1206.6 
		467.9,1220.7 453.7,1220.7 	"/>
	<polyline fill="none" stroke="#007F00" stroke-linecap="round" stroke-linejoin="round" points="467.9,1178.2 467.9,1192.4 
		453.7,1192.4 	"/>
</g>
<g>
	<polyline fill="none" stroke="#007F00" stroke-linecap="round" stroke-linejoin="round" points="652.1,1029.4 666.3,1029.4 
		666.3,1043.6 652.1,1043.6 	"/>
	<polyline fill="none" stroke="#007F00" stroke-linecap="round" stroke-linejoin="round" points="652.1,1001 666.3,1001 
		666.3,1015.2 652.1,1015.2 	"/>
	<polyline fill="none" stroke="#007F00" stroke-linecap="round" stroke-linejoin="round" points="652.1,972.7 666.3,972.7 
		666.3,986.9 652.1,986.9 	"/>
	<polyline fill="none" stroke="#007F00" stroke-linecap="round" stroke-linejoin="round" points="652.1,944.4 666.3,944.4 
		666.3,958.5 652.1,958.5 	"/>
	<polyline fill="none" stroke="#007F00" stroke-linecap="round" stroke-linejoin="round" points="652.1,916 666.3,916 666.3,930.2 
		652.1,930.2 	"/>
	<polyline fill="none" stroke="#007F00" stroke-linecap="round" stroke-linejoin="round" points="652.1,880.6 666.3,880.6 
		666.3,901.8 652.1,901.8 	"/>
	<polyline fill="none" stroke="#007F00" stroke-linecap="round" stroke-linejoin="round" points="652.1,1178.2 701.7,1178.2 
		701.7,1164 715.9,1164 715.9,1178.2 730.1,1178.2 730.1,1164 744.3,1164 744.3,1178.2 758.4,1178.2 758.4,1164 772.6,1164 
		772.6,1178.2 786.8,1178.2 786.8,1164 800.9,1164 800.9,1178.2 850.6,1178.2 850.6,1164 836.4,1164 836.4,1142.8 850.6,1142.8 
		850.6,1128.6 836.4,1128.6 836.4,1114.4 850.6,1114.4 850.6,1100.3 836.4,1100.3 836.4,1086.1 850.6,1086.1 850.6,1071.9 
		836.4,1071.9 836.4,1057.7 850.6,1057.7 850.6,1043.6 836.4,1043.6 836.4,1029.4 850.6,1029.4 850.6,1015.2 836.4,1015.2 
		836.4,1001 850.6,1001 850.6,986.9 836.4,986.9 836.4,972.7 850.6,972.7 850.6,958.5 836.4,958.5 836.4,944.4 850.6,944.4 
		850.6,930.2 836.4,930.2 836.4,916 850.6,916 850.6,901.8 836.4,901.8 836.4,880.6 850.6,880.6 850.6,866.4 800.9,866.4 
		800.9,880.6 786.8,880.6 786.8,866.4 772.6,866.4 772.6,880.6 758.4,880.6 758.4,866.4 744.3,866.4 744.3,880.6 730.1,880.6 
		730.1,866.4 715.9,866.4 715.9,880.6 701.7,880.6 701.7,866.4 652.1,866.4 	"/>
	<polyline fill="none" stroke="#007F00" stroke-linecap="round" stroke-linejoin="round" points="652.1,1142.8 666.3,1142.8 
		666.3,1164 652.1,1164 	"/>
	<polyline fill="none" stroke="#007F00" stroke-linecap="round" stroke-linejoin="round" points="652.1,1114.4 666.3,1114.4 
		666.3,1128.6 652.1,1128.6 	"/>
	<polyline fill="none" stroke="#007F00" stroke-linecap="round" stroke-linejoin="round" points="652.1,1086.1 666.3,1086.1 
		666.3,1100.3 652.1,1100.3 	"/>
	<polyline fill="none" stroke="#007F00" stroke-linecap="round" stroke-linejoin="round" points="652.1,1057.7 666.3,1057.7 
		666.3,1071.9 652.1,1071.9 	"/>
	<polyline fill="none" stroke="#007F00" stroke-linecap="round" stroke-linejoin="round" points="652.1,852.2 666.3,852.2 
		666.3,866.4 	"/>
	<polyline fill="none" stroke="#007F00" stroke-linecap="round" stroke-linejoin="round" points="652.1,823.9 666.3,823.9 
		666.3,838.1 652.1,838.1 	"/>
	<polyline fill="none" stroke="#007F00" stroke-linecap="round" stroke-linejoin="round" points="652.1,794.1 666.3,794.1 
		666.3,811.1 652.1,811.1 	"/>
	<polyline fill="none" stroke="#007F00" stroke-linecap="round" stroke-linejoin="round" points="652.1,767.2 666.3,767.2 
		666.3,781.4 652.1,781.4 	"/>
	<polyline fill="none" stroke="#007F00" stroke-linecap="round" stroke-linejoin="round" points="652.1,738.8 666.3,738.8 
		666.3,753 652.1,753 	"/>
	<polyline fill="none" stroke="#007F00" stroke-linecap="round" stroke-linejoin="round" points="723,710.5 666.3,710.5 
		666.3,724.7 652.1,724.7 	"/>
	<polyline fill="none" stroke="#007F00" stroke-linecap="round" stroke-linejoin="round" points="836.4,866.4 836.4,852.2 
		850.6,852.2 850.6,838.1 836.4,838.1 836.4,823.9 850.6,823.9 850.6,811.1 836.4,811.1 836.4,794.1 850.6,794.1 850.6,781.4 
		836.4,781.4 836.4,767.2 850.6,767.2 850.6,753 836.4,753 836.4,738.8 850.6,738.8 850.6,724.7 836.4,724.7 836.4,710.5 
		779.7,710.5 	"/>
	<polyline fill="none" stroke="#007F00" stroke-linecap="round" stroke-linejoin="round" points="652.1,1319.9 666.3,1319.9 
		666.3,1334.1 836.4,1334.1 836.4,1319.9 850.6,1319.9 850.6,1305.8 836.4,1305.8 836.4,1291.6 850.6,1291.6 850.6,1277.4 
		836.4,1277.4 836.4,1263.3 850.6,1263.3 850.6,1250.5 836.4,1250.5 836.4,1233.5 850.6,1233.5 850.6,1220.7 836.4,1220.7 
		836.4,1206.6 850.6,1206.6 850.6,1192.4 836.4,1192.4 836.4,1178.2 	"/>
	<polyline fill="none" stroke="#007F00" stroke-linecap="round" stroke-linejoin="round" points="652.1,1291.6 666.3,1291.6 
		666.3,1305.8 652.1,1305.8 	"/>
	<polyline fill="none" stroke="#007F00" stroke-linecap="round" stroke-linejoin="round" points="652.1,1263.3 666.3,1263.3 
		666.3,1277.4 652.1,1277.4 	"/>
	<polyline fill="none" stroke="#007F00" stroke-linecap="round" stroke-linejoin="round" points="652.1,1233.5 666.3,1233.5 
		666.3,1250.5 652.1,1250.5 	"/>
	<polyline fill="none" stroke="#007F00" stroke-linecap="round" stroke-linejoin="round" points="652.1,1206.6 666.3,1206.6 
		666.3,1220.7 652.1,1220.7 	"/>
	<polyline fill="none" stroke="#007F00" stroke-linecap="round" stroke-linejoin="round" points="666.3,1178.2 666.3,1192.4 
		652.1,1192.4 	"/>
</g>
<g>
	<polyline fill="none" stroke="#007F00" stroke-linecap="round" stroke-linejoin="round" points="850.6,1029.4 864.7,1029.4 
		864.7,1043.6 850.6,1043.6 	"/>
	<polyline fill="none" stroke="#007F00" stroke-linecap="round" stroke-linejoin="round" points="850.6,1001 864.7,1001 
		864.7,1015.2 850.6,1015.2 	"/>
	<polyline fill="none" stroke="#007F00" stroke-linecap="round" stroke-linejoin="round" points="850.6,972.7 864.7,972.7 
		864.7,986.9 850.6,986.9 	"/>
	<polyline fill="none" stroke="#007F00" stroke-linecap="round" stroke-linejoin="round" points="850.6,944.4 864.7,944.4 
		864.7,958.5 850.6,958.5 	"/>
	<polyline fill="none" stroke="#007F00" stroke-linecap="round" stroke-linejoin="round" points="850.6,916 864.7,916 864.7,930.2 
		850.6,930.2 	"/>
	<polyline fill="none" stroke="#007F00" stroke-linecap="round" stroke-linejoin="round" points="850.6,880.6 864.7,880.6 
		864.7,901.8 850.6,901.8 	"/>
	<polyline fill="none" stroke="#007F00" stroke-linecap="round" stroke-linejoin="round" points="850.6,1178.2 900.2,1178.2 
		900.2,1164 914.3,1164 914.3,1178.2 928.5,1178.2 928.5,1164 942.7,1164 942.7,1178.2 956.9,1178.2 956.9,1164 971,1164 
		971,1178.2 985.2,1178.2 985.2,1164 999.4,1164 999.4,1178.2 1049,1178.2 1049,1164 1034.8,1164 1034.8,1142.8 1049,1142.8 
		1049,1128.6 1034.8,1128.6 1034.8,1114.4 1049,1114.4 1049,1100.3 1034.8,1100.3 1034.8,1086.1 1049,1086.1 1049,1071.9 
		1034.8,1071.9 1034.8,1057.7 1049,1057.7 1049,1043.6 1034.8,1043.6 1034.8,1029.4 1049,1029.4 1049,1015.2 1034.8,1015.2 
		1034.8,1001 1049,1001 1049,986.9 1034.8,986.9 1034.8,972.7 1049,972.7 1049,958.5 1034.8,958.5 1034.8,944.4 1049,944.4 
		1049,930.2 1034.8,930.2 1034.8,916 1049,916 1049,901.8 1034.8,901.8 1034.8,880.6 1049,880.6 1049,866.4 999.4,866.4 
		999.4,880.6 985.2,880.6 985.2,866.4 971,866.4 971,880.6 956.9,880.6 956.9,866.4 942.7,866.4 942.7,880.6 928.5,880.6 
		928.5,866.4 914.3,866.4 914.3,880.6 900.2,880.6 900.2,866.4 850.6,866.4 	"/>
	<polyline fill="none" stroke="#007F00" stroke-linecap="round" stroke-linejoin="round" points="850.6,1142.8 864.7,1142.8 
		864.7,1164 850.6,1164 	"/>
	<polyline fill="none" stroke="#007F00" stroke-linecap="round" stroke-linejoin="round" points="850.6,1114.4 864.7,1114.4 
		864.7,1128.6 850.6,1128.6 	"/>
	<polyline fill="none" stroke="#007F00" stroke-linecap="round" stroke-linejoin="round" points="850.6,1086.1 864.7,1086.1 
		864.7,1100.3 850.6,1100.3 	"/>
	<polyline fill="none" stroke="#007F00" stroke-linecap="round" stroke-linejoin="round" points="850.6,1057.7 864.7,1057.7 
		864.7,1071.9 850.6,1071.9 	"/>
	<polyline fill="none" stroke="#007F00" stroke-linecap="round" stroke-linejoin="round" points="850.6,852.2 864.7,852.2 
		864.7,866.4 	"/>
	<polyline fill="none" stroke="#007F00" stroke-linecap="round" stroke-linejoin="round" points="850.6,823.9 864.7,823.9 
		864.7,838.1 850.6,838.1 	"/>
	<polyline fill="none" stroke="#007F00" stroke-linecap="round" stroke-linejoin="round" points="850.6,794.1 864.7,794.1 
		864.7,811.1 850.6,811.1 	"/>
	<polyline fill="none" stroke="#007F00" stroke-linecap="round" stroke-linejoin="round" points="850.6,767.2 864.7,767.2 
		864.7,781.4 850.6,781.4 	"/>
	<polyline fill="none" stroke="#007F00" stroke-linecap="round" stroke-linejoin="round" points="850.6,738.8 864.7,738.8 
		864.7,753 850.6,753 	"/>
	<polyline fill="none" stroke="#007F00" stroke-linecap="round" stroke-linejoin="round" points="921.4,710.5 864.7,710.5 
		864.7,724.7 850.6,724.7 	"/>
	<polyline fill="none" stroke="#007F00" stroke-linecap="round" stroke-linejoin="round" points="1034.8,866.4 1034.8,852.2 
		1049,852.2 1049,838.1 1034.8,838.1 1034.8,823.9 1049,823.9 1049,811.1 1034.8,811.1 1034.8,794.1 1049,794.1 1049,781.4 
		1034.8,781.4 1034.8,767.2 1049,767.2 1049,753 1034.8,753 1034.8,738.8 1049,738.8 1049,724.7 1034.8,724.7 1034.8,710.5 
		978.1,710.5 	"/>
	<polyline fill="none" stroke="#007F00" stroke-linecap="round" stroke-linejoin="round" points="850.6,1319.9 864.7,1319.9 
		864.7,1334.1 1034.8,1334.1 1034.8,1319.9 1049,1319.9 1049,1305.8 1034.8,1305.8 1034.8,1291.6 1049,1291.6 1049,1277.4 
		1034.8,1277.4 1034.8,1263.3 1049,1263.3 1049,1250.5 1034.8,1250.5 1034.8,1233.5 1049,1233.5 1049,1220.7 1034.8,1220.7 
		1034.8,1206.6 1049,1206.6 1049,1192.4 1034.8,1192.4 1034.8,1178.2 	"/>
	<polyline fill="none" stroke="#007F00" stroke-linecap="round" stroke-linejoin="round" points="850.6,1291.6 864.7,1291.6 
		864.7,1305.8 850.6,1305.8 	"/>
	<polyline fill="none" stroke="#007F00" stroke-linecap="round" stroke-linejoin="round" points="850.6,1263.3 864.7,1263.3 
		864.7,1277.4 850.6,1277.4 	"/>
	<polyline fill="none" stroke="#007F00" stroke-linecap="round" stroke-linejoin="round" points="850.6,1233.5 864.7,1233.5 
		864.7,1250.5 850.6,1250.5 	"/>
	<polyline fill="none" stroke="#007F00" stroke-linecap="round" stroke-linejoin="round" points="850.6,1206.6 864.7,1206.6 
		864.7,1220.7 850.6,1220.7 	"/>
	<polyline fill="none" stroke="#007F00" stroke-linecap="round" stroke-linejoin="round" points="864.7,1178.2 864.7,1192.4 
		850.6,1192.4 	"/>
</g>
<g>
	<polyline fill="none" stroke="#007F00" stroke-linecap="round" stroke-linejoin="round" points="1049,1029.4 1063.2,1029.4 
		1063.2,1043.6 1049,1043.6 	"/>
	<polyline fill="none" stroke="#007F00" stroke-linecap="round" stroke-linejoin="round" points="1049,1001 1063.2,1001 
		1063.2,1015.2 1049,1015.2 	"/>
	<polyline fill="none" stroke="#007F00" stroke-linecap="round" stroke-linejoin="round" points="1049,972.7 1063.2,972.7 
		1063.2,986.9 1049,986.9 	"/>
	<polyline fill="none" stroke="#007F00" stroke-linecap="round" stroke-linejoin="round" points="1049,944.4 1063.2,944.4 
		1063.2,958.5 1049,958.5 	"/>
	<polyline fill="none" stroke="#007F00" stroke-linecap="round" stroke-linejoin="round" points="1049,916 1063.2,916 1063.2,930.2 
		1049,930.2 	"/>
	<polyline fill="none" stroke="#007F00" stroke-linecap="round" stroke-linejoin="round" points="1049,880.6 1063.2,880.6 
		1063.2,901.8 1049,901.8 	"/>
	<polyline fill="none" stroke="#007F00" stroke-linecap="round" stroke-linejoin="round" points="1049,1178.2 1098.6,1178.2 
		1098.6,1164 1112.8,1164 1112.8,1178.2 1126.9,1178.2 1126.9,1164 1141.1,1164 1141.1,1178.2 1155.3,1178.2 1155.3,1164 
		1169.5,1164 1169.5,1178.2 1183.6,1178.2 1183.6,1164 1197.8,1164 1197.8,1178.2 1247.4,1178.2 1247.4,1164 1233.2,1164 
		1233.2,1142.8 1247.4,1142.8 1247.4,1128.6 1233.2,1128.6 1233.2,1114.4 1247.4,1114.4 1247.4,1100.3 1233.2,1100.3 1233.2,1086.1 
		1247.4,1086.1 1247.4,1071.9 1233.2,1071.9 1233.2,1057.7 1247.4,1057.7 1247.4,1043.6 1233.2,1043.6 1233.2,1029.4 1247.4,1029.4 
		1247.4,1015.2 1233.2,1015.2 1233.2,1001 1247.4,1001 1247.4,986.9 1233.2,986.9 1233.2,972.7 1247.4,972.7 1247.4,958.5 
		1233.2,958.5 1233.2,944.4 1247.4,944.4 1247.4,930.2 1233.2,930.2 1233.2,916 1247.4,916 1247.4,901.8 1233.2,901.8 1233.2,880.6 
		1247.4,880.6 1247.4,866.4 1197.8,866.4 1197.8,880.6 1183.6,880.6 1183.6,866.4 1169.5,866.4 1169.5,880.6 1155.3,880.6 
		1155.3,866.4 1141.1,866.4 1141.1,880.6 1126.9,880.6 1126.9,866.4 1112.8,866.4 1112.8,880.6 1098.6,880.6 1098.6,866.4 
		1049,866.4 	"/>
	<polyline fill="none" stroke="#007F00" stroke-linecap="round" stroke-linejoin="round" points="1049,1142.8 1063.2,1142.8 
		1063.2,1164 1049,1164 	"/>
	<polyline fill="none" stroke="#007F00" stroke-linecap="round" stroke-linejoin="round" points="1049,1114.4 1063.2,1114.4 
		1063.2,1128.6 1049,1128.6 	"/>
	<polyline fill="none" stroke="#007F00" stroke-linecap="round" stroke-linejoin="round" points="1049,1086.1 1063.2,1086.1 
		1063.2,1100.3 1049,1100.3 	"/>
	<polyline fill="none" stroke="#007F00" stroke-linecap="round" stroke-linejoin="round" points="1049,1057.7 1063.2,1057.7 
		1063.2,1071.9 1049,1071.9 	"/>
	<polyline fill="none" stroke="#007F00" stroke-linecap="round" stroke-linejoin="round" points="1049,852.2 1063.2,852.2 
		1063.2,866.4 	"/>
	<polyline fill="none" stroke="#007F00" stroke-linecap="round" stroke-linejoin="round" points="1049,823.9 1063.2,823.9 
		1063.2,838.1 1049,838.1 	"/>
	<polyline fill="none" stroke="#007F00" stroke-linecap="round" stroke-linejoin="round" points="1049,794.1 1063.2,794.1 
		1063.2,811.1 1049,811.1 	"/>
	<polyline fill="none" stroke="#007F00" stroke-linecap="round" stroke-linejoin="round" points="1049,767.2 1063.2,767.2 
		1063.2,781.4 1049,781.4 	"/>
	<polyline fill="none" stroke="#007F00" stroke-linecap="round" stroke-linejoin="round" points="1049,738.8 1063.2,738.8 
		1063.2,753 1049,753 	"/>
	<polyline fill="none" stroke="#007F00" stroke-linecap="round" stroke-linejoin="round" points="1119.8,710.5 1063.2,710.5 
		1063.2,724.7 1049,724.7 	"/>
	<polyline fill="none" stroke="#007F00" stroke-linecap="round" stroke-linejoin="round" points="1233.2,866.4 1233.2,852.2 
		1247.4,852.2 1247.4,838.1 1233.2,838.1 1233.2,823.9 1247.4,823.9 1247.4,811.1 1233.2,811.1 1233.2,794.1 1247.4,794.1 
		1247.4,781.4 1233.2,781.4 1233.2,767.2 1247.4,767.2 1247.4,753 1233.2,753 1233.2,738.8 1247.4,738.8 1247.4,724.7 1233.2,724.7 
		1233.2,710.5 1176.5,710.5 	"/>
	<polyline fill="none" stroke="#007F00" stroke-linecap="round" stroke-linejoin="round" points="1049,1319.9 1063.2,1319.9 
		1063.2,1334.1 1233.2,1334.1 1233.2,1319.9 1247.4,1319.9 1247.4,1305.8 1233.2,1305.8 1233.2,1291.6 1247.4,1291.6 1247.4,1277.4 
		1233.2,1277.4 1233.2,1263.3 1247.4,1263.3 1247.4,1250.5 1233.2,1250.5 1233.2,1233.5 1247.4,1233.5 1247.4,1220.7 1233.2,1220.7 
		1233.2,1206.6 1247.4,1206.6 1247.4,1192.4 1233.2,1192.4 1233.2,1178.2 	"/>
	<polyline fill="none" stroke="#007F00" stroke-linecap="round" stroke-linejoin="round" points="1049,1291.6 1063.2,1291.6 
		1063.2,1305.8 1049,1305.8 	"/>
	<polyline fill="none" stroke="#007F00" stroke-linecap="round" stroke-linejoin="round" points="1049,1263.3 1063.2,1263.3 
		1063.2,1277.4 1049,1277.4 	"/>
	<polyline fill="none" stroke="#007F00" stroke-linecap="round" stroke-linejoin="round" points="1049,1233.5 1063.2,1233.5 
		1063.2,1250.5 1049,1250.5 	"/>
	<polyline fill="none" stroke="#007F00" stroke-linecap="round" stroke-linejoin="round" points="1049,1206.6 1063.2,1206.6 
		1063.2,1220.7 1049,1220.7 	"/>
	<polyline fill="none" stroke="#007F00" stroke-linecap="round" stroke-linejoin="round" points="1063.2,1178.2 1063.2,1192.4 
		1049,1192.4 	"/>
</g>
<g>
	<polyline fill="none" stroke="#007F00" stroke-linecap="round" stroke-linejoin="round" points="1247.4,1029.4 1261.6,1029.4 
		1261.6,1043.6 1247.4,1043.6 	"/>
	<polyline fill="none" stroke="#007F00" stroke-linecap="round" stroke-linejoin="round" points="1247.4,1001 1261.6,1001 
		1261.6,1015.2 1247.4,1015.2 	"/>
	<polyline fill="none" stroke="#007F00" stroke-linecap="round" stroke-linejoin="round" points="1247.4,972.7 1261.6,972.7 
		1261.6,986.9 1247.4,986.9 	"/>
	<polyline fill="none" stroke="#007F00" stroke-linecap="round" stroke-linejoin="round" points="1247.4,944.4 1261.6,944.4 
		1261.6,958.5 1247.4,958.5 	"/>
	<polyline fill="none" stroke="#007F00" stroke-linecap="round" stroke-linejoin="round" points="1247.4,916 1261.6,916 
		1261.6,930.2 1247.4,930.2 	"/>
	<polyline fill="none" stroke="#007F00" stroke-linecap="round" stroke-linejoin="round" points="1247.4,880.6 1261.6,880.6 
		1261.6,901.8 1247.4,901.8 	"/>
	<polyline fill="none" stroke="#007F00" stroke-linecap="round" stroke-linejoin="round" points="1247.4,1178.2 1297,1178.2 
		1297,1164 1311.2,1164 1311.2,1178.2 1325.4,1178.2 1325.4,1164 1339.5,1164 1339.5,1178.2 1353.7,1178.2 1353.7,1164 1367.9,1164 
		1367.9,1178.2 1382.1,1178.2 1382.1,1164 1396.2,1164 1396.2,1178.2 1445.8,1178.2 1445.8,1164 1431.7,1164 1431.7,1142.8 
		1445.8,1142.8 1445.8,1128.6 1431.7,1128.6 1431.7,1114.4 1445.8,1114.4 1445.8,1100.3 1431.7,1100.3 1431.7,1086.1 1445.8,1086.1 
		1445.8,1071.9 1431.7,1071.9 1431.7,1057.7 1445.8,1057.7 1445.8,1043.6 1431.7,1043.6 1431.7,1029.4 1445.8,1029.4 1445.8,1015.2 
		1431.7,1015.2 1431.7,1001 1445.8,1001 1445.8,986.9 1431.7,986.9 1431.7,972.7 1445.8,972.7 1445.8,958.5 1431.7,958.5 
		1431.7,944.4 1445.8,944.4 1445.8,930.2 1431.7,930.2 1431.7,916 1445.8,916 1445.8,901.8 1431.7,901.8 1431.7,880.6 1445.8,880.6 
		1445.8,866.4 1396.2,866.4 1396.2,880.6 1382.1,880.6 1382.1,866.4 1367.9,866.4 1367.9,880.6 1353.7,880.6 1353.7,866.4 
		1339.5,866.4 1339.5,880.6 1325.4,880.6 1325.4,866.4 1311.2,866.4 1311.2,880.6 1297,880.6 1297,866.4 1247.4,866.4 	"/>
	<polyline fill="none" stroke="#007F00" stroke-linecap="round" stroke-linejoin="round" points="1247.4,1142.8 1261.6,1142.8 
		1261.6,1164 1247.4,1164 	"/>
	<polyline fill="none" stroke="#007F00" stroke-linecap="round" stroke-linejoin="round" points="1247.4,1114.4 1261.6,1114.4 
		1261.6,1128.6 1247.4,1128.6 	"/>
	<polyline fill="none" stroke="#007F00" stroke-linecap="round" stroke-linejoin="round" points="1247.4,1086.1 1261.6,1086.1 
		1261.6,1100.3 1247.4,1100.3 	"/>
	<polyline fill="none" stroke="#007F00" stroke-linecap="round" stroke-linejoin="round" points="1247.4,1057.7 1261.6,1057.7 
		1261.6,1071.9 1247.4,1071.9 	"/>
	<polyline fill="none" stroke="#007F00" stroke-linecap="round" stroke-linejoin="round" points="1247.4,852.2 1261.6,852.2 
		1261.6,866.4 	"/>
	<polyline fill="none" stroke="#007F00" stroke-linecap="round" stroke-linejoin="round" points="1247.4,823.9 1261.6,823.9 
		1261.6,838.1 1247.4,838.1 	"/>
	<polyline fill="none" stroke="#007F00" stroke-linecap="round" stroke-linejoin="round" points="1247.4,794.1 1261.6,794.1 
		1261.6,811.1 1247.4,811.1 	"/>
	<polyline fill="none" stroke="#007F00" stroke-linecap="round" stroke-linejoin="round" points="1247.4,767.2 1261.6,767.2 
		1261.6,781.4 1247.4,781.4 	"/>
	<polyline fill="none" stroke="#007F00" stroke-linecap="round" stroke-linejoin="round" points="1247.4,738.8 1261.6,738.8 
		1261.6,753 1247.4,753 	"/>
	<polyline fill="none" stroke="#007F00" stroke-linecap="round" stroke-linejoin="round" points="1318.3,710.5 1261.6,710.5 
		1261.6,724.7 1247.4,724.7 	"/>
	<polyline fill="none" stroke="#007F00" stroke-linecap="round" stroke-linejoin="round" points="1431.7,866.4 1431.7,852.2 
		1445.8,852.2 1445.8,838.1 1431.7,838.1 1431.7,823.9 1445.8,823.9 1445.8,811.1 1431.7,811.1 1431.7,794.1 1445.8,794.1 
		1445.8,781.4 1431.7,781.4 1431.7,767.2 1445.8,767.2 1445.8,753 1431.7,753 1431.7,738.8 1445.8,738.8 1445.8,724.7 1431.7,724.7 
		1431.7,710.5 1375,710.5 	"/>
	<polyline fill="none" stroke="#007F00" stroke-linecap="round" stroke-linejoin="round" points="1247.4,1319.9 1261.6,1319.9 
		1261.6,1334.1 1431.7,1334.1 1431.7,1319.9 1445.8,1319.9 1445.8,1305.8 1431.7,1305.8 1431.7,1291.6 1445.8,1291.6 1445.8,1277.4 
		1431.7,1277.4 1431.7,1263.3 1445.8,1263.3 1445.8,1250.5 1431.7,1250.5 1431.7,1233.5 1445.8,1233.5 1445.8,1220.7 1431.7,1220.7 
		1431.7,1206.6 1445.8,1206.6 1445.8,1192.4 1431.7,1192.4 1431.7,1178.2 	"/>
	<polyline fill="none" stroke="#007F00" stroke-linecap="round" stroke-linejoin="round" points="1247.4,1291.6 1261.6,1291.6 
		1261.6,1305.8 1247.4,1305.8 	"/>
	<polyline fill="none" stroke="#007F00" stroke-linecap="round" stroke-linejoin="round" points="1247.4,1263.3 1261.6,1263.3 
		1261.6,1277.4 1247.4,1277.4 	"/>
	<polyline fill="none" stroke="#007F00" stroke-linecap="round" stroke-linejoin="round" points="1247.4,1233.5 1261.6,1233.5 
		1261.6,1250.5 1247.4,1250.5 	"/>
	<polyline fill="none" stroke="#007F00" stroke-linecap="round" stroke-linejoin="round" points="1247.4,1206.6 1261.6,1206.6 
		1261.6,1220.7 1247.4,1220.7 	"/>
	<polyline fill="none" stroke="#007F00" stroke-linecap="round" stroke-linejoin="round" points="1261.6,1178.2 1261.6,1192.4 
		1247.4,1192.4 	"/>
</g>
<g>
	<polyline fill="none" stroke="#007F00" stroke-linecap="round" stroke-linejoin="round" points="1445.8,1029.4 1460,1029.4 
		1460,1043.6 1445.8,1043.6 	"/>
	<polyline fill="none" stroke="#007F00" stroke-linecap="round" stroke-linejoin="round" points="1445.8,1001 1460,1001 
		1460,1015.2 1445.8,1015.2 	"/>
	<polyline fill="none" stroke="#007F00" stroke-linecap="round" stroke-linejoin="round" points="1445.8,972.7 1460,972.7 
		1460,986.9 1445.8,986.9 	"/>
	<polyline fill="none" stroke="#007F00" stroke-linecap="round" stroke-linejoin="round" points="1445.8,944.4 1460,944.4 
		1460,958.5 1445.8,958.5 	"/>
	<polyline fill="none" stroke="#007F00" stroke-linecap="round" stroke-linejoin="round" points="1445.8,916 1460,916 1460,930.2 
		1445.8,930.2 	"/>
	<polyline fill="none" stroke="#007F00" stroke-linecap="round" stroke-linejoin="round" points="1445.8,880.6 1460,880.6 
		1460,901.8 1445.8,901.8 	"/>
	<polyline fill="none" stroke="#007F00" stroke-linecap="round" stroke-linejoin="round" points="1445.8,1178.2 1495.4,1178.2 
		1495.4,1164 1509.6,1164 1509.6,1178.2 1523.8,1178.2 1523.8,1164 1538,1164 1538,1178.2 1552.1,1178.2 1552.1,1164 1566.3,1164 
		1566.3,1178.2 1580.5,1178.2 1580.5,1164 1594.6,1164 1594.6,1178.2 1644.3,1178.2 1644.3,1164 1630.1,1164 1630.1,1142.8 
		1644.3,1142.8 1644.3,1128.6 1630.1,1128.6 1630.1,1114.4 1644.3,1114.4 1644.3,1100.3 1630.1,1100.3 1630.1,1086.1 1644.3,1086.1 
		1644.3,1071.9 1630.1,1071.9 1630.1,1057.7 1644.3,1057.7 1644.3,1043.6 1630.1,1043.6 1630.1,1029.4 1644.3,1029.4 1644.3,1015.2 
		1630.1,1015.2 1630.1,1001 1644.3,1001 1644.3,986.9 1630.1,986.9 1630.1,972.7 1644.3,972.7 1644.3,958.5 1630.1,958.5 
		1630.1,944.4 1644.3,944.4 1644.3,930.2 1630.1,930.2 1630.1,916 1644.3,916 1644.3,901.8 1630.1,901.8 1630.1,880.6 1644.3,880.6 
		1644.3,866.4 1594.6,866.4 1594.6,880.6 1580.5,880.6 1580.5,866.4 1566.3,866.4 1566.3,880.6 1552.1,880.6 1552.1,866.4 
		1538,866.4 1538,880.6 1523.8,880.6 1523.8,866.4 1509.6,866.4 1509.6,880.6 1495.4,880.6 1495.4,866.4 1445.8,866.4 	"/>
	<polyline fill="none" stroke="#007F00" stroke-linecap="round" stroke-linejoin="round" points="1445.8,1142.8 1460,1142.8 
		1460,1164 1445.8,1164 	"/>
	<polyline fill="none" stroke="#007F00" stroke-linecap="round" stroke-linejoin="round" points="1445.8,1114.4 1460,1114.4 
		1460,1128.6 1445.8,1128.6 	"/>
	<polyline fill="none" stroke="#007F00" stroke-linecap="round" stroke-linejoin="round" points="1445.8,1086.1 1460,1086.1 
		1460,1100.3 1445.8,1100.3 	"/>
	<polyline fill="none" stroke="#007F00" stroke-linecap="round" stroke-linejoin="round" points="1445.8,1057.7 1460,1057.7 
		1460,1071.9 1445.8,1071.9 	"/>
	<polyline fill="none" stroke="#007F00" stroke-linecap="round" stroke-linejoin="round" points="1445.8,852.2 1460,852.2 
		1460,866.4 	"/>
	<polyline fill="none" stroke="#007F00" stroke-linecap="round" stroke-linejoin="round" points="1445.8,823.9 1460,823.9 
		1460,838.1 1445.8,838.1 	"/>
	<polyline fill="none" stroke="#007F00" stroke-linecap="round" stroke-linejoin="round" points="1445.8,794.1 1460,794.1 
		1460,811.1 1445.8,811.1 	"/>
	<polyline fill="none" stroke="#007F00" stroke-linecap="round" stroke-linejoin="round" points="1445.8,767.2 1460,767.2 
		1460,781.4 1445.8,781.4 	"/>
	<polyline fill="none" stroke="#007F00" stroke-linecap="round" stroke-linejoin="round" points="1445.8,738.8 1460,738.8 1460,753 
		1445.8,753 	"/>
	<polyline fill="none" stroke="#007F00" stroke-linecap="round" stroke-linejoin="round" points="1516.7,710.5 1460,710.5 
		1460,724.7 1445.8,724.7 	"/>
	<polyline fill="none" stroke="#007F00" stroke-linecap="round" stroke-linejoin="round" points="1630.1,866.4 1630.1,852.2 
		1644.3,852.2 1644.3,838.1 1630.1,838.1 1630.1,823.9 1644.3,823.9 1644.3,811.1 1630.1,811.1 1630.1,794.1 1644.3,794.1 
		1644.3,781.4 1630.1,781.4 1630.1,767.2 1644.3,767.2 1644.3,753 1630.1,753 1630.1,738.8 1644.3,738.8 1644.3,724.7 1630.1,724.7 
		1630.1,710.5 1573.4,710.5 	"/>
	<polyline fill="none" stroke="#007F00" stroke-linecap="round" stroke-linejoin="round" points="1445.8,1319.9 1460,1319.9 
		1460,1334.1 1630.1,1334.1 1630.1,1319.9 1644.3,1319.9 1644.3,1305.8 1630.1,1305.8 1630.1,1291.6 1644.3,1291.6 1644.3,1277.4 
		1630.1,1277.4 1630.1,1263.3 1644.3,1263.3 1644.3,1250.5 1630.1,1250.5 1630.1,1233.5 1644.3,1233.5 1644.3,1220.7 1630.1,1220.7 
		1630.1,1206.6 1644.3,1206.6 1644.3,1192.4 1630.1,1192.4 1630.1,1178.2 	"/>
	<polyline fill="none" stroke="#007F00" stroke-linecap="round" stroke-linejoin="round" points="1445.8,1291.6 1460,1291.6 
		1460,1305.8 1445.8,1305.8 	"/>
	<polyline fill="none" stroke="#007F00" stroke-linecap="round" stroke-linejoin="round" points="1445.8,1263.3 1460,1263.3 
		1460,1277.4 1445.8,1277.4 	"/>
	<polyline fill="none" stroke="#007F00" stroke-linecap="round" stroke-linejoin="round" points="1445.8,1233.5 1460,1233.5 
		1460,1250.5 1445.8,1250.5 	"/>
	<polyline fill="none" stroke="#007F00" stroke-linecap="round" stroke-linejoin="round" points="1445.8,1206.6 1460,1206.6 
		1460,1220.7 1445.8,1220.7 	"/>
	<polyline fill="none" stroke="#007F00" stroke-linecap="round" stroke-linejoin="round" points="1460,1178.2 1460,1192.4 
		1445.8,1192.4 	"/>
</g>
<polygon fill="none" stroke="#007F00" stroke-linecap="round" stroke-linejoin="round" points="1644.3,554.6 1644.3,540.4 
	1630.1,540.4 1630.1,519.2 1644.3,519.2 1644.3,505 1630.1,505 1630.1,490.8 1644.3,490.8 1644.3,476.6 1630.1,476.6 1630.1,462.5 
	1644.3,462.5 1644.3,448.3 1630.1,448.3 1630.1,434.1 1644.3,434.1 1644.3,419.9 1630.1,419.9 1630.1,405.8 1644.3,405.8 
	1644.3,391.6 1630.1,391.6 1630.1,377.4 1644.3,377.4 1644.3,363.3 1630.1,363.3 1630.1,349.1 1644.3,349.1 1644.3,334.9 
	1630.1,334.9 1630.1,320.7 1644.3,320.7 1644.3,306.6 1630.1,306.6 1630.1,292.4 1644.3,292.4 1644.3,278.2 1630.1,278.2 
	1630.1,257 1644.3,257 1644.3,242.8 1594.6,242.8 1594.6,257 1580.5,257 1580.5,242.8 1566.3,242.8 1566.3,257 1552.1,257 
	1552.1,242.8 1538,242.8 1538,257 1523.8,257 1523.8,242.8 1509.6,242.8 1509.6,257 1495.4,257 1495.4,242.8 1445.8,242.8 
	1445.8,257 1460,257 1460,278.2 1445.8,278.2 1445.8,292.4 1460,292.4 1460,306.6 1445.8,306.6 1445.8,320.7 1460,320.7 1460,334.9 
	1445.8,334.9 1445.8,349.1 1460,349.1 1460,363.3 1445.8,363.3 1445.8,377.4 1460,377.4 1460,391.6 1445.8,391.6 1445.8,405.8 
	1460,405.8 1460,419.9 1445.8,419.9 1445.8,434.1 1460,434.1 1460,448.3 1445.8,448.3 1445.8,462.5 1460,462.5 1460,476.6 
	1445.8,476.6 1445.8,490.8 1460,490.8 1460,505 1445.8,505 1445.8,519.2 1460,519.2 1460,540.4 1445.8,540.4 1445.8,554.6 
	1495.4,554.6 1495.4,540.4 1509.6,540.4 1509.6,554.6 1523.8,554.6 1523.8,540.4 1538,540.4 1538,554.6 1552.1,554.6 1552.1,540.4 
	1566.3,540.4 1566.3,554.6 1580.5,554.6 1580.5,540.4 1594.6,540.4 1594.6,554.6 "/>
<polyline fill="none" stroke="#007F00" stroke-linecap="round" stroke-linejoin="round" points="1630.1,710.5 1630.1,696.3 
	1644.3,696.3 1644.3,682.1 1630.1,682.1 1630.1,668 1644.3,668 1644.3,653.8 1630.1,653.8 1630.1,639.6 1644.3,639.6 1644.3,626.9 
	1630.1,626.9 1630.1,609.9 1644.3,609.9 1644.3,597.1 1630.1,597.1 1630.1,582.9 1644.3,582.9 1644.3,568.8 1630.1,568.8 
	1630.1,554.6 "/>
<polyline fill="none" stroke="#007F00" stroke-linecap="round" stroke-linejoin="round" points="1460,554.6 1460,568.8 
	1445.8,568.8 1445.8,582.9 1460,582.9 1460,597.1 1445.8,597.1 1445.8,609.9 1460,609.9 1460,626.9 1445.8,626.9 1445.8,639.6 
	1460,639.6 1460,653.8 1445.8,653.8 1445.8,668 1460,668 1460,682.1 1445.8,682.1 1445.8,696.3 1460,696.3 1460,710.5 "/>
<polyline fill="none" stroke="#007F00" stroke-linecap="round" stroke-linejoin="round" points="1630.1,242.8 1630.1,228.6 
	1644.3,228.6 1644.3,214.4 1630.1,214.4 1630.1,200.3 1644.3,200.3 1644.3,187.5 1630.1,187.5 1630.1,170.5 1644.3,170.5 
	1644.3,157.7 1630.1,157.7 1630.1,143.6 1644.3,143.6 1644.3,129.4 1630.1,129.4 1630.1,115.2 1644.3,115.2 1644.3,101 1630.1,101 
	1630.1,86.9 1460,86.9 1460,101 1445.8,101 1445.8,115.2 1460,115.2 1460,129.4 1445.8,129.4 1445.8,143.6 1460,143.6 1460,157.7 
	1445.8,157.7 1445.8,170.5 1460,170.5 1460,187.5 1445.8,187.5 1445.8,200.3 1460,200.3 1460,214.4 1445.8,214.4 1445.8,228.6 
	1460,228.6 1460,242.8 "/>
<g>
	<polyline fill="none" stroke="#007F00" stroke-linecap="round" stroke-linejoin="round" points="1445.8,391.6 1431.7,391.6 
		1431.7,377.4 1445.8,377.4 	"/>
	<polyline fill="none" stroke="#007F00" stroke-linecap="round" stroke-linejoin="round" points="1445.8,419.9 1431.7,419.9 
		1431.7,405.8 1445.8,405.8 	"/>
	<polyline fill="none" stroke="#007F00" stroke-linecap="round" stroke-linejoin="round" points="1445.8,448.3 1431.7,448.3 
		1431.7,434.1 1445.8,434.1 	"/>
	<polyline fill="none" stroke="#007F00" stroke-linecap="round" stroke-linejoin="round" points="1445.8,476.6 1431.7,476.6 
		1431.7,462.5 1445.8,462.5 	"/>
	<polyline fill="none" stroke="#007F00" stroke-linecap="round" stroke-linejoin="round" points="1445.8,505 1431.7,505 
		1431.7,490.8 1445.8,490.8 	"/>
	<polyline fill="none" stroke="#007F00" stroke-linecap="round" stroke-linejoin="round" points="1445.8,540.4 1431.7,540.4 
		1431.7,519.2 1445.8,519.2 	"/>
	<polyline fill="none" stroke="#007F00" stroke-linecap="round" stroke-linejoin="round" points="1445.8,242.8 1396.2,242.8 
		1396.2,257 1382.1,257 1382.1,242.8 1367.9,242.8 1367.9,257 1353.7,257 1353.7,242.8 1339.5,242.8 1339.5,257 1325.4,257 
		1325.4,242.8 1311.2,242.8 1311.2,257 1297,257 1297,242.8 1247.4,242.8 1247.4,257 1261.6,257 1261.6,278.2 1247.4,278.2 
		1247.4,292.4 1261.6,292.4 1261.6,306.6 1247.4,306.6 1247.4,320.7 1261.6,320.7 1261.6,334.9 1247.4,334.9 1247.4,349.1 
		1261.6,349.1 1261.6,363.3 1247.4,363.3 1247.4,377.4 1261.6,377.4 1261.6,391.6 1247.4,391.6 1247.4,405.8 1261.6,405.8 
		1261.6,419.9 1247.4,419.9 1247.4,434.1 1261.6,434.1 1261.6,448.3 1247.4,448.3 1247.4,462.5 1261.6,462.5 1261.6,476.6 
		1247.4,476.6 1247.4,490.8 1261.6,490.8 1261.6,505 1247.4,505 1247.4,519.2 1261.6,519.2 1261.6,540.4 1247.4,540.4 1247.4,554.6 
		1297,554.6 1297,540.4 1311.2,540.4 1311.2,554.6 1325.4,554.6 1325.4,540.4 1339.5,540.4 1339.5,554.6 1353.7,554.6 1353.7,540.4 
		1367.9,540.4 1367.9,554.6 1382.1,554.6 1382.1,540.4 1396.2,540.4 1396.2,554.6 1445.8,554.6 	"/>
	<polyline fill="none" stroke="#007F00" stroke-linecap="round" stroke-linejoin="round" points="1445.8,278.2 1431.7,278.2 
		1431.7,257 1445.8,257 	"/>
	<polyline fill="none" stroke="#007F00" stroke-linecap="round" stroke-linejoin="round" points="1445.8,306.6 1431.7,306.6 
		1431.7,292.4 1445.8,292.4 	"/>
	<polyline fill="none" stroke="#007F00" stroke-linecap="round" stroke-linejoin="round" points="1445.8,334.9 1431.7,334.9 
		1431.7,320.7 1445.8,320.7 	"/>
	<polyline fill="none" stroke="#007F00" stroke-linecap="round" stroke-linejoin="round" points="1445.8,363.3 1431.7,363.3 
		1431.7,349.1 1445.8,349.1 	"/>
	<polyline fill="none" stroke="#007F00" stroke-linecap="round" stroke-linejoin="round" points="1445.8,568.8 1431.7,568.8 
		1431.7,554.6 	"/>
	<polyline fill="none" stroke="#007F00" stroke-linecap="round" stroke-linejoin="round" points="1445.8,597.1 1431.7,597.1 
		1431.7,582.9 1445.8,582.9 	"/>
	<polyline fill="none" stroke="#007F00" stroke-linecap="round" stroke-linejoin="round" points="1445.8,626.9 1431.7,626.9 
		1431.7,609.9 1445.8,609.9 	"/>
	<polyline fill="none" stroke="#007F00" stroke-linecap="round" stroke-linejoin="round" points="1445.8,653.8 1431.7,653.8 
		1431.7,639.6 1445.8,639.6 	"/>
	<polyline fill="none" stroke="#007F00" stroke-linecap="round" stroke-linejoin="round" points="1445.8,682.1 1431.7,682.1 
		1431.7,668 1445.8,668 	"/>
	<polyline fill="none" stroke="#007F00" stroke-linecap="round" stroke-linejoin="round" points="1431.7,710.5 1431.7,696.3 
		1445.8,696.3 	"/>
	<polyline fill="none" stroke="#007F00" stroke-linecap="round" stroke-linejoin="round" points="1261.6,554.6 1261.6,568.8 
		1247.4,568.8 1247.4,582.9 1261.6,582.9 1261.6,597.1 1247.4,597.1 1247.4,609.9 1261.6,609.9 1261.6,626.9 1247.4,626.9 
		1247.4,639.6 1261.6,639.6 1261.6,653.8 1247.4,653.8 1247.4,668 1261.6,668 1261.6,682.1 1247.4,682.1 1247.4,696.3 1261.6,696.3 
		1261.6,710.5 	"/>
	<polyline fill="none" stroke="#007F00" stroke-linecap="round" stroke-linejoin="round" points="1445.8,101 1431.7,101 
		1431.7,86.9 1261.6,86.9 1261.6,101 1247.4,101 1247.4,115.2 1261.6,115.2 1261.6,129.4 1247.4,129.4 1247.4,143.6 1261.6,143.6 
		1261.6,157.7 1247.4,157.7 1247.4,170.5 1261.6,170.5 1261.6,187.5 1247.4,187.5 1247.4,200.3 1261.6,200.3 1261.6,214.4 
		1247.4,214.4 1247.4,228.6 1261.6,228.6 1261.6,242.8 	"/>
	<polyline fill="none" stroke="#007F00" stroke-linecap="round" stroke-linejoin="round" points="1445.8,129.4 1431.7,129.4 
		1431.7,115.2 1445.8,115.2 	"/>
	<polyline fill="none" stroke="#007F00" stroke-linecap="round" stroke-linejoin="round" points="1445.8,157.7 1431.7,157.7 
		1431.7,143.6 1445.8,143.6 	"/>
	<polyline fill="none" stroke="#007F00" stroke-linecap="round" stroke-linejoin="round" points="1445.8,187.5 1431.7,187.5 
		1431.7,170.5 1445.8,170.5 	"/>
	<polyline fill="none" stroke="#007F00" stroke-linecap="round" stroke-linejoin="round" points="1445.8,214.4 1431.7,214.4 
		1431.7,200.3 1445.8,200.3 	"/>
	<polyline fill="none" stroke="#007F00" stroke-linecap="round" stroke-linejoin="round" points="1431.7,242.8 1431.7,228.6 
		1445.8,228.6 	"/>
</g>
<g>
	<polyline fill="none" stroke="#007F00" stroke-linecap="round" stroke-linejoin="round" points="1247.4,391.6 1233.2,391.6 
		1233.2,377.4 1247.4,377.4 	"/>
	<polyline fill="none" stroke="#007F00" stroke-linecap="round" stroke-linejoin="round" points="1247.4,419.9 1233.2,419.9 
		1233.2,405.8 1247.4,405.8 	"/>
	<polyline fill="none" stroke="#007F00" stroke-linecap="round" stroke-linejoin="round" points="1247.4,448.3 1233.2,448.3 
		1233.2,434.1 1247.4,434.1 	"/>
	<polyline fill="none" stroke="#007F00" stroke-linecap="round" stroke-linejoin="round" points="1247.4,476.6 1233.2,476.6 
		1233.2,462.5 1247.4,462.5 	"/>
	<polyline fill="none" stroke="#007F00" stroke-linecap="round" stroke-linejoin="round" points="1247.4,505 1233.2,505 
		1233.2,490.8 1247.4,490.8 	"/>
	<polyline fill="none" stroke="#007F00" stroke-linecap="round" stroke-linejoin="round" points="1247.4,540.4 1233.2,540.4 
		1233.2,519.2 1247.4,519.2 	"/>
	<polyline fill="none" stroke="#007F00" stroke-linecap="round" stroke-linejoin="round" points="1247.4,242.8 1197.8,242.8 
		1197.8,257 1183.6,257 1183.6,242.8 1169.5,242.8 1169.5,257 1155.3,257 1155.3,242.8 1141.1,242.8 1141.1,257 1126.9,257 
		1126.9,242.8 1112.8,242.8 1112.8,257 1098.6,257 1098.6,242.8 1049,242.8 1049,257 1063.2,257 1063.2,278.2 1049,278.2 
		1049,292.4 1063.2,292.4 1063.2,306.6 1049,306.6 1049,320.7 1063.2,320.7 1063.2,334.9 1049,334.9 1049,349.1 1063.2,349.1 
		1063.2,363.3 1049,363.3 1049,377.4 1063.2,377.4 1063.2,391.6 1049,391.6 1049,405.8 1063.2,405.8 1063.2,419.9 1049,419.9 
		1049,434.1 1063.2,434.1 1063.2,448.3 1049,448.3 1049,462.5 1063.2,462.5 1063.2,476.6 1049,476.6 1049,490.8 1063.2,490.8 
		1063.2,505 1049,505 1049,519.2 1063.2,519.2 1063.2,540.4 1049,540.4 1049,554.6 1098.6,554.6 1098.6,540.4 1112.8,540.4 
		1112.8,554.6 1126.9,554.6 1126.9,540.4 1141.1,540.4 1141.1,554.6 1155.3,554.6 1155.3,540.4 1169.5,540.4 1169.5,554.6 
		1183.6,554.6 1183.6,540.4 1197.8,540.4 1197.8,554.6 1247.4,554.6 	"/>
	<polyline fill="none" stroke="#007F00" stroke-linecap="round" stroke-linejoin="round" points="1247.4,278.2 1233.2,278.2 
		1233.2,257 1247.4,257 	"/>
	<polyline fill="none" stroke="#007F00" stroke-linecap="round" stroke-linejoin="round" points="1247.4,306.6 1233.2,306.6 
		1233.2,292.4 1247.4,292.4 	"/>
	<polyline fill="none" stroke="#007F00" stroke-linecap="round" stroke-linejoin="round" points="1247.4,334.9 1233.2,334.9 
		1233.2,320.7 1247.4,320.7 	"/>
	<polyline fill="none" stroke="#007F00" stroke-linecap="round" stroke-linejoin="round" points="1247.4,363.3 1233.2,363.3 
		1233.2,349.1 1247.4,349.1 	"/>
	<polyline fill="none" stroke="#007F00" stroke-linecap="round" stroke-linejoin="round" points="1247.4,568.8 1233.2,568.8 
		1233.2,554.6 	"/>
	<polyline fill="none" stroke="#007F00" stroke-linecap="round" stroke-linejoin="round" points="1247.4,597.1 1233.2,597.1 
		1233.2,582.9 1247.4,582.9 	"/>
	<polyline fill="none" stroke="#007F00" stroke-linecap="round" stroke-linejoin="round" points="1247.4,626.9 1233.2,626.9 
		1233.2,609.9 1247.4,609.9 	"/>
	<polyline fill="none" stroke="#007F00" stroke-linecap="round" stroke-linejoin="round" points="1247.4,653.8 1233.2,653.8 
		1233.2,639.6 1247.4,639.6 	"/>
	<polyline fill="none" stroke="#007F00" stroke-linecap="round" stroke-linejoin="round" points="1247.4,682.1 1233.2,682.1 
		1233.2,668 1247.4,668 	"/>
	<polyline fill="none" stroke="#007F00" stroke-linecap="round" stroke-linejoin="round" points="1233.2,710.5 1233.2,696.3 
		1247.4,696.3 	"/>
	<polyline fill="none" stroke="#007F00" stroke-linecap="round" stroke-linejoin="round" points="1063.2,554.6 1063.2,568.8 
		1049,568.8 1049,582.9 1063.2,582.9 1063.2,597.1 1049,597.1 1049,609.9 1063.2,609.9 1063.2,626.9 1049,626.9 1049,639.6 
		1063.2,639.6 1063.2,653.8 1049,653.8 1049,668 1063.2,668 1063.2,682.1 1049,682.1 1049,696.3 1063.2,696.3 1063.2,710.5 	"/>
	<polyline fill="none" stroke="#007F00" stroke-linecap="round" stroke-linejoin="round" points="1247.4,101 1233.2,101 
		1233.2,86.9 1063.2,86.9 1063.2,101 1049,101 1049,115.2 1063.2,115.2 1063.2,129.4 1049,129.4 1049,143.6 1063.2,143.6 
		1063.2,157.7 1049,157.7 1049,170.5 1063.2,170.5 1063.2,187.5 1049,187.5 1049,200.3 1063.2,200.3 1063.2,214.4 1049,214.4 
		1049,228.6 1063.2,228.6 1063.2,242.8 	"/>
	<polyline fill="none" stroke="#007F00" stroke-linecap="round" stroke-linejoin="round" points="1247.4,129.4 1233.2,129.4 
		1233.2,115.2 1247.4,115.2 	"/>
	<polyline fill="none" stroke="#007F00" stroke-linecap="round" stroke-linejoin="round" points="1247.4,157.7 1233.2,157.7 
		1233.2,143.6 1247.4,143.6 	"/>
	<polyline fill="none" stroke="#007F00" stroke-linecap="round" stroke-linejoin="round" points="1247.4,187.5 1233.2,187.5 
		1233.2,170.5 1247.4,170.5 	"/>
	<polyline fill="none" stroke="#007F00" stroke-linecap="round" stroke-linejoin="round" points="1247.4,214.4 1233.2,214.4 
		1233.2,200.3 1247.4,200.3 	"/>
	<polyline fill="none" stroke="#007F00" stroke-linecap="round" stroke-linejoin="round" points="1233.2,242.8 1233.2,228.6 
		1247.4,228.6 	"/>
</g>
<g>
	<polyline fill="none" stroke="#007F00" stroke-linecap="round" stroke-linejoin="round" points="1049,391.6 1034.8,391.6 
		1034.8,377.4 1049,377.4 	"/>
	<polyline fill="none" stroke="#007F00" stroke-linecap="round" stroke-linejoin="round" points="1049,419.9 1034.8,419.9 
		1034.8,405.8 1049,405.8 	"/>
	<polyline fill="none" stroke="#007F00" stroke-linecap="round" stroke-linejoin="round" points="1049,448.3 1034.8,448.3 
		1034.8,434.1 1049,434.1 	"/>
	<polyline fill="none" stroke="#007F00" stroke-linecap="round" stroke-linejoin="round" points="1049,476.6 1034.8,476.6 
		1034.8,462.5 1049,462.5 	"/>
	<polyline fill="none" stroke="#007F00" stroke-linecap="round" stroke-linejoin="round" points="1049,505 1034.8,505 1034.8,490.8 
		1049,490.8 	"/>
	<polyline fill="none" stroke="#007F00" stroke-linecap="round" stroke-linejoin="round" points="1049,540.4 1034.8,540.4 
		1034.8,519.2 1049,519.2 	"/>
	<polyline fill="none" stroke="#007F00" stroke-linecap="round" stroke-linejoin="round" points="1049,242.8 999.4,242.8 999.4,257 
		985.2,257 985.2,242.8 971,242.8 971,257 956.9,257 956.9,242.8 942.7,242.8 942.7,257 928.5,257 928.5,242.8 914.3,242.8 
		914.3,257 900.2,257 900.2,242.8 850.6,242.8 850.6,257 864.7,257 864.7,278.2 850.6,278.2 850.6,292.4 864.7,292.4 864.7,306.6 
		850.6,306.6 850.6,320.7 864.7,320.7 864.7,334.9 850.6,334.9 850.6,349.1 864.7,349.1 864.7,363.3 850.6,363.3 850.6,377.4 
		864.7,377.4 864.7,391.6 850.6,391.6 850.6,405.8 864.7,405.8 864.7,419.9 850.6,419.9 850.6,434.1 864.7,434.1 864.7,448.3 
		850.6,448.3 850.6,462.5 864.7,462.5 864.7,476.6 850.6,476.6 850.6,490.8 864.7,490.8 864.7,505 850.6,505 850.6,519.2 
		864.7,519.2 864.7,540.4 850.6,540.4 850.6,554.6 900.2,554.6 900.2,540.4 914.3,540.4 914.3,554.6 928.5,554.6 928.5,540.4 
		942.7,540.4 942.7,554.6 956.9,554.6 956.9,540.4 971,540.4 971,554.6 985.2,554.6 985.2,540.4 999.4,540.4 999.4,554.6 
		1049,554.6 	"/>
	<polyline fill="none" stroke="#007F00" stroke-linecap="round" stroke-linejoin="round" points="1049,278.2 1034.8,278.2 
		1034.8,257 1049,257 	"/>
	<polyline fill="none" stroke="#007F00" stroke-linecap="round" stroke-linejoin="round" points="1049,306.6 1034.8,306.6 
		1034.8,292.4 1049,292.4 	"/>
	<polyline fill="none" stroke="#007F00" stroke-linecap="round" stroke-linejoin="round" points="1049,334.9 1034.8,334.9 
		1034.8,320.7 1049,320.7 	"/>
	<polyline fill="none" stroke="#007F00" stroke-linecap="round" stroke-linejoin="round" points="1049,363.3 1034.8,363.3 
		1034.8,349.1 1049,349.1 	"/>
	<polyline fill="none" stroke="#007F00" stroke-linecap="round" stroke-linejoin="round" points="1049,568.8 1034.8,568.8 
		1034.8,554.6 	"/>
	<polyline fill="none" stroke="#007F00" stroke-linecap="round" stroke-linejoin="round" points="1049,597.1 1034.8,597.1 
		1034.8,582.9 1049,582.9 	"/>
	<polyline fill="none" stroke="#007F00" stroke-linecap="round" stroke-linejoin="round" points="1049,626.9 1034.8,626.9 
		1034.8,609.9 1049,609.9 	"/>
	<polyline fill="none" stroke="#007F00" stroke-linecap="round" stroke-linejoin="round" points="1049,653.8 1034.8,653.8 
		1034.8,639.6 1049,639.6 	"/>
	<polyline fill="none" stroke="#007F00" stroke-linecap="round" stroke-linejoin="round" points="1049,682.1 1034.8,682.1 
		1034.8,668 1049,668 	"/>
	<polyline fill="none" stroke="#007F00" stroke-linecap="round" stroke-linejoin="round" points="1034.8,710.5 1034.8,696.3 
		1049,696.3 	"/>
	<polyline fill="none" stroke="#007F00" stroke-linecap="round" stroke-linejoin="round" points="864.7,554.6 864.7,568.8 
		850.6,568.8 850.6,582.9 864.7,582.9 864.7,597.1 850.6,597.1 850.6,609.9 864.7,609.9 864.7,626.9 850.6,626.9 850.6,639.6 
		864.7,639.6 864.7,653.8 850.6,653.8 850.6,668 864.7,668 864.7,682.1 850.6,682.1 850.6,696.3 864.7,696.3 864.7,710.5 	"/>
	<polyline fill="none" stroke="#007F00" stroke-linecap="round" stroke-linejoin="round" points="1049,101 1034.8,101 1034.8,86.9 
		864.7,86.9 864.7,101 850.6,101 850.6,115.2 864.7,115.2 864.7,129.4 850.6,129.4 850.6,143.6 864.7,143.6 864.7,157.7 
		850.6,157.7 850.6,170.5 864.7,170.5 864.7,187.5 850.6,187.5 850.6,200.3 864.7,200.3 864.7,214.4 850.6,214.4 850.6,228.6 
		864.7,228.6 864.7,242.8 	"/>
	<polyline fill="none" stroke="#007F00" stroke-linecap="round" stroke-linejoin="round" points="1049,129.4 1034.8,129.4 
		1034.8,115.2 1049,115.2 	"/>
	<polyline fill="none" stroke="#007F00" stroke-linecap="round" stroke-linejoin="round" points="1049,157.7 1034.8,157.7 
		1034.8,143.6 1049,143.6 	"/>
	<polyline fill="none" stroke="#007F00" stroke-linecap="round" stroke-linejoin="round" points="1049,187.5 1034.8,187.5 
		1034.8,170.5 1049,170.5 	"/>
	<polyline fill="none" stroke="#007F00" stroke-linecap="round" stroke-linejoin="round" points="1049,214.4 1034.8,214.4 
		1034.8,200.3 1049,200.3 	"/>
	<polyline fill="none" stroke="#007F00" stroke-linecap="round" stroke-linejoin="round" points="1034.8,242.8 1034.8,228.6 
		1049,228.6 	"/>
</g>
<g>
	<polyline fill="none" stroke="#007F00" stroke-linecap="round" stroke-linejoin="round" points="850.6,391.6 836.4,391.6 
		836.4,377.4 850.6,377.4 	"/>
	<polyline fill="none" stroke="#007F00" stroke-linecap="round" stroke-linejoin="round" points="850.6,419.9 836.4,419.9 
		836.4,405.8 850.6,405.8 	"/>
	<polyline fill="none" stroke="#007F00" stroke-linecap="round" stroke-linejoin="round" points="850.6,448.3 836.4,448.3 
		836.4,434.1 850.6,434.1 	"/>
	<polyline fill="none" stroke="#007F00" stroke-linecap="round" stroke-linejoin="round" points="850.6,476.6 836.4,476.6 
		836.4,462.5 850.6,462.5 	"/>
	<polyline fill="none" stroke="#007F00" stroke-linecap="round" stroke-linejoin="round" points="850.6,505 836.4,505 836.4,490.8 
		850.6,490.8 	"/>
	<polyline fill="none" stroke="#007F00" stroke-linecap="round" stroke-linejoin="round" points="850.6,540.4 836.4,540.4 
		836.4,519.2 850.6,519.2 	"/>
	<polyline fill="none" stroke="#007F00" stroke-linecap="round" stroke-linejoin="round" points="850.6,242.8 800.9,242.8 
		800.9,257 786.8,257 786.8,242.8 772.6,242.8 772.6,257 758.4,257 758.4,242.8 744.3,242.8 744.3,257 730.1,257 730.1,242.8 
		715.9,242.8 715.9,257 701.7,257 701.7,242.8 652.1,242.8 652.1,257 666.3,257 666.3,278.2 652.1,278.2 652.1,292.4 666.3,292.4 
		666.3,306.6 652.1,306.6 652.1,320.7 666.3,320.7 666.3,334.9 652.1,334.9 652.1,349.1 666.3,349.1 666.3,363.3 652.1,363.3 
		652.1,377.4 666.3,377.4 666.3,391.6 652.1,391.6 652.1,405.8 666.3,405.8 666.3,419.9 652.1,419.9 652.1,434.1 666.3,434.1 
		666.3,448.3 652.1,448.3 652.1,462.5 666.3,462.5 666.3,476.6 652.1,476.6 652.1,490.8 666.3,490.8 666.3,505 652.1,505 
		652.1,519.2 666.3,519.2 666.3,540.4 652.1,540.4 652.1,554.6 701.7,554.6 701.7,540.4 715.9,540.4 715.9,554.6 730.1,554.6 
		730.1,540.4 744.3,540.4 744.3,554.6 758.4,554.6 758.4,540.4 772.6,540.4 772.6,554.6 786.8,554.6 786.8,540.4 800.9,540.4 
		800.9,554.6 850.6,554.6 	"/>
	<polyline fill="none" stroke="#007F00" stroke-linecap="round" stroke-linejoin="round" points="850.6,278.2 836.4,278.2 
		836.4,257 850.6,257 	"/>
	<polyline fill="none" stroke="#007F00" stroke-linecap="round" stroke-linejoin="round" points="850.6,306.6 836.4,306.6 
		836.4,292.4 850.6,292.4 	"/>
	<polyline fill="none" stroke="#007F00" stroke-linecap="round" stroke-linejoin="round" points="850.6,334.9 836.4,334.9 
		836.4,320.7 850.6,320.7 	"/>
	<polyline fill="none" stroke="#007F00" stroke-linecap="round" stroke-linejoin="round" points="850.6,363.3 836.4,363.3 
		836.4,349.1 850.6,349.1 	"/>
	<polyline fill="none" stroke="#007F00" stroke-linecap="round" stroke-linejoin="round" points="850.6,568.8 836.4,568.8 
		836.4,554.6 	"/>
	<polyline fill="none" stroke="#007F00" stroke-linecap="round" stroke-linejoin="round" points="850.6,597.1 836.4,597.1 
		836.4,582.9 850.6,582.9 	"/>
	<polyline fill="none" stroke="#007F00" stroke-linecap="round" stroke-linejoin="round" points="850.6,626.9 836.4,626.9 
		836.4,609.9 850.6,609.9 	"/>
	<polyline fill="none" stroke="#007F00" stroke-linecap="round" stroke-linejoin="round" points="850.6,653.8 836.4,653.8 
		836.4,639.6 850.6,639.6 	"/>
	<polyline fill="none" stroke="#007F00" stroke-linecap="round" stroke-linejoin="round" points="850.6,682.1 836.4,682.1 
		836.4,668 850.6,668 	"/>
	<polyline fill="none" stroke="#007F00" stroke-linecap="round" stroke-linejoin="round" points="836.4,710.5 836.4,696.3 
		850.6,696.3 	"/>
	<polyline fill="none" stroke="#007F00" stroke-linecap="round" stroke-linejoin="round" points="666.3,554.6 666.3,568.8 
		652.1,568.8 652.1,582.9 666.3,582.9 666.3,597.1 652.1,597.1 652.1,609.9 666.3,609.9 666.3,626.9 652.1,626.9 652.1,639.6 
		666.3,639.6 666.3,653.8 652.1,653.8 652.1,668 666.3,668 666.3,682.1 652.1,682.1 652.1,696.3 666.3,696.3 666.3,710.5 	"/>
	<polyline fill="none" stroke="#007F00" stroke-linecap="round" stroke-linejoin="round" points="850.6,101 836.4,101 836.4,86.9 
		666.3,86.9 666.3,101 652.1,101 652.1,115.2 666.3,115.2 666.3,129.4 652.1,129.4 652.1,143.6 666.3,143.6 666.3,157.7 
		652.1,157.7 652.1,170.5 666.3,170.5 666.3,187.5 652.1,187.5 652.1,200.3 666.3,200.3 666.3,214.4 652.1,214.4 652.1,228.6 
		666.3,228.6 666.3,242.8 	"/>
	<polyline fill="none" stroke="#007F00" stroke-linecap="round" stroke-linejoin="round" points="850.6,129.4 836.4,129.4 
		836.4,115.2 850.6,115.2 	"/>
	<polyline fill="none" stroke="#007F00" stroke-linecap="round" stroke-linejoin="round" points="850.6,157.7 836.4,157.7 
		836.4,143.6 850.6,143.6 	"/>
	<polyline fill="none" stroke="#007F00" stroke-linecap="round" stroke-linejoin="round" points="850.6,187.5 836.4,187.5 
		836.4,170.5 850.6,170.5 	"/>
	<polyline fill="none" stroke="#007F00" stroke-linecap="round" stroke-linejoin="round" points="850.6,214.4 836.4,214.4 
		836.4,200.3 850.6,200.3 	"/>
	<polyline fill="none" stroke="#007F00" stroke-linecap="round" stroke-linejoin="round" points="836.4,242.8 836.4,228.6 
		850.6,228.6 	"/>
</g>
<g>
	<polyline fill="none" stroke="#007F00" stroke-linecap="round" stroke-linejoin="round" points="652.1,391.6 638,391.6 638,377.4 
		652.1,377.4 	"/>
	<polyline fill="none" stroke="#007F00" stroke-linecap="round" stroke-linejoin="round" points="652.1,419.9 638,419.9 638,405.8 
		652.1,405.8 	"/>
	<polyline fill="none" stroke="#007F00" stroke-linecap="round" stroke-linejoin="round" points="652.1,448.3 638,448.3 638,434.1 
		652.1,434.1 	"/>
	<polyline fill="none" stroke="#007F00" stroke-linecap="round" stroke-linejoin="round" points="652.1,476.6 638,476.6 638,462.5 
		652.1,462.5 	"/>
	<polyline fill="none" stroke="#007F00" stroke-linecap="round" stroke-linejoin="round" points="652.1,505 638,505 638,490.8 
		652.1,490.8 	"/>
	<polyline fill="none" stroke="#007F00" stroke-linecap="round" stroke-linejoin="round" points="652.1,540.4 638,540.4 638,519.2 
		652.1,519.2 	"/>
	<polyline fill="none" stroke="#007F00" stroke-linecap="round" stroke-linejoin="round" points="652.1,242.8 602.5,242.8 
		602.5,257 588.4,257 588.4,242.8 574.2,242.8 574.2,257 560,257 560,242.8 545.8,242.8 545.8,257 531.7,257 531.7,242.8 
		517.5,242.8 517.5,257 503.3,257 503.3,242.8 453.7,242.8 453.7,257 467.9,257 467.9,278.2 453.7,278.2 453.7,292.4 467.9,292.4 
		467.9,306.6 453.7,306.6 453.7,320.7 467.9,320.7 467.9,334.9 453.7,334.9 453.7,349.1 467.9,349.1 467.9,363.3 453.7,363.3 
		453.7,377.4 467.9,377.4 467.9,391.6 453.7,391.6 453.7,405.8 467.9,405.8 467.9,419.9 453.7,419.9 453.7,434.1 467.9,434.1 
		467.9,448.3 453.7,448.3 453.7,462.5 467.9,462.5 467.9,476.6 453.7,476.6 453.7,490.8 467.9,490.8 467.9,505 453.7,505 
		453.7,519.2 467.9,519.2 467.9,540.4 453.7,540.4 453.7,554.6 503.3,554.6 503.3,540.4 517.5,540.4 517.5,554.6 531.7,554.6 
		531.7,540.4 545.8,540.4 545.8,554.6 560,554.6 560,540.4 574.2,540.4 574.2,554.6 588.4,554.6 588.4,540.4 602.5,540.4 
		602.5,554.6 652.1,554.6 	"/>
	<polyline fill="none" stroke="#007F00" stroke-linecap="round" stroke-linejoin="round" points="652.1,278.2 638,278.2 638,257 
		652.1,257 	"/>
	<polyline fill="none" stroke="#007F00" stroke-linecap="round" stroke-linejoin="round" points="652.1,306.6 638,306.6 638,292.4 
		652.1,292.4 	"/>
	<polyline fill="none" stroke="#007F00" stroke-linecap="round" stroke-linejoin="round" points="652.1,334.9 638,334.9 638,320.7 
		652.1,320.7 	"/>
	<polyline fill="none" stroke="#007F00" stroke-linecap="round" stroke-linejoin="round" points="652.1,363.3 638,363.3 638,349.1 
		652.1,349.1 	"/>
	<polyline fill="none" stroke="#007F00" stroke-linecap="round" stroke-linejoin="round" points="652.1,568.8 638,568.8 638,554.6 	
		"/>
	<polyline fill="none" stroke="#007F00" stroke-linecap="round" stroke-linejoin="round" points="652.1,597.1 638,597.1 638,582.9 
		652.1,582.9 	"/>
	<polyline fill="none" stroke="#007F00" stroke-linecap="round" stroke-linejoin="round" points="652.1,626.9 638,626.9 638,609.9 
		652.1,609.9 	"/>
	<polyline fill="none" stroke="#007F00" stroke-linecap="round" stroke-linejoin="round" points="652.1,653.8 638,653.8 638,639.6 
		652.1,639.6 	"/>
	<polyline fill="none" stroke="#007F00" stroke-linecap="round" stroke-linejoin="round" points="652.1,682.1 638,682.1 638,668 
		652.1,668 	"/>
	<polyline fill="none" stroke="#007F00" stroke-linecap="round" stroke-linejoin="round" points="638,710.5 638,696.3 652.1,696.3 	
		"/>
	<polyline fill="none" stroke="#007F00" stroke-linecap="round" stroke-linejoin="round" points="467.9,554.6 467.9,568.8 
		453.7,568.8 453.7,582.9 467.9,582.9 467.9,597.1 453.7,597.1 453.7,609.9 467.9,609.9 467.9,626.9 453.7,626.9 453.7,639.6 
		467.9,639.6 467.9,653.8 453.7,653.8 453.7,668 467.9,668 467.9,682.1 453.7,682.1 453.7,696.3 467.9,696.3 467.9,710.5 	"/>
	<polyline fill="none" stroke="#007F00" stroke-linecap="round" stroke-linejoin="round" points="652.1,101 638,101 638,86.9 
		467.9,86.9 467.9,101 453.7,101 453.7,115.2 467.9,115.2 467.9,129.4 453.7,129.4 453.7,143.6 467.9,143.6 467.9,157.7 
		453.7,157.7 453.7,170.5 467.9,170.5 467.9,187.5 453.7,187.5 453.7,200.3 467.9,200.3 467.9,214.4 453.7,214.4 453.7,228.6 
		467.9,228.6 467.9,242.8 	"/>
	<polyline fill="none" stroke="#007F00" stroke-linecap="round" stroke-linejoin="round" points="652.1,129.4 638,129.4 638,115.2 
		652.1,115.2 	"/>
	<polyline fill="none" stroke="#007F00" stroke-linecap="round" stroke-linejoin="round" points="652.1,157.7 638,157.7 638,143.6 
		652.1,143.6 	"/>
	<polyline fill="none" stroke="#007F00" stroke-linecap="round" stroke-linejoin="round" points="652.1,187.5 638,187.5 638,170.5 
		652.1,170.5 	"/>
	<polyline fill="none" stroke="#007F00" stroke-linecap="round" stroke-linejoin="round" points="652.1,214.4 638,214.4 638,200.3 
		652.1,200.3 	"/>
	<polyline fill="none" stroke="#007F00" stroke-linecap="round" stroke-linejoin="round" points="638,242.8 638,228.6 652.1,228.6 	
		"/>
</g>
<g>
	<polyline fill="none" stroke="#007F00" stroke-linecap="round" stroke-linejoin="round" points="453.7,391.6 439.5,391.6 
		439.5,377.4 453.7,377.4 	"/>
	<polyline fill="none" stroke="#007F00" stroke-linecap="round" stroke-linejoin="round" points="453.7,419.9 439.5,419.9 
		439.5,405.8 453.7,405.8 	"/>
	<polyline fill="none" stroke="#007F00" stroke-linecap="round" stroke-linejoin="round" points="453.7,448.3 439.5,448.3 
		439.5,434.1 453.7,434.1 	"/>
	<polyline fill="none" stroke="#007F00" stroke-linecap="round" stroke-linejoin="round" points="453.7,476.6 439.5,476.6 
		439.5,462.5 453.7,462.5 	"/>
	<polyline fill="none" stroke="#007F00" stroke-linecap="round" stroke-linejoin="round" points="453.7,505 439.5,505 439.5,490.8 
		453.7,490.8 	"/>
	<polyline fill="none" stroke="#007F00" stroke-linecap="round" stroke-linejoin="round" points="453.7,540.4 439.5,540.4 
		439.5,519.2 453.7,519.2 	"/>
	<polyline fill="none" stroke="#007F00" stroke-linecap="round" stroke-linejoin="round" points="453.7,242.8 404.1,242.8 
		404.1,257 389.9,257 389.9,242.8 375.8,242.8 375.8,257 361.6,257 361.6,242.8 347.4,242.8 347.4,257 333.2,257 333.2,242.8 
		319.1,242.8 319.1,257 304.9,257 304.9,242.8 255.3,242.8 255.3,257 269.5,257 269.5,278.2 255.3,278.2 255.3,292.4 269.5,292.4 
		269.5,306.6 255.3,306.6 255.3,320.7 269.5,320.7 269.5,334.9 255.3,334.9 255.3,349.1 269.5,349.1 269.5,363.3 255.3,363.3 
		255.3,377.4 269.5,377.4 269.5,391.6 255.3,391.6 255.3,405.8 269.5,405.8 269.5,419.9 255.3,419.9 255.3,434.1 269.5,434.1 
		269.5,448.3 255.3,448.3 255.3,462.5 269.5,462.5 269.5,476.6 255.3,476.6 255.3,490.8 269.5,490.8 269.5,505 255.3,505 
		255.3,519.2 269.5,519.2 269.5,540.4 255.3,540.4 255.3,554.6 304.9,554.6 304.9,540.4 319.1,540.4 319.1,554.6 333.2,554.6 
		333.2,540.4 347.4,540.4 347.4,554.6 361.6,554.6 361.6,540.4 375.8,540.4 375.8,554.6 389.9,554.6 389.9,540.4 404.1,540.4 
		404.1,554.6 453.7,554.6 	"/>
	<polyline fill="none" stroke="#007F00" stroke-linecap="round" stroke-linejoin="round" points="453.7,278.2 439.5,278.2 
		439.5,257 453.7,257 	"/>
	<polyline fill="none" stroke="#007F00" stroke-linecap="round" stroke-linejoin="round" points="453.7,306.6 439.5,306.6 
		439.5,292.4 453.7,292.4 	"/>
	<polyline fill="none" stroke="#007F00" stroke-linecap="round" stroke-linejoin="round" points="453.7,334.9 439.5,334.9 
		439.5,320.7 453.7,320.7 	"/>
	<polyline fill="none" stroke="#007F00" stroke-linecap="round" stroke-linejoin="round" points="453.7,363.3 439.5,363.3 
		439.5,349.1 453.7,349.1 	"/>
	<polyline fill="none" stroke="#007F00" stroke-linecap="round" stroke-linejoin="round" points="453.7,568.8 439.5,568.8 
		439.5,554.6 	"/>
	<polyline fill="none" stroke="#007F00" stroke-linecap="round" stroke-linejoin="round" points="453.7,597.1 439.5,597.1 
		439.5,582.9 453.7,582.9 	"/>
	<polyline fill="none" stroke="#007F00" stroke-linecap="round" stroke-linejoin="round" points="453.7,626.9 439.5,626.9 
		439.5,609.9 453.7,609.9 	"/>
	<polyline fill="none" stroke="#007F00" stroke-linecap="round" stroke-linejoin="round" points="453.7,653.8 439.5,653.8 
		439.5,639.6 453.7,639.6 	"/>
	<polyline fill="none" stroke="#007F00" stroke-linecap="round" stroke-linejoin="round" points="453.7,682.1 439.5,682.1 
		439.5,668 453.7,668 	"/>
	<polyline fill="none" stroke="#007F00" stroke-linecap="round" stroke-linejoin="round" points="439.5,710.5 439.5,696.3 
		453.7,696.3 	"/>
	<polyline fill="none" stroke="#007F00" stroke-linecap="round" stroke-linejoin="round" points="269.5,554.6 269.5,568.8 
		255.3,568.8 255.3,582.9 269.5,582.9 269.5,597.1 255.3,597.1 255.3,609.9 269.5,609.9 269.5,626.9 255.3,626.9 255.3,639.6 
		269.5,639.6 269.5,653.8 255.3,653.8 255.3,668 269.5,668 269.5,682.1 255.3,682.1 255.3,696.3 269.5,696.3 269.5,710.5 	"/>
	<polyline fill="none" stroke="#007F00" stroke-linecap="round" stroke-linejoin="round" points="453.7,101 439.5,101 439.5,86.9 
		269.5,86.9 269.5,101 255.3,101 255.3,115.2 269.5,115.2 269.5,129.4 255.3,129.4 255.3,143.6 269.5,143.6 269.5,157.7 
		255.3,157.7 255.3,170.5 269.5,170.5 269.5,187.5 255.3,187.5 255.3,200.3 269.5,200.3 269.5,214.4 255.3,214.4 255.3,228.6 
		269.5,228.6 269.5,242.8 	"/>
	<polyline fill="none" stroke="#007F00" stroke-linecap="round" stroke-linejoin="round" points="453.7,129.4 439.5,129.4 
		439.5,115.2 453.7,115.2 	"/>
	<polyline fill="none" stroke="#007F00" stroke-linecap="round" stroke-linejoin="round" points="453.7,157.7 439.5,157.7 
		439.5,143.6 453.7,143.6 	"/>
	<polyline fill="none" stroke="#007F00" stroke-linecap="round" stroke-linejoin="round" points="453.7,187.5 439.5,187.5 
		439.5,170.5 453.7,170.5 	"/>
	<polyline fill="none" stroke="#007F00" stroke-linecap="round" stroke-linejoin="round" points="453.7,214.4 439.5,214.4 
		439.5,200.3 453.7,200.3 	"/>
	<polyline fill="none" stroke="#007F00" stroke-linecap="round" stroke-linejoin="round" points="439.5,242.8 439.5,228.6 
		453.7,228.6 	"/>
</g>
<g>
	<polyline fill="none" stroke="#007F00" stroke-linecap="round" stroke-linejoin="round" points="255.3,391.6 241.1,391.6 
		241.1,377.4 255.3,377.4 	"/>
	<polyline fill="none" stroke="#007F00" stroke-linecap="round" stroke-linejoin="round" points="255.3,419.9 241.1,419.9 
		241.1,405.8 255.3,405.8 	"/>
	<polyline fill="none" stroke="#007F00" stroke-linecap="round" stroke-linejoin="round" points="255.3,448.3 241.1,448.3 
		241.1,434.1 255.3,434.1 	"/>
	<polyline fill="none" stroke="#007F00" stroke-linecap="round" stroke-linejoin="round" points="255.3,476.6 241.1,476.6 
		241.1,462.5 255.3,462.5 	"/>
	<polyline fill="none" stroke="#007F00" stroke-linecap="round" stroke-linejoin="round" points="255.3,505 241.1,505 241.1,490.8 
		255.3,490.8 	"/>
	<polyline fill="none" stroke="#007F00" stroke-linecap="round" stroke-linejoin="round" points="255.3,540.4 241.1,540.4 
		241.1,519.2 255.3,519.2 	"/>
	<polyline fill="none" stroke="#007F00" stroke-linecap="round" stroke-linejoin="round" points="255.3,242.8 205.7,242.8 
		205.7,257 191.5,257 191.5,242.8 177.3,242.8 177.3,257 163.2,257 163.2,242.8 149,242.8 149,257 134.8,257 134.8,242.8 
		120.6,242.8 120.6,257 106.5,257 106.5,242.8 56.9,242.8 56.9,257 71,257 71,278.2 56.9,278.2 56.9,292.4 71,292.4 71,306.6 
		56.9,306.6 56.9,320.7 71,320.7 71,334.9 56.9,334.9 56.9,349.1 71,349.1 71,363.3 56.9,363.3 56.9,377.4 71,377.4 71,391.6 
		56.9,391.6 56.9,405.8 71,405.8 71,419.9 56.9,419.9 56.9,434.1 71,434.1 71,448.3 56.9,448.3 56.9,462.5 71,462.5 71,476.6 
		56.9,476.6 56.9,490.8 71,490.8 71,505 56.9,505 56.9,519.2 71,519.2 71,540.4 56.9,540.4 56.9,554.6 106.5,554.6 106.5,540.4 
		120.6,540.4 120.6,554.6 134.8,554.6 134.8,540.4 149,540.4 149,554.6 163.2,554.6 163.2,540.4 177.3,540.4 177.3,554.6 
		191.5,554.6 191.5,540.4 205.7,540.4 205.7,554.6 255.3,554.6 	"/>
	<polyline fill="none" stroke="#007F00" stroke-linecap="round" stroke-linejoin="round" points="255.3,278.2 241.1,278.2 
		241.1,257 255.3,257 	"/>
	<polyline fill="none" stroke="#007F00" stroke-linecap="round" stroke-linejoin="round" points="255.3,306.6 241.1,306.6 
		241.1,292.4 255.3,292.4 	"/>
	<polyline fill="none" stroke="#007F00" stroke-linecap="round" stroke-linejoin="round" points="255.3,334.9 241.1,334.9 
		241.1,320.7 255.3,320.7 	"/>
	<polyline fill="none" stroke="#007F00" stroke-linecap="round" stroke-linejoin="round" points="255.3,363.3 241.1,363.3 
		241.1,349.1 255.3,349.1 	"/>
	<polyline fill="none" stroke="#007F00" stroke-linecap="round" stroke-linejoin="round" points="255.3,568.8 241.1,568.8 
		241.1,554.6 	"/>
	<polyline fill="none" stroke="#007F00" stroke-linecap="round" stroke-linejoin="round" points="255.3,597.1 241.1,597.1 
		241.1,582.9 255.3,582.9 	"/>
	<polyline fill="none" stroke="#007F00" stroke-linecap="round" stroke-linejoin="round" points="255.3,626.9 241.1,626.9 
		241.1,609.9 255.3,609.9 	"/>
	<polyline fill="none" stroke="#007F00" stroke-linecap="round" stroke-linejoin="round" points="255.3,653.8 241.1,653.8 
		241.1,639.6 255.3,639.6 	"/>
	<polyline fill="none" stroke="#007F00" stroke-linecap="round" stroke-linejoin="round" points="255.3,682.1 241.1,682.1 
		241.1,668 255.3,668 	"/>
	<polyline fill="none" stroke="#007F00" stroke-linecap="round" stroke-linejoin="round" points="241.1,710.5 241.1,696.3 
		255.3,696.3 	"/>
	<polyline fill="none" stroke="#007F00" stroke-linecap="round" stroke-linejoin="round" points="71,554.6 71,568.8 56.9,568.8 
		56.9,582.9 71,582.9 71,597.1 56.9,597.1 56.9,609.9 71,609.9 71,626.9 56.9,626.9 56.9,639.6 71,639.6 71,653.8 56.9,653.8 
		56.9,668 71,668 71,682.1 56.9,682.1 56.9,696.3 71,696.3 71,710.5 	"/>
	<polyline fill="none" stroke="#007F00" stroke-linecap="round" stroke-linejoin="round" points="255.3,101 241.1,101 241.1,86.9 
		71,86.9 71,101 56.9,101 56.9,115.2 71,115.2 71,129.4 56.9,129.4 56.9,143.6 71,143.6 71,157.7 56.9,157.7 56.9,170.5 71,170.5 
		71,187.5 56.9,187.5 56.9,200.3 71,200.3 71,214.4 56.9,214.4 56.9,228.6 71,228.6 71,242.8 	"/>
	<polyline fill="none" stroke="#007F00" stroke-linecap="round" stroke-linejoin="round" points="255.3,129.4 241.1,129.4 
		241.1,115.2 255.3,115.2 	"/>
	<polyline fill="none" stroke="#007F00" stroke-linecap="round" stroke-linejoin="round" points="255.3,157.7 241.1,157.7 
		241.1,143.6 255.3,143.6 	"/>
	<polyline fill="none" stroke="#007F00" stroke-linecap="round" stroke-linejoin="round" points="255.3,187.5 241.1,187.5 
		241.1,170.5 255.3,170.5 	"/>
	<polyline fill="none" stroke="#007F00" stroke-linecap="round" stroke-linejoin="round" points="255.3,214.4 241.1,214.4 
		241.1,200.3 255.3,200.3 	"/>
	<polyline fill="none" stroke="#007F00" stroke-linecap="round" stroke-linejoin="round" points="241.1,242.8 241.1,228.6 
		255.3,228.6 	"/>
</g>
<circle fill="none" stroke="#007F00" stroke-linecap="round" stroke-linejoin="round" cx="156.1" cy="710.5" r="28.3"/>
<circle fill="none" stroke="#007F00" stroke-linecap="round" stroke-linejoin="round" cx="354.5" cy="710.5" r="28.3"/>
<circle fill="none" stroke="#007F00" stroke-linecap="round" stroke-linejoin="round" cx="552.9" cy="710.5" r="28.3"/>
<circle fill="none" stroke="#007F00" stroke-linecap="round" stroke-linejoin="round" cx="751.3" cy="710.5" r="28.3"/>
<circle fill="none" stroke="#007F00" stroke-linecap="round" stroke-linejoin="round" cx="949.8" cy="710.5" r="28.3"/>
<circle fill="none" stroke="#007F00" stroke-linecap="round" stroke-linejoin="round" cx="1148.2" cy="710.5" r="28.3"/>
<circle fill="none" stroke="#007F00" stroke-linecap="round" stroke-linejoin="round" cx="1346.6" cy="710.5" r="28.3"/>
<circle fill="none" stroke="#007F00" stroke-linecap="round" stroke-linejoin="round" cx="1545" cy="710.5" r="28.3"/>
<line fill="none" stroke="#000000" stroke-linecap="round" stroke-linejoin="round" x1="120.6" y1="405.5" x2="106.5" y2="405.5"/>
<line fill="none" stroke="#000000" stroke-linecap="round" stroke-linejoin="round" x1="205.7" y1="405.5" x2="191.5" y2="405.5"/>
<line fill="none" stroke="#000000" stroke-linecap="round" stroke-linejoin="round" x1="205.7" y1="391.3" x2="205.7" y2="405.5"/>
<line fill="none" stroke="#000000" stroke-linecap="round" stroke-linejoin="round" x1="191.5" y1="391.3" x2="191.5" y2="405.5"/>
<line fill="none" stroke="#000000" stroke-linecap="round" stroke-linejoin="round" x1="205.7" y1="391.3" x2="191.5" y2="391.3"/>
<line fill="none" stroke="#000000" stroke-linecap="round" stroke-linejoin="round" x1="120.6" y1="391.3" x2="120.6" y2="405.5"/>
<line fill="none" stroke="#000000" stroke-linecap="round" stroke-linejoin="round" x1="106.5" y1="405.5" x2="106.5" y2="391.3"/>
<line fill="none" stroke="#000000" stroke-linecap="round" stroke-linejoin="round" x1="120.6" y1="391.3" x2="106.5" y2="391.3"/>
<line fill="none" stroke="#000000" stroke-linecap="round" stroke-linejoin="round" x1="319.1" y1="405.5" x2="304.9" y2="405.5"/>
<line fill="none" stroke="#000000" stroke-linecap="round" stroke-linejoin="round" x1="404.1" y1="405.5" x2="389.9" y2="405.5"/>
<line fill="none" stroke="#000000" stroke-linecap="round" stroke-linejoin="round" x1="404.1" y1="391.3" x2="404.1" y2="405.5"/>
<line fill="none" stroke="#000000" stroke-linecap="round" stroke-linejoin="round" x1="389.9" y1="391.3" x2="389.9" y2="405.5"/>
<line fill="none" stroke="#000000" stroke-linecap="round" stroke-linejoin="round" x1="404.1" y1="391.3" x2="389.9" y2="391.3"/>
<line fill="none" stroke="#000000" stroke-linecap="round" stroke-linejoin="round" x1="319.1" y1="391.3" x2="319.1" y2="405.5"/>
<line fill="none" stroke="#000000" stroke-linecap="round" stroke-linejoin="round" x1="304.9" y1="405.5" x2="304.9" y2="391.3"/>
<line fill="none" stroke="#000000" stroke-linecap="round" stroke-linejoin="round" x1="319.1" y1="391.3" x2="304.9" y2="391.3"/>
<line fill="none" stroke="#000000" stroke-linecap="round" stroke-linejoin="round" x1="517.5" y1="405.5" x2="503.3" y2="405.5"/>
<line fill="none" stroke="#000000" stroke-linecap="round" stroke-linejoin="round" x1="602.5" y1="405.5" x2="588.4" y2="405.5"/>
<line fill="none" stroke="#000000" stroke-linecap="round" stroke-linejoin="round" x1="602.5" y1="391.3" x2="602.5" y2="405.5"/>
<line fill="none" stroke="#000000" stroke-linecap="round" stroke-linejoin="round" x1="588.4" y1="391.3" x2="588.4" y2="405.5"/>
<line fill="none" stroke="#000000" stroke-linecap="round" stroke-linejoin="round" x1="602.5" y1="391.3" x2="588.4" y2="391.3"/>
<line fill="none" stroke="#000000" stroke-linecap="round" stroke-linejoin="round" x1="517.5" y1="391.3" x2="517.5" y2="405.5"/>
<line fill="none" stroke="#000000" stroke-linecap="round" stroke-linejoin="round" x1="503.3" y1="405.5" x2="503.3" y2="391.3"/>
<line fill="none" stroke="#000000" stroke-linecap="round" stroke-linejoin="round" x1="517.5" y1="391.3" x2="503.3" y2="391.3"/>
<line fill="none" stroke="#000000" stroke-linecap="round" stroke-linejoin="round" x1="715.9" y1="405.5" x2="701.7" y2="405.5"/>
<line fill="none" stroke="#000000" stroke-linecap="round" stroke-linejoin="round" x1="800.9" y1="405.5" x2="786.8" y2="405.5"/>
<line fill="none" stroke="#000000" stroke-linecap="round" stroke-linejoin="round" x1="800.9" y1="391.3" x2="800.9" y2="405.5"/>
<line fill="none" stroke="#000000" stroke-linecap="round" stroke-linejoin="round" x1="786.8" y1="391.3" x2="786.8" y2="405.5"/>
<line fill="none" stroke="#000000" stroke-linecap="round" stroke-linejoin="round" x1="800.9" y1="391.3" x2="786.8" y2="391.3"/>
<line fill="none" stroke="#000000" stroke-linecap="round" stroke-linejoin="round" x1="715.9" y1="391.3" x2="715.9" y2="405.5"/>
<line fill="none" stroke="#000000" stroke-linecap="round" stroke-linejoin="round" x1="701.7" y1="405.5" x2="701.7" y2="391.3"/>
<line fill="none" stroke="#000000" stroke-linecap="round" stroke-linejoin="round" x1="715.9" y1="391.3" x2="701.7" y2="391.3"/>
<line fill="none" stroke="#000000" stroke-linecap="round" stroke-linejoin="round" x1="914.3" y1="405.5" x2="900.2" y2="405.5"/>
<line fill="none" stroke="#000000" stroke-linecap="round" stroke-linejoin="round" x1="999.4" y1="405.5" x2="985.2" y2="405.5"/>
<line fill="none" stroke="#000000" stroke-linecap="round" stroke-linejoin="round" x1="999.4" y1="391.3" x2="999.4" y2="405.5"/>
<line fill="none" stroke="#000000" stroke-linecap="round" stroke-linejoin="round" x1="985.2" y1="391.3" x2="985.2" y2="405.5"/>
<line fill="none" stroke="#000000" stroke-linecap="round" stroke-linejoin="round" x1="999.4" y1="391.3" x2="985.2" y2="391.3"/>
<line fill="none" stroke="#000000" stroke-linecap="round" stroke-linejoin="round" x1="914.3" y1="391.3" x2="914.3" y2="405.5"/>
<line fill="none" stroke="#000000" stroke-linecap="round" stroke-linejoin="round" x1="900.2" y1="405.5" x2="900.2" y2="391.3"/>
<line fill="none" stroke="#000000" stroke-linecap="round" stroke-linejoin="round" x1="914.3" y1="391.3" x2="900.2" y2="391.3"/>
<line fill="none" stroke="#000000" stroke-linecap="round" stroke-linejoin="round" x1="1112.8" y1="405.5" x2="1098.6" y2="405.5"/>
<line fill="none" stroke="#000000" stroke-linecap="round" stroke-linejoin="round" x1="1197.8" y1="405.5" x2="1183.6" y2="405.5"/>
<line fill="none" stroke="#000000" stroke-linecap="round" stroke-linejoin="round" x1="1197.8" y1="391.3" x2="1197.8" y2="405.5"/>
<line fill="none" stroke="#000000" stroke-linecap="round" stroke-linejoin="round" x1="1183.6" y1="391.3" x2="1183.6" y2="405.5"/>
<line fill="none" stroke="#000000" stroke-linecap="round" stroke-linejoin="round" x1="1197.8" y1="391.3" x2="1183.6" y2="391.3"/>
<line fill="none" stroke="#000000" stroke-linecap="round" stroke-linejoin="round" x1="1112.8" y1="391.3" x2="1112.8" y2="405.5"/>
<line fill="none" stroke="#000000" stroke-linecap="round" stroke-linejoin="round" x1="1098.6" y1="405.5" x2="1098.6" y2="391.3"/>
<line fill="none" stroke="#000000" stroke-linecap="round" stroke-linejoin="round" x1="1112.8" y1="391.3" x2="1098.6" y2="391.3"/>
<line fill="none" stroke="#000000" stroke-linecap="round" stroke-linejoin="round" x1="1311.2" y1="405.5" x2="1297" y2="405.5"/>
<line fill="none" stroke="#000000" stroke-linecap="round" stroke-linejoin="round" x1="1396.2" y1="405.5" x2="1382.1" y2="405.5"/>
<line fill="none" stroke="#000000" stroke-linecap="round" stroke-linejoin="round" x1="1396.2" y1="391.3" x2="1396.2" y2="405.5"/>
<line fill="none" stroke="#000000" stroke-linecap="round" stroke-linejoin="round" x1="1382.1" y1="391.3" x2="1382.1" y2="405.5"/>
<line fill="none" stroke="#000000" stroke-linecap="round" stroke-linejoin="round" x1="1396.2" y1="391.3" x2="1382.1" y2="391.3"/>
<line fill="none" stroke="#000000" stroke-linecap="round" stroke-linejoin="round" x1="1311.2" y1="391.3" x2="1311.2" y2="405.5"/>
<line fill="none" stroke="#000000" stroke-linecap="round" stroke-linejoin="round" x1="1297" y1="405.5" x2="1297" y2="391.3"/>
<line fill="none" stroke="#000000" stroke-linecap="round" stroke-linejoin="round" x1="1311.2" y1="391.3" x2="1297" y2="391.3"/>
<line fill="none" stroke="#000000" stroke-linecap="round" stroke-linejoin="round" x1="1509.6" y1="405.5" x2="1495.4" y2="405.5"/>
<line fill="none" stroke="#000000" stroke-linecap="round" stroke-linejoin="round" x1="1594.6" y1="405.5" x2="1580.5" y2="405.5"/>
<line fill="none" stroke="#000000" stroke-linecap="round" stroke-linejoin="round" x1="1594.6" y1="391.3" x2="1594.6" y2="405.5"/>
<line fill="none" stroke="#000000" stroke-linecap="round" stroke-linejoin="round" x1="1580.5" y1="391.3" x2="1580.5" y2="405.5"/>
<line fill="none" stroke="#000000" stroke-linecap="round" stroke-linejoin="round" x1="1594.6" y1="391.3" x2="1580.5" y2="391.3"/>
<line fill="none" stroke="#000000" stroke-linecap="round" stroke-linejoin="round" x1="1509.6" y1="391.3" x2="1509.6" y2="405.5"/>
<line fill="none" stroke="#000000" stroke-linecap="round" stroke-linejoin="round" x1="1495.4" y1="405.5" x2="1495.4" y2="391.3"/>
<line fill="none" stroke="#000000" stroke-linecap="round" stroke-linejoin="round" x1="1509.6" y1="391.3" x2="1495.4" y2="391.3"/>
<line fill="none" stroke="#000000" stroke-linecap="round" stroke-linejoin="round" x1="120.6" y1="1029.4" x2="106.5" y2="1029.4"/>
<line fill="none" stroke="#000000" stroke-linecap="round" stroke-linejoin="round" x1="205.7" y1="1029.4" x2="191.5" y2="1029.4"/>
<line fill="none" stroke="#000000" stroke-linecap="round" stroke-linejoin="round" x1="205.7" y1="1015.2" x2="205.7" y2="1029.4"/>
<line fill="none" stroke="#000000" stroke-linecap="round" stroke-linejoin="round" x1="191.5" y1="1015.2" x2="191.5" y2="1029.4"/>
<line fill="none" stroke="#000000" stroke-linecap="round" stroke-linejoin="round" x1="205.7" y1="1015.2" x2="191.5" y2="1015.2"/>
<line fill="none" stroke="#000000" stroke-linecap="round" stroke-linejoin="round" x1="120.6" y1="1015.2" x2="120.6" y2="1029.4"/>
<line fill="none" stroke="#000000" stroke-linecap="round" stroke-linejoin="round" x1="106.5" y1="1029.4" x2="106.5" y2="1015.2"/>
<line fill="none" stroke="#000000" stroke-linecap="round" stroke-linejoin="round" x1="120.6" y1="1015.2" x2="106.5" y2="1015.2"/>
<line fill="none" stroke="#000000" stroke-linecap="round" stroke-linejoin="round" x1="319.1" y1="1029.4" x2="304.9" y2="1029.4"/>
<line fill="none" stroke="#000000" stroke-linecap="round" stroke-linejoin="round" x1="404.1" y1="1029.4" x2="389.9" y2="1029.4"/>
<line fill="none" stroke="#000000" stroke-linecap="round" stroke-linejoin="round" x1="404.1" y1="1015.2" x2="404.1" y2="1029.4"/>
<line fill="none" stroke="#000000" stroke-linecap="round" stroke-linejoin="round" x1="389.9" y1="1015.2" x2="389.9" y2="1029.4"/>
<line fill="none" stroke="#000000" stroke-linecap="round" stroke-linejoin="round" x1="404.1" y1="1015.2" x2="389.9" y2="1015.2"/>
<line fill="none" stroke="#000000" stroke-linecap="round" stroke-linejoin="round" x1="319.1" y1="1015.2" x2="319.1" y2="1029.4"/>
<line fill="none" stroke="#000000" stroke-linecap="round" stroke-linejoin="round" x1="304.9" y1="1029.4" x2="304.9" y2="1015.2"/>
<line fill="none" stroke="#000000" stroke-linecap="round" stroke-linejoin="round" x1="319.1" y1="1015.2" x2="304.9" y2="1015.2"/>
<line fill="none" stroke="#000000" stroke-linecap="round" stroke-linejoin="round" x1="517.5" y1="1029.4" x2="503.3" y2="1029.4"/>
<line fill="none" stroke="#000000" stroke-linecap="round" stroke-linejoin="round" x1="602.5" y1="1029.4" x2="588.4" y2="1029.4"/>
<line fill="none" stroke="#000000" stroke-linecap="round" stroke-linejoin="round" x1="602.5" y1="1015.2" x2="602.5" y2="1029.4"/>
<line fill="none" stroke="#000000" stroke-linecap="round" stroke-linejoin="round" x1="588.4" y1="1015.2" x2="588.4" y2="1029.4"/>
<line fill="none" stroke="#000000" stroke-linecap="round" stroke-linejoin="round" x1="602.5" y1="1015.2" x2="588.4" y2="1015.2"/>
<line fill="none" stroke="#000000" stroke-linecap="round" stroke-linejoin="round" x1="517.5" y1="1015.2" x2="517.5" y2="1029.4"/>
<line fill="none" stroke="#000000" stroke-linecap="round" stroke-linejoin="round" x1="503.3" y1="1029.4" x2="503.3" y2="1015.2"/>
<line fill="none" stroke="#000000" stroke-linecap="round" stroke-linejoin="round" x1="517.5" y1="1015.2" x2="503.3" y2="1015.2"/>
<line fill="none" stroke="#000000" stroke-linecap="round" stroke-linejoin="round" x1="715.9" y1="1029.4" x2="701.7" y2="1029.4"/>
<line fill="none" stroke="#000000" stroke-linecap="round" stroke-linejoin="round" x1="800.9" y1="1029.4" x2="786.8" y2="1029.4"/>
<line fill="none" stroke="#000000" stroke-linecap="round" stroke-linejoin="round" x1="800.9" y1="1015.2" x2="800.9" y2="1029.4"/>
<line fill="none" stroke="#000000" stroke-linecap="round" stroke-linejoin="round" x1="786.8" y1="1015.2" x2="786.8" y2="1029.4"/>
<line fill="none" stroke="#000000" stroke-linecap="round" stroke-linejoin="round" x1="800.9" y1="1015.2" x2="786.8" y2="1015.2"/>
<line fill="none" stroke="#000000" stroke-linecap="round" stroke-linejoin="round" x1="715.9" y1="1015.2" x2="715.9" y2="1029.4"/>
<line fill="none" stroke="#000000" stroke-linecap="round" stroke-linejoin="round" x1="701.7" y1="1029.4" x2="701.7" y2="1015.2"/>
<line fill="none" stroke="#000000" stroke-linecap="round" stroke-linejoin="round" x1="715.9" y1="1015.2" x2="701.7" y2="1015.2"/>
<line fill="none" stroke="#000000" stroke-linecap="round" stroke-linejoin="round" x1="914.3" y1="1029.4" x2="900.2" y2="1029.4"/>
<line fill="none" stroke="#000000" stroke-linecap="round" stroke-linejoin="round" x1="999.4" y1="1029.4" x2="985.2" y2="1029.4"/>
<line fill="none" stroke="#000000" stroke-linecap="round" stroke-linejoin="round" x1="999.4" y1="1015.2" x2="999.4" y2="1029.4"/>
<line fill="none" stroke="#000000" stroke-linecap="round" stroke-linejoin="round" x1="985.2" y1="1015.2" x2="985.2" y2="1029.4"/>
<line fill="none" stroke="#000000" stroke-linecap="round" stroke-linejoin="round" x1="999.4" y1="1015.2" x2="985.2" y2="1015.2"/>
<line fill="none" stroke="#000000" stroke-linecap="round" stroke-linejoin="round" x1="914.3" y1="1015.2" x2="914.3" y2="1029.4"/>
<line fill="none" stroke="#000000" stroke-linecap="round" stroke-linejoin="round" x1="900.2" y1="1029.4" x2="900.2" y2="1015.2"/>
<line fill="none" stroke="#000000" stroke-linecap="round" stroke-linejoin="round" x1="914.3" y1="1015.2" x2="900.2" y2="1015.2"/>
<line fill="none" stroke="#000000" stroke-linecap="round" stroke-linejoin="round" x1="1112.8" y1="1029.4" x2="1098.6" y2="1029.4"/>
<line fill="none" stroke="#000000" stroke-linecap="round" stroke-linejoin="round" x1="1197.8" y1="1029.4" x2="1183.6" y2="1029.4"/>
<line fill="none" stroke="#000000" stroke-linecap="round" stroke-linejoin="round" x1="1197.8" y1="1015.2" x2="1197.8" y2="1029.4"/>
<line fill="none" stroke="#000000" stroke-linecap="round" stroke-linejoin="round" x1="1183.6" y1="1015.2" x2="1183.6" y2="1029.4"/>
<line fill="none" stroke="#000000" stroke-linecap="round" stroke-linejoin="round" x1="1197.8" y1="1015.2" x2="1183.6" y2="1015.2"/>
<line fill="none" stroke="#000000" stroke-linecap="round" stroke-linejoin="round" x1="1112.8" y1="1015.2" x2="1112.8" y2="1029.4"/>
<line fill="none" stroke="#000000" stroke-linecap="round" stroke-linejoin="round" x1="1098.6" y1="1029.4" x2="1098.6" y2="1015.2"/>
<line fill="none" stroke="#000000" stroke-linecap="round" stroke-linejoin="round" x1="1112.8" y1="1015.2" x2="1098.6" y2="1015.2"/>
<line fill="none" stroke="#000000" stroke-linecap="round" stroke-linejoin="round" x1="1311.2" y1="1029.4" x2="1297" y2="1029.4"/>
<line fill="none" stroke="#000000" stroke-linecap="round" stroke-linejoin="round" x1="1396.2" y1="1029.4" x2="1382.1" y2="1029.4"/>
<line fill="none" stroke="#000000" stroke-linecap="round" stroke-linejoin="round" x1="1396.2" y1="1015.2" x2="1396.2" y2="1029.4"/>
<line fill="none" stroke="#000000" stroke-linecap="round" stroke-linejoin="round" x1="1382.1" y1="1015.2" x2="1382.1" y2="1029.4"/>
<line fill="none" stroke="#000000" stroke-linecap="round" stroke-linejoin="round" x1="1396.2" y1="1015.2" x2="1382.1" y2="1015.2"/>
<line fill="none" stroke="#000000" stroke-linecap="round" stroke-linejoin="round" x1="1311.2" y1="1015.2" x2="1311.2" y2="1029.4"/>
<line fill="none" stroke="#000000" stroke-linecap="round" stroke-linejoin="round" x1="1297" y1="1029.4" x2="1297" y2="1015.2"/>
<line fill="none" stroke="#000000" stroke-linecap="round" stroke-linejoin="round" x1="1311.2" y1="1015.2" x2="1297" y2="1015.2"/>
<line fill="none" stroke="#000000" stroke-linecap="round" stroke-linejoin="round" x1="1509.6" y1="1029.4" x2="1495.4" y2="1029.4"/>
<line fill="none" stroke="#000000" stroke-linecap="round" stroke-linejoin="round" x1="1594.6" y1="1029.4" x2="1580.5" y2="1029.4"/>
<line fill="none" stroke="#000000" stroke-linecap="round" stroke-linejoin="round" x1="1594.6" y1="1015.2" x2="1594.6" y2="1029.4"/>
<line fill="none" stroke="#000000" stroke-linecap="round" stroke-linejoin="round" x1="1580.5" y1="1015.2" x2="1580.5" y2="1029.4"/>
<line fill="none" stroke="#000000" stroke-linecap="round" stroke-linejoin="round" x1="1594.6" y1="1015.2" x2="1580.5" y2="1015.2"/>
<line fill="none" stroke="#000000" stroke-linecap="round" stroke-linejoin="round" x1="1509.6" y1="1015.2" x2="1509.6" y2="1029.4"/>
<line fill="none" stroke="#000000" stroke-linecap="round" stroke-linejoin="round" x1="1495.4" y1="1029.4" x2="1495.4" y2="1015.2"/>
<line fill="none" stroke="#000000" stroke-linecap="round" stroke-linejoin="round" x1="1509.6" y1="1015.2" x2="1495.4" y2="1015.2"/>
</svg>
