<?xml version="1.0" encoding="utf-8"?>
<!-- Generator: Adobe Illustrator 18.1.0, SVG Export Plug-In . SVG Version: 6.00 Build 0)  -->
<svg version="1.1" id="Layer_1" xmlns="http://www.w3.org/2000/svg" xmlns:xlink="http://www.w3.org/1999/xlink" x="0px" y="0px"
	 viewBox="0 0 1700.8 1417.3" enable-background="new 0 0 1700.8 1417.3" xml:space="preserve">
<g>
	<polygon fill="none" stroke="#007F00" stroke-linecap="round" stroke-linejoin="round" points="141.9,595.1 141.9,573.8 
		163.1,573.8 163.1,559.6 141.8,559.6 141.9,538.4 275.1,538.4 275.1,552.6 289.3,552.6 289.3,538.4 450.8,538.4 450.8,552.6 
		465,552.6 465,538.4 626.6,538.4 626.6,552.6 640.7,552.6 640.7,538.4 802.3,538.4 802.3,552.6 816.5,552.6 816.5,538.4 
		935.6,538.4 935.5,559.6 914.3,559.6 914.3,573.8 935.6,573.8 935.6,595.1 816.5,595.1 816.5,580.9 802.3,580.9 802.3,595.1 
		640.7,595.1 640.7,580.9 626.6,580.9 626.6,595.1 465,595.1 465,580.9 450.8,580.9 450.8,595.1 289.3,595.1 289.3,580.9 
		275.1,580.9 275.1,595.1 	"/>
	<g>
		<polyline fill="none" stroke="#007F00" stroke-linecap="round" stroke-linejoin="round" points="289.3,538.4 289.3,524.2 
			275.1,524.2 275.1,538.4 		"/>
		<polyline fill="none" stroke="#007F00" stroke-linecap="round" stroke-linejoin="round" points="465,538.4 465,524.2 450.8,524.2 
			450.8,538.4 		"/>
		<polyline fill="none" stroke="#007F00" stroke-linecap="round" stroke-linejoin="round" points="640.7,538.4 640.7,524.2 
			626.6,524.2 626.6,538.4 		"/>
		<polyline fill="none" stroke="#007F00" stroke-linecap="round" stroke-linejoin="round" points="816.5,538.4 816.5,524.2 
			802.3,524.2 802.3,538.4 		"/>
		<polyline fill="none" stroke="#007F00" stroke-linecap="round" stroke-linejoin="round" points="141.9,538.4 141.9,517.1 
			163.1,517.1 163.1,502.9 141.8,502.9 141.9,481.7 275.1,481.7 275.1,495.9 289.3,495.9 289.3,481.7 450.8,481.7 450.8,495.9 
			465,495.9 465,481.7 626.6,481.7 626.6,495.9 640.7,495.9 640.7,481.7 802.3,481.7 802.3,495.9 816.5,495.9 816.5,481.7 
			935.6,481.7 935.5,502.9 914.3,502.9 914.3,517.1 935.6,517.1 935.6,538.4 		"/>
	</g>
	<g>
		<polyline fill="none" stroke="#007F00" stroke-linecap="round" stroke-linejoin="round" points="289.3,481.7 289.3,467.5 
			275.1,467.5 275.1,481.7 		"/>
		<polyline fill="none" stroke="#007F00" stroke-linecap="round" stroke-linejoin="round" points="465,481.7 465,467.5 450.8,467.5 
			450.8,481.7 		"/>
		<polyline fill="none" stroke="#007F00" stroke-linecap="round" stroke-linejoin="round" points="640.7,481.7 640.7,467.5 
			626.6,467.5 626.6,481.7 		"/>
		<polyline fill="none" stroke="#007F00" stroke-linecap="round" stroke-linejoin="round" points="816.5,481.7 816.5,467.5 
			802.3,467.5 802.3,481.7 		"/>
		<polyline fill="none" stroke="#007F00" stroke-linecap="round" stroke-linejoin="round" points="141.9,481.7 141.9,460.4 
			163.1,460.4 163.1,446.3 141.8,446.3 141.9,425 275.1,425 275.1,439.2 289.3,439.2 289.3,425 450.8,425 450.8,439.2 465,439.2 
			465,425 626.6,425 626.6,439.2 640.7,439.2 640.7,425 802.3,425 802.3,439.2 816.5,439.2 816.5,425 935.6,425 935.5,446.3 
			914.3,446.3 914.3,460.4 935.6,460.4 935.6,481.7 		"/>
	</g>
	<g>
		<polyline fill="none" stroke="#007F00" stroke-linecap="round" stroke-linejoin="round" points="289.3,425 289.3,410.8 
			275.1,410.8 275.1,425 		"/>
		<polyline fill="none" stroke="#007F00" stroke-linecap="round" stroke-linejoin="round" points="465,425 465,410.8 450.8,410.8 
			450.8,425 		"/>
		<polyline fill="none" stroke="#007F00" stroke-linecap="round" stroke-linejoin="round" points="640.7,425 640.7,410.8 
			626.6,410.8 626.6,425 		"/>
		<polyline fill="none" stroke="#007F00" stroke-linecap="round" stroke-linejoin="round" points="816.5,425 816.5,410.8 
			802.3,410.8 802.3,425 		"/>
		<polyline fill="none" stroke="#007F00" stroke-linecap="round" stroke-linejoin="round" points="141.9,425 141.9,403.7 
			163.1,403.7 163.1,389.6 141.8,389.6 141.9,368.3 275.1,368.3 275.1,382.5 289.3,382.5 289.3,368.3 450.8,368.3 450.8,382.5 
			465,382.5 465,368.3 626.6,368.3 626.6,382.5 640.7,382.5 640.7,368.3 802.3,368.3 802.3,382.5 816.5,382.5 816.5,368.3 
			935.6,368.3 935.5,389.6 914.3,389.6 914.3,403.7 935.6,403.7 935.6,425 		"/>
	</g>
	<g>
		<polyline fill="none" stroke="#007F00" stroke-linecap="round" stroke-linejoin="round" points="289.3,368.3 289.3,354.1 
			275.1,354.1 275.1,368.3 		"/>
		<polyline fill="none" stroke="#007F00" stroke-linecap="round" stroke-linejoin="round" points="465,368.3 465,354.1 450.8,354.1 
			450.8,368.3 		"/>
		<polyline fill="none" stroke="#007F00" stroke-linecap="round" stroke-linejoin="round" points="640.7,368.3 640.7,354.1 
			626.6,354.1 626.6,368.3 		"/>
		<polyline fill="none" stroke="#007F00" stroke-linecap="round" stroke-linejoin="round" points="816.5,368.3 816.5,354.1 
			802.3,354.1 802.3,368.3 		"/>
		<polyline fill="none" stroke="#007F00" stroke-linecap="round" stroke-linejoin="round" points="141.9,368.3 141.9,347 163.1,347 
			163.1,332.9 141.8,332.9 141.9,311.6 275.1,311.6 275.1,325.8 289.3,325.8 289.3,311.6 450.8,311.6 450.8,325.8 465,325.8 
			465,311.6 626.6,311.6 626.6,325.8 640.7,325.8 640.7,311.6 802.3,311.6 802.3,325.8 816.5,325.8 816.5,311.6 935.6,311.6 
			935.5,332.9 914.3,332.9 914.3,347 935.6,347 935.6,368.3 		"/>
	</g>
	<g>
		<polyline fill="none" stroke="#007F00" stroke-linecap="round" stroke-linejoin="round" points="289.3,311.6 289.3,297.4 
			275.1,297.4 275.1,311.6 		"/>
		<polyline fill="none" stroke="#007F00" stroke-linecap="round" stroke-linejoin="round" points="465,311.6 465,297.4 450.8,297.4 
			450.8,311.6 		"/>
		<polyline fill="none" stroke="#007F00" stroke-linecap="round" stroke-linejoin="round" points="640.7,311.6 640.7,297.4 
			626.6,297.4 626.6,311.6 		"/>
		<polyline fill="none" stroke="#007F00" stroke-linecap="round" stroke-linejoin="round" points="816.5,311.6 816.5,297.4 
			802.3,297.4 802.3,311.6 		"/>
		<polyline fill="none" stroke="#007F00" stroke-linecap="round" stroke-linejoin="round" points="141.9,311.6 141.9,290.3 
			163.1,290.3 163.1,276.2 141.8,276.2 141.9,254.9 275.1,254.9 275.1,269.1 289.3,269.1 289.3,254.9 450.8,254.9 450.8,269.1 
			465,269.1 465,254.9 626.6,254.9 626.6,269.1 640.7,269.1 640.7,254.9 802.3,254.9 802.3,269.1 816.5,269.1 816.5,254.9 
			935.6,254.9 935.5,276.2 914.3,276.2 914.3,290.3 935.6,290.3 935.6,311.6 		"/>
	</g>
	<g>
		<polyline fill="none" stroke="#007F00" stroke-linecap="round" stroke-linejoin="round" points="289.3,254.9 289.3,240.7 
			275.1,240.7 275.1,254.9 		"/>
		<polyline fill="none" stroke="#007F00" stroke-linecap="round" stroke-linejoin="round" points="465,254.9 465,240.7 450.8,240.7 
			450.8,254.9 		"/>
		<polyline fill="none" stroke="#007F00" stroke-linecap="round" stroke-linejoin="round" points="640.7,254.9 640.7,240.7 
			626.6,240.7 626.6,254.9 		"/>
		<polyline fill="none" stroke="#007F00" stroke-linecap="round" stroke-linejoin="round" points="816.5,254.9 816.5,240.7 
			802.3,240.7 802.3,254.9 		"/>
		<polyline fill="none" stroke="#007F00" stroke-linecap="round" stroke-linejoin="round" points="141.9,254.9 141.9,233.7 
			163.1,233.7 163.1,219.5 141.8,219.5 141.9,198.2 275.1,198.2 275.1,212.4 289.3,212.4 289.3,198.2 450.8,198.2 450.8,212.4 
			465,212.4 465,198.2 626.6,198.2 626.6,212.4 640.7,212.4 640.7,198.2 802.3,198.2 802.3,212.4 816.5,212.4 816.5,198.2 
			935.6,198.2 935.5,219.5 914.3,219.5 914.3,233.7 935.6,233.7 935.6,254.9 		"/>
	</g>
	<g>
		<polyline fill="none" stroke="#007F00" stroke-linecap="round" stroke-linejoin="round" points="289.3,198.2 289.3,184 275.1,184 
			275.1,198.2 		"/>
		<polyline fill="none" stroke="#007F00" stroke-linecap="round" stroke-linejoin="round" points="465,198.2 465,184 450.8,184 
			450.8,198.2 		"/>
		<polyline fill="none" stroke="#007F00" stroke-linecap="round" stroke-linejoin="round" points="640.7,198.2 640.7,184 626.6,184 
			626.6,198.2 		"/>
		<polyline fill="none" stroke="#007F00" stroke-linecap="round" stroke-linejoin="round" points="816.5,198.2 816.5,184 802.3,184 
			802.3,198.2 		"/>
		<polyline fill="none" stroke="#007F00" stroke-linecap="round" stroke-linejoin="round" points="141.9,198.2 141.9,177 163.1,177 
			163.1,162.8 141.8,162.8 141.9,141.5 275.1,141.5 275.1,155.7 289.3,155.7 289.3,141.5 450.8,141.5 450.8,155.7 465,155.7 
			465,141.5 626.6,141.5 626.6,155.7 640.7,155.7 640.7,141.5 802.3,141.5 802.3,155.7 816.5,155.7 816.5,141.5 935.6,141.5 
			935.5,162.8 914.3,162.8 914.3,177 935.6,177 935.6,198.2 		"/>
	</g>
	<g>
		<polyline fill="none" stroke="#007F00" stroke-linecap="round" stroke-linejoin="round" points="289.3,141.5 289.3,127.4 
			275.1,127.4 275.1,141.5 		"/>
		<polyline fill="none" stroke="#007F00" stroke-linecap="round" stroke-linejoin="round" points="465,141.5 465,127.4 450.8,127.4 
			450.8,141.5 		"/>
		<polyline fill="none" stroke="#007F00" stroke-linecap="round" stroke-linejoin="round" points="640.7,141.5 640.7,127.4 
			626.6,127.4 626.6,141.5 		"/>
		<polyline fill="none" stroke="#007F00" stroke-linecap="round" stroke-linejoin="round" points="816.5,141.5 816.5,127.4 
			802.3,127.4 802.3,141.5 		"/>
		<polyline fill="none" stroke="#007F00" stroke-linecap="round" stroke-linejoin="round" points="141.9,141.5 141.9,120.3 
			163.1,120.3 163.1,106.1 141.8,106.1 141.9,84.8 275.1,84.8 275.1,99 289.3,99 289.3,84.8 450.8,84.8 450.8,99 465,99 465,84.8 
			626.6,84.8 626.6,99 640.7,99 640.7,84.8 802.3,84.8 802.3,99 816.5,99 816.5,84.8 935.6,84.8 935.5,106.1 914.3,106.1 
			914.3,120.3 935.6,120.3 935.6,141.5 		"/>
	</g>
	<g>
		<polyline fill="none" stroke="#007F00" stroke-linecap="round" stroke-linejoin="round" points="289.3,84.8 289.3,70.7 
			275.1,70.7 275.1,84.8 		"/>
		<polyline fill="none" stroke="#007F00" stroke-linecap="round" stroke-linejoin="round" points="465,84.8 465,70.7 450.8,70.7 
			450.8,84.8 		"/>
		<polyline fill="none" stroke="#007F00" stroke-linecap="round" stroke-linejoin="round" points="640.7,84.8 640.7,70.7 
			626.6,70.7 626.6,84.8 		"/>
		<polyline fill="none" stroke="#007F00" stroke-linecap="round" stroke-linejoin="round" points="816.5,84.8 816.5,70.7 
			802.3,70.7 802.3,84.8 		"/>
		<polyline fill="none" stroke="#007F00" stroke-linecap="round" stroke-linejoin="round" points="141.9,84.8 141.9,63.6 
			163.1,63.6 163.1,49.4 141.8,49.4 141.9,28.1 275.1,28.1 275.1,42.3 289.3,42.3 289.3,28.1 450.8,28.1 450.8,42.3 465,42.3 
			465,28.1 626.6,28.1 626.6,42.3 640.7,42.3 640.7,28.1 802.3,28.1 802.3,42.3 816.5,42.3 816.5,28.1 935.6,28.1 935.5,49.4 
			914.3,49.4 914.3,63.6 935.6,63.6 935.6,84.8 		"/>
	</g>
</g>
<g>
	<polyline fill="none" stroke="#007F00" stroke-linecap="round" stroke-linejoin="round" points="170.2,665.1 170.2,650.9 
		156,650.9 156,665.1 	"/>
	<polyline fill="none" stroke="#007F00" stroke-linecap="round" stroke-linejoin="round" points="467.8,665.1 467.8,650.9 
		453.6,650.9 453.6,665.1 	"/>
	<polyline fill="none" stroke="#007F00" stroke-linecap="round" stroke-linejoin="round" points="141.8,665.1 141.8,616.9 
		482,616.9 482,665.1 	"/>
</g>
<g>
	<polyline fill="none" stroke="#007F00" stroke-linecap="round" stroke-linejoin="round" points="170.2,713.3 170.2,699.1 
		156,699.1 156,713.3 	"/>
	<polyline fill="none" stroke="#007F00" stroke-linecap="round" stroke-linejoin="round" points="467.8,713.3 467.8,699.1 
		453.6,699.1 453.6,713.3 	"/>
	<polyline fill="none" stroke="#007F00" stroke-linecap="round" stroke-linejoin="round" points="141.8,713.3 141.8,665.1 
		482,665.1 482,713.3 	"/>
</g>
<g>
	<polyline fill="none" stroke="#007F00" stroke-linecap="round" stroke-linejoin="round" points="170.2,761.5 170.2,747.3 
		156,747.3 156,761.5 	"/>
	<polyline fill="none" stroke="#007F00" stroke-linecap="round" stroke-linejoin="round" points="467.8,761.5 467.8,747.3 
		453.6,747.3 453.6,761.5 	"/>
	<polyline fill="none" stroke="#007F00" stroke-linecap="round" stroke-linejoin="round" points="141.8,761.5 141.8,713.3 
		482,713.3 482,761.5 	"/>
</g>
<g>
	<polyline fill="none" stroke="#007F00" stroke-linecap="round" stroke-linejoin="round" points="170.2,809.7 170.2,795.5 
		156,795.5 156,809.7 	"/>
	<polyline fill="none" stroke="#007F00" stroke-linecap="round" stroke-linejoin="round" points="467.8,809.7 467.8,795.5 
		453.6,795.5 453.6,809.7 	"/>
	<polyline fill="none" stroke="#007F00" stroke-linecap="round" stroke-linejoin="round" points="141.8,809.7 141.8,761.5 
		482,761.5 482,809.7 	"/>
</g>
<g>
	<polyline fill="none" stroke="#007F00" stroke-linecap="round" stroke-linejoin="round" points="170.2,857.9 170.2,843.7 
		156,843.7 156,857.9 	"/>
	<polyline fill="none" stroke="#007F00" stroke-linecap="round" stroke-linejoin="round" points="467.8,857.9 467.8,843.7 
		453.6,843.7 453.6,857.9 	"/>
	<polyline fill="none" stroke="#007F00" stroke-linecap="round" stroke-linejoin="round" points="141.8,857.9 141.8,809.7 
		482,809.7 482,857.9 	"/>
</g>
<g>
	<polyline fill="none" stroke="#007F00" stroke-linecap="round" stroke-linejoin="round" points="170.2,906.1 170.2,891.9 
		156,891.9 156,906.1 	"/>
	<polyline fill="none" stroke="#007F00" stroke-linecap="round" stroke-linejoin="round" points="467.8,906.1 467.8,891.9 
		453.6,891.9 453.6,906.1 	"/>
	<polyline fill="none" stroke="#007F00" stroke-linecap="round" stroke-linejoin="round" points="141.8,906.1 141.8,857.9 
		482,857.9 482,906.1 	"/>
</g>
<g>
	<polyline fill="none" stroke="#007F00" stroke-linecap="round" stroke-linejoin="round" points="170.2,954.3 170.2,940.1 
		156,940.1 156,954.3 	"/>
	<polyline fill="none" stroke="#007F00" stroke-linecap="round" stroke-linejoin="round" points="467.8,954.3 467.8,940.1 
		453.6,940.1 453.6,954.3 	"/>
	<polyline fill="none" stroke="#007F00" stroke-linecap="round" stroke-linejoin="round" points="141.8,954.3 141.8,906.1 
		482,906.1 482,954.3 	"/>
</g>
<g>
	<polyline fill="none" stroke="#007F00" stroke-linecap="round" stroke-linejoin="round" points="170.2,1002.4 170.2,988.3 
		156,988.3 156,1002.4 	"/>
	<polyline fill="none" stroke="#007F00" stroke-linecap="round" stroke-linejoin="round" points="467.8,1002.4 467.8,988.3 
		453.6,988.3 453.6,1002.4 	"/>
	<polyline fill="none" stroke="#007F00" stroke-linecap="round" stroke-linejoin="round" points="141.8,1002.4 141.8,954.3 
		482,954.3 482,1002.4 	"/>
</g>
<g>
	<polyline fill="none" stroke="#007F00" stroke-linecap="round" stroke-linejoin="round" points="170.2,1050.6 170.2,1036.5 
		156,1036.5 156,1050.6 	"/>
	<polyline fill="none" stroke="#007F00" stroke-linecap="round" stroke-linejoin="round" points="467.8,1050.6 467.8,1036.5 
		453.6,1036.5 453.6,1050.6 	"/>
	<polyline fill="none" stroke="#007F00" stroke-linecap="round" stroke-linejoin="round" points="141.8,1050.6 141.8,1002.4 
		482,1002.4 482,1050.6 	"/>
</g>
<g>
	<polyline fill="none" stroke="#007F00" stroke-linecap="round" stroke-linejoin="round" points="170.2,1098.8 170.2,1084.6 
		156,1084.6 156,1098.8 	"/>
	<polyline fill="none" stroke="#007F00" stroke-linecap="round" stroke-linejoin="round" points="467.8,1098.8 467.8,1084.6 
		453.6,1084.6 453.6,1098.8 	"/>
	<polyline fill="none" stroke="#007F00" stroke-linecap="round" stroke-linejoin="round" points="141.8,1098.8 141.8,1050.6 
		482,1050.6 482,1098.8 	"/>
</g>
<g>
	<polyline fill="none" stroke="#007F00" stroke-linecap="round" stroke-linejoin="round" points="170.2,1147 170.2,1132.8 
		156,1132.8 156,1147 	"/>
	<polyline fill="none" stroke="#007F00" stroke-linecap="round" stroke-linejoin="round" points="467.8,1147 467.8,1132.8 
		453.6,1132.8 453.6,1147 	"/>
	<polyline fill="none" stroke="#007F00" stroke-linecap="round" stroke-linejoin="round" points="141.8,1147 141.8,1098.8 
		482,1098.8 482,1147 	"/>
</g>
<g>
	<polyline fill="none" stroke="#007F00" stroke-linecap="round" stroke-linejoin="round" points="170.2,1195.2 170.2,1181 156,1181 
		156,1195.2 	"/>
	<polyline fill="none" stroke="#007F00" stroke-linecap="round" stroke-linejoin="round" points="467.8,1195.2 467.8,1181 
		453.6,1181 453.6,1195.2 	"/>
	<polyline fill="none" stroke="#007F00" stroke-linecap="round" stroke-linejoin="round" points="141.8,1195.2 141.8,1147 482,1147 
		482,1195.2 	"/>
</g>
<g>
	<polyline fill="none" stroke="#007F00" stroke-linecap="round" stroke-linejoin="round" points="170.2,1243.4 170.2,1229.2 
		156,1229.2 156,1243.4 	"/>
	<polyline fill="none" stroke="#007F00" stroke-linecap="round" stroke-linejoin="round" points="467.8,1243.4 467.8,1229.2 
		453.6,1229.2 453.6,1243.4 	"/>
	<polyline fill="none" stroke="#007F00" stroke-linecap="round" stroke-linejoin="round" points="141.8,1243.4 141.8,1195.2 
		482,1195.2 482,1243.4 	"/>
</g>
<g>
	<polyline fill="none" stroke="#007F00" stroke-linecap="round" stroke-linejoin="round" points="170.2,1291.6 170.2,1277.4 
		156,1277.4 156,1291.6 	"/>
	<polyline fill="none" stroke="#007F00" stroke-linecap="round" stroke-linejoin="round" points="467.8,1291.6 467.8,1277.4 
		453.6,1277.4 453.6,1291.6 	"/>
	<polyline fill="none" stroke="#007F00" stroke-linecap="round" stroke-linejoin="round" points="141.8,1291.6 141.8,1243.4 
		482,1243.4 482,1291.6 	"/>
</g>
<g>
	<polyline fill="none" stroke="#007F00" stroke-linecap="round" stroke-linejoin="round" points="170.2,1339.8 170.2,1325.6 
		156,1325.6 156,1339.8 	"/>
	<polyline fill="none" stroke="#007F00" stroke-linecap="round" stroke-linejoin="round" points="467.8,1339.8 467.8,1325.6 
		453.6,1325.6 453.6,1339.8 	"/>
	<polyline fill="none" stroke="#007F00" stroke-linecap="round" stroke-linejoin="round" points="141.8,1339.8 141.8,1291.6 
		482,1291.6 482,1339.8 	"/>
</g>
<g>
	<polygon fill="none" stroke="#007F00" stroke-linecap="round" stroke-linejoin="round" points="482,1388 482,1339.8 141.8,1339.8 
		141.8,1388 156,1388 156,1373.8 170.2,1373.8 170.2,1388 453.6,1388 453.6,1373.8 467.8,1373.8 467.8,1388 	"/>
</g>
<g>
	<polyline fill="none" stroke="#007F00" stroke-linecap="round" stroke-linejoin="round" points="623.7,665.1 623.7,650.9 
		609.6,650.9 609.6,665.1 	"/>
	<polyline fill="none" stroke="#007F00" stroke-linecap="round" stroke-linejoin="round" points="921.4,665.1 921.4,650.9 
		907.2,650.9 907.2,665.1 	"/>
	<polyline fill="none" stroke="#007F00" stroke-linecap="round" stroke-linejoin="round" points="595.4,665.1 595.4,616.9 
		935.6,616.9 935.6,665.1 	"/>
</g>
<g>
	<polyline fill="none" stroke="#007F00" stroke-linecap="round" stroke-linejoin="round" points="623.7,713.3 623.7,699.1 
		609.6,699.1 609.6,713.3 	"/>
	<polyline fill="none" stroke="#007F00" stroke-linecap="round" stroke-linejoin="round" points="921.4,713.3 921.4,699.1 
		907.2,699.1 907.2,713.3 	"/>
	<polyline fill="none" stroke="#007F00" stroke-linecap="round" stroke-linejoin="round" points="595.4,713.3 595.4,665.1 
		935.6,665.1 935.6,713.3 	"/>
</g>
<g>
	<polyline fill="none" stroke="#007F00" stroke-linecap="round" stroke-linejoin="round" points="623.7,761.5 623.7,747.3 
		609.6,747.3 609.6,761.5 	"/>
	<polyline fill="none" stroke="#007F00" stroke-linecap="round" stroke-linejoin="round" points="921.4,761.5 921.4,747.3 
		907.2,747.3 907.2,761.5 	"/>
	<polyline fill="none" stroke="#007F00" stroke-linecap="round" stroke-linejoin="round" points="595.4,761.5 595.4,713.3 
		935.6,713.3 935.6,761.5 	"/>
</g>
<g>
	<polyline fill="none" stroke="#007F00" stroke-linecap="round" stroke-linejoin="round" points="623.7,809.7 623.7,795.5 
		609.6,795.5 609.6,809.7 	"/>
	<polyline fill="none" stroke="#007F00" stroke-linecap="round" stroke-linejoin="round" points="921.4,809.7 921.4,795.5 
		907.2,795.5 907.2,809.7 	"/>
	<polyline fill="none" stroke="#007F00" stroke-linecap="round" stroke-linejoin="round" points="595.4,809.7 595.4,761.5 
		935.6,761.5 935.6,809.7 	"/>
</g>
<g>
	<polyline fill="none" stroke="#007F00" stroke-linecap="round" stroke-linejoin="round" points="623.7,857.9 623.7,843.7 
		609.6,843.7 609.6,857.9 	"/>
	<polyline fill="none" stroke="#007F00" stroke-linecap="round" stroke-linejoin="round" points="921.4,857.9 921.4,843.7 
		907.2,843.7 907.2,857.9 	"/>
	<polyline fill="none" stroke="#007F00" stroke-linecap="round" stroke-linejoin="round" points="595.4,857.9 595.4,809.7 
		935.6,809.7 935.6,857.9 	"/>
</g>
<g>
	<polyline fill="none" stroke="#007F00" stroke-linecap="round" stroke-linejoin="round" points="623.7,906.1 623.7,891.9 
		609.6,891.9 609.6,906.1 	"/>
	<polyline fill="none" stroke="#007F00" stroke-linecap="round" stroke-linejoin="round" points="921.4,906.1 921.4,891.9 
		907.2,891.9 907.2,906.1 	"/>
	<polyline fill="none" stroke="#007F00" stroke-linecap="round" stroke-linejoin="round" points="595.4,906.1 595.4,857.9 
		935.6,857.9 935.6,906.1 	"/>
</g>
<g>
	<polyline fill="none" stroke="#007F00" stroke-linecap="round" stroke-linejoin="round" points="623.7,954.3 623.7,940.1 
		609.6,940.1 609.6,954.3 	"/>
	<polyline fill="none" stroke="#007F00" stroke-linecap="round" stroke-linejoin="round" points="921.4,954.3 921.4,940.1 
		907.2,940.1 907.2,954.3 	"/>
	<polyline fill="none" stroke="#007F00" stroke-linecap="round" stroke-linejoin="round" points="595.4,954.3 595.4,906.1 
		935.6,906.1 935.6,954.3 	"/>
</g>
<g>
	<polyline fill="none" stroke="#007F00" stroke-linecap="round" stroke-linejoin="round" points="623.7,1002.4 623.7,988.3 
		609.6,988.3 609.6,1002.4 	"/>
	<polyline fill="none" stroke="#007F00" stroke-linecap="round" stroke-linejoin="round" points="921.4,1002.4 921.4,988.3 
		907.2,988.3 907.2,1002.4 	"/>
	<polyline fill="none" stroke="#007F00" stroke-linecap="round" stroke-linejoin="round" points="595.4,1002.4 595.4,954.3 
		935.6,954.3 935.6,1002.4 	"/>
</g>
<g>
	<polyline fill="none" stroke="#007F00" stroke-linecap="round" stroke-linejoin="round" points="623.7,1050.6 623.7,1036.5 
		609.6,1036.5 609.6,1050.6 	"/>
	<polyline fill="none" stroke="#007F00" stroke-linecap="round" stroke-linejoin="round" points="921.4,1050.6 921.4,1036.5 
		907.2,1036.5 907.2,1050.6 	"/>
	<polyline fill="none" stroke="#007F00" stroke-linecap="round" stroke-linejoin="round" points="595.4,1050.6 595.4,1002.4 
		935.6,1002.4 935.6,1050.6 	"/>
</g>
<g>
	<polyline fill="none" stroke="#007F00" stroke-linecap="round" stroke-linejoin="round" points="623.7,1098.8 623.7,1084.6 
		609.6,1084.6 609.6,1098.8 	"/>
	<polyline fill="none" stroke="#007F00" stroke-linecap="round" stroke-linejoin="round" points="921.4,1098.8 921.4,1084.6 
		907.2,1084.6 907.2,1098.8 	"/>
	<polyline fill="none" stroke="#007F00" stroke-linecap="round" stroke-linejoin="round" points="595.4,1098.8 595.4,1050.6 
		935.6,1050.6 935.6,1098.8 	"/>
</g>
<g>
	<polyline fill="none" stroke="#007F00" stroke-linecap="round" stroke-linejoin="round" points="623.7,1147 623.7,1132.8 
		609.6,1132.8 609.6,1147 	"/>
	<polyline fill="none" stroke="#007F00" stroke-linecap="round" stroke-linejoin="round" points="921.4,1147 921.4,1132.8 
		907.2,1132.8 907.2,1147 	"/>
	<polyline fill="none" stroke="#007F00" stroke-linecap="round" stroke-linejoin="round" points="595.4,1147 595.4,1098.8 
		935.6,1098.8 935.6,1147 	"/>
</g>
<g>
	<polyline fill="none" stroke="#007F00" stroke-linecap="round" stroke-linejoin="round" points="623.7,1195.2 623.7,1181 
		609.6,1181 609.6,1195.2 	"/>
	<polyline fill="none" stroke="#007F00" stroke-linecap="round" stroke-linejoin="round" points="921.4,1195.2 921.4,1181 
		907.2,1181 907.2,1195.2 	"/>
	<polyline fill="none" stroke="#007F00" stroke-linecap="round" stroke-linejoin="round" points="595.4,1195.2 595.4,1147 
		935.6,1147 935.6,1195.2 	"/>
</g>
<g>
	<polyline fill="none" stroke="#007F00" stroke-linecap="round" stroke-linejoin="round" points="623.7,1243.4 623.7,1229.2 
		609.6,1229.2 609.6,1243.4 	"/>
	<polyline fill="none" stroke="#007F00" stroke-linecap="round" stroke-linejoin="round" points="921.4,1243.4 921.4,1229.2 
		907.2,1229.2 907.2,1243.4 	"/>
	<polyline fill="none" stroke="#007F00" stroke-linecap="round" stroke-linejoin="round" points="595.4,1243.4 595.4,1195.2 
		935.6,1195.2 935.6,1243.4 	"/>
</g>
<g>
	<polyline fill="none" stroke="#007F00" stroke-linecap="round" stroke-linejoin="round" points="623.7,1291.6 623.7,1277.4 
		609.6,1277.4 609.6,1291.6 	"/>
	<polyline fill="none" stroke="#007F00" stroke-linecap="round" stroke-linejoin="round" points="921.4,1291.6 921.4,1277.4 
		907.2,1277.4 907.2,1291.6 	"/>
	<polyline fill="none" stroke="#007F00" stroke-linecap="round" stroke-linejoin="round" points="595.4,1291.6 595.4,1243.4 
		935.6,1243.4 935.6,1291.6 	"/>
</g>
<g>
	<polyline fill="none" stroke="#007F00" stroke-linecap="round" stroke-linejoin="round" points="623.7,1339.8 623.7,1325.6 
		609.6,1325.6 609.6,1339.8 	"/>
	<polyline fill="none" stroke="#007F00" stroke-linecap="round" stroke-linejoin="round" points="921.4,1339.8 921.4,1325.6 
		907.2,1325.6 907.2,1339.8 	"/>
	<polyline fill="none" stroke="#007F00" stroke-linecap="round" stroke-linejoin="round" points="595.4,1339.8 595.4,1291.6 
		935.6,1291.6 935.6,1339.8 	"/>
</g>
<g>
	<polygon fill="none" stroke="#007F00" stroke-linecap="round" stroke-linejoin="round" points="935.6,1388 935.6,1339.8 
		595.4,1339.8 595.4,1388 609.6,1388 609.6,1373.8 623.7,1373.8 623.7,1388 907.2,1388 907.2,1373.8 921.4,1373.8 921.4,1388 	"/>
</g>
<polygon fill="none" stroke="#000000" stroke-linecap="round" stroke-linejoin="round" points="1054.6,1103.1 1054.6,1117.2 
	1040.4,1117.2 1040.4,1131.4 1054.6,1131.4 1054.6,1230.6 1040.4,1230.6 1040.4,1244.8 1054.6,1244.8 1054.6,1259 1090,1259 
	1090,1273.2 1104.2,1273.2 1104.2,1259 1175,1259 1175,1273.2 1189.2,1273.2 1189.2,1259 1224.6,1259 1224.6,1244.8 1238.8,1244.8 
	1238.8,1230.6 1224.6,1230.6 1224.6,1131.4 1238.8,1131.4 1238.8,1117.2 1224.6,1117.2 1224.6,1103.1 "/>
<polygon fill="none" stroke="#000000" stroke-linecap="round" stroke-linejoin="round" points="1051.4,872.1 1051.4,886.3 
	1037.3,886.3 1037.3,900.4 1051.4,900.4 1051.4,999.7 1037.3,999.7 1037.3,1013.8 1051.4,1013.8 1051.4,1028 1086.9,1028 
	1086.9,1042.2 1101,1042.2 1101,1028 1171.9,1028 1171.9,1042.2 1186.1,1042.2 1186.1,1028 1221.5,1028 1221.5,1013.8 
	1235.7,1013.8 1235.7,999.7 1221.5,999.7 1221.5,900.4 1235.7,900.4 1235.7,886.3 1221.5,886.3 1221.5,872.1 "/>
<polyline fill="none" stroke="#000000" stroke-linecap="round" stroke-linejoin="round" points="1559.1,72.1 1559.1,29.6 
	1537.9,29.6 1537.9,50.8 1523.7,50.8 1523.7,29.6 1271.4,29.6 1271.4,50.8 1257.2,50.8 1257.2,29.6 1005,29.6 1005,50.8 990.8,50.8 
	990.8,29.6 969.5,29.6 969.5,72.1 "/>
<line fill="none" stroke="#000000" stroke-linecap="round" stroke-linejoin="round" x1="1537.9" y1="29.6" x2="1523.7" y2="29.6"/>
<line fill="none" stroke="#000000" stroke-linecap="round" stroke-linejoin="round" x1="1271.4" y1="29.6" x2="1257.2" y2="29.6"/>
<line fill="none" stroke="#000000" stroke-linecap="round" stroke-linejoin="round" x1="1005" y1="29.6" x2="990.8" y2="29.6"/>
<polyline fill="none" stroke="#000000" stroke-linecap="round" stroke-linejoin="round" points="1559.1,114.6 1559.1,72.1 
	1537.9,72.1 1537.9,93.4 1523.7,93.4 1523.7,72.1 1271.4,72.1 1271.4,93.4 1257.2,93.4 1257.2,72.1 1005,72.1 1005,93.4 990.8,93.4 
	990.8,72.1 969.5,72.1 969.5,114.6 "/>
<line fill="none" stroke="#000000" stroke-linecap="round" stroke-linejoin="round" x1="1537.9" y1="72.1" x2="1523.7" y2="72.1"/>
<line fill="none" stroke="#000000" stroke-linecap="round" stroke-linejoin="round" x1="1271.4" y1="72.1" x2="1257.2" y2="72.1"/>
<line fill="none" stroke="#000000" stroke-linecap="round" stroke-linejoin="round" x1="1005" y1="72.1" x2="990.8" y2="72.1"/>
<polyline fill="none" stroke="#000000" stroke-linecap="round" stroke-linejoin="round" points="1559.1,157.1 1559.1,114.6 
	1537.9,114.6 1537.9,135.9 1523.7,135.9 1523.7,114.6 1271.4,114.6 1271.4,135.9 1257.2,135.9 1257.2,114.6 1005,114.6 1005,135.9 
	990.8,135.9 990.8,114.6 969.5,114.6 969.5,157.1 "/>
<line fill="none" stroke="#000000" stroke-linecap="round" stroke-linejoin="round" x1="1537.9" y1="114.6" x2="1523.7" y2="114.6"/>
<line fill="none" stroke="#000000" stroke-linecap="round" stroke-linejoin="round" x1="1271.4" y1="114.6" x2="1257.2" y2="114.6"/>
<line fill="none" stroke="#000000" stroke-linecap="round" stroke-linejoin="round" x1="1005" y1="114.6" x2="990.8" y2="114.6"/>
<polyline fill="none" stroke="#000000" stroke-linecap="round" stroke-linejoin="round" points="1559.1,199.7 1559.1,157.1 
	1537.9,157.1 1537.9,178.4 1523.7,178.4 1523.7,157.1 1271.4,157.1 1271.4,178.4 1257.2,178.4 1257.2,157.1 1005,157.1 1005,178.4 
	990.8,178.4 990.8,157.1 969.5,157.1 969.5,199.7 "/>
<line fill="none" stroke="#000000" stroke-linecap="round" stroke-linejoin="round" x1="1537.9" y1="157.1" x2="1523.7" y2="157.1"/>
<line fill="none" stroke="#000000" stroke-linecap="round" stroke-linejoin="round" x1="1271.4" y1="157.1" x2="1257.2" y2="157.1"/>
<line fill="none" stroke="#000000" stroke-linecap="round" stroke-linejoin="round" x1="1005" y1="157.1" x2="990.8" y2="157.1"/>
<polyline fill="none" stroke="#000000" stroke-linecap="round" stroke-linejoin="round" points="1559.1,242.2 1559.1,199.7 
	1537.9,199.7 1537.9,220.9 1523.7,220.9 1523.7,199.7 1271.4,199.7 1271.4,220.9 1257.2,220.9 1257.2,199.7 1005,199.7 1005,220.9 
	990.8,220.9 990.8,199.7 969.5,199.7 969.5,242.2 "/>
<line fill="none" stroke="#000000" stroke-linecap="round" stroke-linejoin="round" x1="1537.9" y1="199.7" x2="1523.7" y2="199.7"/>
<line fill="none" stroke="#000000" stroke-linecap="round" stroke-linejoin="round" x1="1271.4" y1="199.7" x2="1257.2" y2="199.7"/>
<line fill="none" stroke="#000000" stroke-linecap="round" stroke-linejoin="round" x1="1005" y1="199.7" x2="990.8" y2="199.7"/>
<polyline fill="none" stroke="#000000" stroke-linecap="round" stroke-linejoin="round" points="1559.1,284.7 1559.1,242.2 
	1537.9,242.2 1537.9,263.4 1523.7,263.4 1523.7,242.2 1271.4,242.2 1271.4,263.4 1257.2,263.4 1257.2,242.2 1005,242.2 1005,263.4 
	990.8,263.4 990.8,242.2 969.5,242.2 969.5,284.7 "/>
<line fill="none" stroke="#000000" stroke-linecap="round" stroke-linejoin="round" x1="1537.9" y1="242.2" x2="1523.7" y2="242.2"/>
<line fill="none" stroke="#000000" stroke-linecap="round" stroke-linejoin="round" x1="1271.4" y1="242.2" x2="1257.2" y2="242.2"/>
<line fill="none" stroke="#000000" stroke-linecap="round" stroke-linejoin="round" x1="1005" y1="242.2" x2="990.8" y2="242.2"/>
<polyline fill="none" stroke="#000000" stroke-linecap="round" stroke-linejoin="round" points="1559.1,327.2 1559.1,284.7 
	1537.9,284.7 1537.9,306 1523.7,306 1523.7,284.7 1271.4,284.7 1271.4,306 1257.2,306 1257.2,284.7 1005,284.7 1005,306 990.8,306 
	990.8,284.7 969.5,284.7 969.5,327.2 "/>
<line fill="none" stroke="#000000" stroke-linecap="round" stroke-linejoin="round" x1="1537.9" y1="284.7" x2="1523.7" y2="284.7"/>
<line fill="none" stroke="#000000" stroke-linecap="round" stroke-linejoin="round" x1="1271.4" y1="284.7" x2="1257.2" y2="284.7"/>
<line fill="none" stroke="#000000" stroke-linecap="round" stroke-linejoin="round" x1="1005" y1="284.7" x2="990.8" y2="284.7"/>
<polygon fill="none" stroke="#000000" stroke-linecap="round" stroke-linejoin="round" points="969.5,369.7 969.5,327.2 
	990.8,327.2 990.8,348.5 1005,348.5 1005,327.2 1257.2,327.2 1257.2,348.5 1271.4,348.5 1271.4,327.2 1523.7,327.2 1523.7,348.5 
	1537.9,348.5 1537.9,327.2 1559.1,327.2 1559.1,369.7 "/>
<line fill="none" stroke="#000000" stroke-linecap="round" stroke-linejoin="round" x1="1537.9" y1="327.2" x2="1523.7" y2="327.2"/>
<line fill="none" stroke="#000000" stroke-linecap="round" stroke-linejoin="round" x1="1271.4" y1="327.2" x2="1257.2" y2="327.2"/>
<line fill="none" stroke="#000000" stroke-linecap="round" stroke-linejoin="round" x1="1005" y1="327.2" x2="990.8" y2="327.2"/>
<polyline fill="none" stroke="#000000" stroke-linecap="round" stroke-linejoin="round" points="1033.3,431.3 1033.3,410 
	1019.1,410 1019.1,431.3 "/>
<polyline fill="none" stroke="#000000" stroke-linecap="round" stroke-linejoin="round" points="1075.8,431.3 1075.8,410 
	1061.6,410 1061.6,431.3 "/>
<polyline fill="none" stroke="#000000" stroke-linecap="round" stroke-linejoin="round" points="1217.6,431.3 1217.6,410 
	1203.4,410 1203.4,431.3 "/>
<polyline fill="none" stroke="#000000" stroke-linecap="round" stroke-linejoin="round" points="1260.1,431.3 1260.1,410 
	1245.9,410 1245.9,431.3 "/>
<polyline fill="none" stroke="#000000" stroke-linecap="round" stroke-linejoin="round" points="969.5,431.3 969.5,388.8 
	983.7,388.8 983.7,410 997.9,410 997.9,388.8 1281.3,388.8 1281.3,410 1295.5,410 1295.5,388.8 1309.7,388.8 1309.7,431.3 "/>
<line fill="none" stroke="#000000" stroke-linecap="round" stroke-linejoin="round" x1="1295.5" y1="388.8" x2="1281.3" y2="388.8"/>
<line fill="none" stroke="#000000" stroke-linecap="round" stroke-linejoin="round" x1="997.9" y1="388.8" x2="983.7" y2="388.8"/>
<polyline fill="none" stroke="#000000" stroke-linecap="round" stroke-linejoin="round" points="1033.3,473.8 1033.3,452.6 
	1019.1,452.6 1019.1,473.8 "/>
<polyline fill="none" stroke="#000000" stroke-linecap="round" stroke-linejoin="round" points="1075.8,473.8 1075.8,452.6 
	1061.6,452.6 1061.6,473.8 "/>
<polyline fill="none" stroke="#000000" stroke-linecap="round" stroke-linejoin="round" points="1217.6,473.8 1217.6,452.6 
	1203.4,452.6 1203.4,473.8 "/>
<polyline fill="none" stroke="#000000" stroke-linecap="round" stroke-linejoin="round" points="1260.1,473.8 1260.1,452.6 
	1245.9,452.6 1245.9,473.8 "/>
<polyline fill="none" stroke="#000000" stroke-linecap="round" stroke-linejoin="round" points="969.5,473.8 969.5,431.3 
	983.7,431.3 983.7,452.6 997.9,452.6 997.9,431.3 1281.3,431.3 1281.3,452.6 1295.5,452.6 1295.5,431.3 1309.7,431.3 1309.7,473.8 
	"/>
<line fill="none" stroke="#000000" stroke-linecap="round" stroke-linejoin="round" x1="1295.5" y1="431.3" x2="1281.3" y2="431.3"/>
<line fill="none" stroke="#000000" stroke-linecap="round" stroke-linejoin="round" x1="997.9" y1="431.3" x2="983.7" y2="431.3"/>
<polyline fill="none" stroke="#000000" stroke-linecap="round" stroke-linejoin="round" points="1033.3,516.3 1033.3,495.1 
	1019.1,495.1 1019.1,516.3 "/>
<polyline fill="none" stroke="#000000" stroke-linecap="round" stroke-linejoin="round" points="1075.8,516.3 1075.8,495.1 
	1061.6,495.1 1061.6,516.3 "/>
<polyline fill="none" stroke="#000000" stroke-linecap="round" stroke-linejoin="round" points="1217.6,516.3 1217.6,495.1 
	1203.4,495.1 1203.4,516.3 "/>
<polyline fill="none" stroke="#000000" stroke-linecap="round" stroke-linejoin="round" points="1260.1,516.3 1260.1,495.1 
	1245.9,495.1 1245.9,516.3 "/>
<polyline fill="none" stroke="#000000" stroke-linecap="round" stroke-linejoin="round" points="969.5,516.3 969.5,473.8 
	983.7,473.8 983.7,495.1 997.9,495.1 997.9,473.8 1281.3,473.8 1281.3,495.1 1295.5,495.1 1295.5,473.8 1309.7,473.8 1309.7,516.3 
	"/>
<line fill="none" stroke="#000000" stroke-linecap="round" stroke-linejoin="round" x1="1295.5" y1="473.8" x2="1281.3" y2="473.8"/>
<line fill="none" stroke="#000000" stroke-linecap="round" stroke-linejoin="round" x1="997.9" y1="473.8" x2="983.7" y2="473.8"/>
<polyline fill="none" stroke="#000000" stroke-linecap="round" stroke-linejoin="round" points="1033.3,558.9 1033.3,537.6 
	1019.1,537.6 1019.1,558.9 "/>
<polyline fill="none" stroke="#000000" stroke-linecap="round" stroke-linejoin="round" points="1075.8,558.9 1075.8,537.6 
	1061.6,537.6 1061.6,558.9 "/>
<polyline fill="none" stroke="#000000" stroke-linecap="round" stroke-linejoin="round" points="1217.6,558.9 1217.6,537.6 
	1203.4,537.6 1203.4,558.9 "/>
<polyline fill="none" stroke="#000000" stroke-linecap="round" stroke-linejoin="round" points="1260.1,558.9 1260.1,537.6 
	1245.9,537.6 1245.9,558.9 "/>
<polyline fill="none" stroke="#000000" stroke-linecap="round" stroke-linejoin="round" points="969.5,558.9 969.5,516.3 
	983.7,516.3 983.7,537.6 997.9,537.6 997.9,516.3 1281.3,516.3 1281.3,537.6 1295.5,537.6 1295.5,516.3 1309.7,516.3 1309.7,558.9 
	"/>
<line fill="none" stroke="#000000" stroke-linecap="round" stroke-linejoin="round" x1="1295.5" y1="516.3" x2="1281.3" y2="516.3"/>
<line fill="none" stroke="#000000" stroke-linecap="round" stroke-linejoin="round" x1="997.9" y1="516.3" x2="983.7" y2="516.3"/>
<polyline fill="none" stroke="#000000" stroke-linecap="round" stroke-linejoin="round" points="1033.3,601.4 1033.3,580.1 
	1019.1,580.1 1019.1,601.4 "/>
<polyline fill="none" stroke="#000000" stroke-linecap="round" stroke-linejoin="round" points="1075.8,601.4 1075.8,580.1 
	1061.6,580.1 1061.6,601.4 "/>
<polyline fill="none" stroke="#000000" stroke-linecap="round" stroke-linejoin="round" points="1217.6,601.4 1217.6,580.1 
	1203.4,580.1 1203.4,601.4 "/>
<polyline fill="none" stroke="#000000" stroke-linecap="round" stroke-linejoin="round" points="1260.1,601.4 1260.1,580.1 
	1245.9,580.1 1245.9,601.4 "/>
<polyline fill="none" stroke="#000000" stroke-linecap="round" stroke-linejoin="round" points="969.5,601.4 969.5,558.9 
	983.7,558.9 983.7,580.1 997.9,580.1 997.9,558.9 1281.3,558.9 1281.3,580.1 1295.5,580.1 1295.5,558.9 1309.7,558.9 1309.7,601.4 
	"/>
<line fill="none" stroke="#000000" stroke-linecap="round" stroke-linejoin="round" x1="1295.5" y1="558.9" x2="1281.3" y2="558.9"/>
<line fill="none" stroke="#000000" stroke-linecap="round" stroke-linejoin="round" x1="997.9" y1="558.9" x2="983.7" y2="558.9"/>
<polyline fill="none" stroke="#000000" stroke-linecap="round" stroke-linejoin="round" points="1033.3,643.9 1033.3,622.6 
	1019.1,622.6 1019.1,643.9 "/>
<polyline fill="none" stroke="#000000" stroke-linecap="round" stroke-linejoin="round" points="1075.8,643.9 1075.8,622.6 
	1061.6,622.6 1061.6,643.9 "/>
<polyline fill="none" stroke="#000000" stroke-linecap="round" stroke-linejoin="round" points="1217.6,643.9 1217.6,622.6 
	1203.4,622.6 1203.4,643.9 "/>
<polyline fill="none" stroke="#000000" stroke-linecap="round" stroke-linejoin="round" points="1260.1,643.9 1260.1,622.6 
	1245.9,622.6 1245.9,643.9 "/>
<polyline fill="none" stroke="#000000" stroke-linecap="round" stroke-linejoin="round" points="969.5,643.9 969.5,601.4 
	983.7,601.4 983.7,622.6 997.9,622.6 997.9,601.4 1281.3,601.4 1281.3,622.6 1295.5,622.6 1295.5,601.4 1309.7,601.4 1309.7,643.9 
	"/>
<line fill="none" stroke="#000000" stroke-linecap="round" stroke-linejoin="round" x1="1295.5" y1="601.4" x2="1281.3" y2="601.4"/>
<line fill="none" stroke="#000000" stroke-linecap="round" stroke-linejoin="round" x1="997.9" y1="601.4" x2="983.7" y2="601.4"/>
<polyline fill="none" stroke="#000000" stroke-linecap="round" stroke-linejoin="round" points="1033.3,686.4 1033.3,665.2 
	1019.1,665.2 1019.1,686.4 "/>
<polyline fill="none" stroke="#000000" stroke-linecap="round" stroke-linejoin="round" points="1075.8,686.4 1075.8,665.2 
	1061.6,665.2 1061.6,686.4 "/>
<polyline fill="none" stroke="#000000" stroke-linecap="round" stroke-linejoin="round" points="1217.6,686.4 1217.6,665.2 
	1203.4,665.2 1203.4,686.4 "/>
<polyline fill="none" stroke="#000000" stroke-linecap="round" stroke-linejoin="round" points="1260.1,686.4 1260.1,665.2 
	1245.9,665.2 1245.9,686.4 "/>
<polyline fill="none" stroke="#000000" stroke-linecap="round" stroke-linejoin="round" points="969.5,686.4 969.5,643.9 
	983.7,643.9 983.7,665.2 997.9,665.2 997.9,643.9 1281.3,643.9 1281.3,665.2 1295.5,665.2 1295.5,643.9 1309.7,643.9 1309.7,686.4 
	"/>
<line fill="none" stroke="#000000" stroke-linecap="round" stroke-linejoin="round" x1="1295.5" y1="643.9" x2="1281.3" y2="643.9"/>
<line fill="none" stroke="#000000" stroke-linecap="round" stroke-linejoin="round" x1="997.9" y1="643.9" x2="983.7" y2="643.9"/>
<polyline fill="none" stroke="#000000" stroke-linecap="round" stroke-linejoin="round" points="1033.3,728.9 1033.3,707.7 
	1019.1,707.7 1019.1,728.9 "/>
<polyline fill="none" stroke="#000000" stroke-linecap="round" stroke-linejoin="round" points="1075.8,728.9 1075.8,707.7 
	1061.6,707.7 1061.6,728.9 "/>
<polyline fill="none" stroke="#000000" stroke-linecap="round" stroke-linejoin="round" points="1217.6,728.9 1217.6,707.7 
	1203.4,707.7 1203.4,728.9 "/>
<polyline fill="none" stroke="#000000" stroke-linecap="round" stroke-linejoin="round" points="1260.1,728.9 1260.1,707.7 
	1245.9,707.7 1245.9,728.9 "/>
<polyline fill="none" stroke="#000000" stroke-linecap="round" stroke-linejoin="round" points="969.5,728.9 969.5,686.4 
	983.7,686.4 983.7,707.7 997.9,707.7 997.9,686.4 1281.3,686.4 1281.3,707.7 1295.5,707.7 1295.5,686.4 1309.7,686.4 1309.7,728.9 
	"/>
<line fill="none" stroke="#000000" stroke-linecap="round" stroke-linejoin="round" x1="1295.5" y1="686.4" x2="1281.3" y2="686.4"/>
<line fill="none" stroke="#000000" stroke-linecap="round" stroke-linejoin="round" x1="997.9" y1="686.4" x2="983.7" y2="686.4"/>
<polyline fill="none" stroke="#000000" stroke-linecap="round" stroke-linejoin="round" points="1033.3,771.5 1033.3,750.2 
	1019.1,750.2 1019.1,771.5 "/>
<polyline fill="none" stroke="#000000" stroke-linecap="round" stroke-linejoin="round" points="1075.8,771.5 1075.8,750.2 
	1061.6,750.2 1061.6,771.5 "/>
<polyline fill="none" stroke="#000000" stroke-linecap="round" stroke-linejoin="round" points="1217.6,771.5 1217.6,750.2 
	1203.4,750.2 1203.4,771.5 "/>
<polyline fill="none" stroke="#000000" stroke-linecap="round" stroke-linejoin="round" points="1260.1,771.5 1260.1,750.2 
	1245.9,750.2 1245.9,771.5 "/>
<polyline fill="none" stroke="#000000" stroke-linecap="round" stroke-linejoin="round" points="969.5,771.5 969.5,728.9 
	983.7,728.9 983.7,750.2 997.9,750.2 997.9,728.9 1281.3,728.9 1281.3,750.2 1295.5,750.2 1295.5,728.9 1309.7,728.9 1309.7,771.5 
	"/>
<line fill="none" stroke="#000000" stroke-linecap="round" stroke-linejoin="round" x1="1295.5" y1="728.9" x2="1281.3" y2="728.9"/>
<line fill="none" stroke="#000000" stroke-linecap="round" stroke-linejoin="round" x1="997.9" y1="728.9" x2="983.7" y2="728.9"/>
<polygon fill="none" stroke="#000000" stroke-linecap="round" stroke-linejoin="round" points="969.5,814 969.5,771.5 983.7,771.5 
	983.7,792.7 997.9,792.7 997.9,771.5 1281.3,771.5 1281.3,792.7 1295.5,792.7 1295.5,771.5 1309.7,771.5 1309.7,814 1260.1,814 
	1260.1,792.7 1245.9,792.7 1245.9,814 1217.6,814 1217.6,792.7 1203.4,792.7 1203.4,814 1075.8,814 1075.8,792.7 1061.6,792.7 
	1061.6,814 1033.3,814 1033.3,792.7 1019.1,792.7 1019.1,814 "/>
<line fill="none" stroke="#000000" stroke-linecap="round" stroke-linejoin="round" x1="1295.5" y1="771.5" x2="1281.3" y2="771.5"/>
<line fill="none" stroke="#000000" stroke-linecap="round" stroke-linejoin="round" x1="997.9" y1="771.5" x2="983.7" y2="771.5"/>
<polygon fill="none" stroke="#000000" stroke-linecap="round" stroke-linejoin="round" points="1490.2,436.8 1470.5,409.2 
	1453.2,421.6 1478,456.2 1466.5,464.4 1441.7,429.9 1433.5,435.7 1433.5,815.8 1449.9,804 1458.2,815.6 1433.5,833.2 1433.5,1248.1 
	1437.9,1245 1446.2,1256.5 1433.5,1265.5 1433.5,1370.3 1448.8,1391.6 1461.9,1391.6 1470.5,1385.5 1445.8,1350.9 1457.3,1342.6 
	1482,1377.2 1490.2,1371.3 1490.2,1008.8 1482.1,1014.6 1473.9,1003 1490.2,991.3 1490.2,568.2 1485.9,562.1 1490.2,559 "/>
<polygon fill="none" stroke="#000000" stroke-linecap="round" stroke-linejoin="round" points="1402.2,436.8 1382.5,409.2 
	1365.2,421.6 1390,456.2 1378.5,464.4 1353.7,429.9 1345.5,435.7 1345.5,815.8 1361.9,804 1370.2,815.6 1345.5,833.2 1345.5,1248.1 
	1349.9,1245 1358.2,1256.5 1345.5,1265.5 1345.5,1370.3 1360.8,1391.6 1373.9,1391.6 1382.5,1385.5 1357.8,1350.9 1369.3,1342.6 
	1394,1377.2 1402.2,1371.3 1402.2,1008.8 1394.1,1014.6 1385.9,1003 1402.2,991.3 1402.2,568.2 1397.9,562.1 1402.2,559 "/>
</svg>
