<?xml version="1.0" encoding="utf-8"?>
<!-- Generator: Adobe Illustrator 18.1.0, SVG Export Plug-In . SVG Version: 6.00 Build 0)  -->
<svg version="1.1" id="Layer_1" xmlns="http://www.w3.org/2000/svg" xmlns:xlink="http://www.w3.org/1999/xlink" x="0px" y="0px"
	 viewBox="0 0 1700.8 1417.3" enable-background="new 0 0 1700.8 1417.3" xml:space="preserve">
<g>
	<polyline fill="none" stroke="#000000" stroke-linecap="round" stroke-linejoin="round" points="340.8,356.3 340.8,342.2 
		326.6,342.2 326.6,328 340.8,328 340.8,313.8 326.6,313.8 326.6,299.6 340.8,299.6 340.8,285.5 326.6,285.5 326.6,260 340.8,260 
		340.8,245.8 326.6,245.8 326.6,231.6 340.8,231.6 340.8,217.4 326.6,217.4 326.6,189.1 340.8,189.1 340.8,174.9 326.6,174.9 
		326.6,160.7 340.8,160.7 340.8,146.6 326.6,146.6 326.6,121.1 340.8,121.1 340.8,106.9 326.6,106.9 326.6,92.7 340.8,92.7 
		340.8,78.5 326.6,78.5 326.6,64.4 340.8,64.4 340.8,50.2 29,50.2 29,64.4 43.2,64.4 43.2,78.5 29,78.5 29,92.7 43.2,92.7 
		43.2,106.9 29,106.9 29,121.1 43.2,121.1 43.2,146.6 29,146.6 29,160.7 43.2,160.7 43.2,174.9 29,174.9 29,189.1 43.2,189.1 
		43.2,217.4 29,217.4 29,231.6 43.2,231.6 43.2,245.8 29,245.8 29,260 43.2,260 43.2,285.5 29,285.5 29,299.6 43.2,299.6 
		43.2,313.8 29,313.8 29,328 43.2,328 43.2,342.2 29,342.2 29,356.3 	"/>
	
		<rect x="64.4" y="189.1" fill="none" stroke="#000000" stroke-linecap="round" stroke-linejoin="round" width="14.2" height="28.3"/>
	
		<rect x="92.8" y="189.1" fill="none" stroke="#000000" stroke-linecap="round" stroke-linejoin="round" width="14.2" height="28.3"/>
	
		<rect x="121.1" y="189.1" fill="none" stroke="#000000" stroke-linecap="round" stroke-linejoin="round" width="14.2" height="28.3"/>
	
		<rect x="149.5" y="189.1" fill="none" stroke="#000000" stroke-linecap="round" stroke-linejoin="round" width="14.2" height="28.3"/>
	
		<rect x="177.8" y="189.1" fill="none" stroke="#000000" stroke-linecap="round" stroke-linejoin="round" width="14.2" height="28.3"/>
	
		<rect x="206.2" y="189.1" fill="none" stroke="#000000" stroke-linecap="round" stroke-linejoin="round" width="14.2" height="28.3"/>
	
		<rect x="234.5" y="189.1" fill="none" stroke="#000000" stroke-linecap="round" stroke-linejoin="round" width="14.2" height="28.3"/>
	
		<rect x="262.9" y="189.1" fill="none" stroke="#000000" stroke-linecap="round" stroke-linejoin="round" width="14.2" height="28.3"/>
	
		<rect x="291.2" y="189.1" fill="none" stroke="#000000" stroke-linecap="round" stroke-linejoin="round" width="14.2" height="28.3"/>
	<line fill="none" stroke="#000000" stroke-linecap="round" stroke-linejoin="round" x1="326.6" y1="203.3" x2="43.2" y2="203.3"/>
	
		<rect x="177.5" y="231.6" fill="none" stroke="#000000" stroke-linecap="round" stroke-linejoin="round" width="14.2" height="14.2"/>
	
		<rect x="177.5" y="160.7" fill="none" stroke="#000000" stroke-linecap="round" stroke-linejoin="round" width="14.2" height="14.2"/>
	
		<rect x="177.5" y="64.4" fill="none" stroke="#000000" stroke-linecap="round" stroke-linejoin="round" width="14.2" height="14.2"/>
	
		<rect x="177.5" y="328" fill="none" stroke="#000000" stroke-linecap="round" stroke-linejoin="round" width="14.2" height="14.2"/>
	<line fill="none" stroke="#000000" stroke-linecap="round" stroke-linejoin="round" x1="326.6" y1="272.7" x2="43.2" y2="272.7"/>
	<line fill="none" stroke="#000000" stroke-linecap="round" stroke-linejoin="round" x1="326.6" y1="133.8" x2="43.2" y2="133.8"/>
</g>
<g>
	<polyline fill="none" stroke="#000000" stroke-linecap="round" stroke-linejoin="round" points="340.8,662.5 340.8,648.3 
		326.6,648.3 326.6,634.1 340.8,634.1 340.8,620 326.6,620 326.6,605.8 340.8,605.8 340.8,591.6 326.6,591.6 326.6,566.1 
		340.8,566.1 340.8,551.9 326.6,551.9 326.6,537.8 340.8,537.8 340.8,523.6 326.6,523.6 326.6,495.2 340.8,495.2 340.8,481.1 
		326.6,481.1 326.6,466.9 340.8,466.9 340.8,452.7 326.6,452.7 326.6,427.2 340.8,427.2 340.8,413 326.6,413 326.6,398.9 
		340.8,398.9 340.8,384.7 326.6,384.7 326.6,370.5 340.8,370.5 340.8,356.3 29,356.3 29,370.5 43.2,370.5 43.2,384.7 29,384.7 
		29,398.9 43.2,398.9 43.2,413 29,413 29,427.2 43.2,427.2 43.2,452.7 29,452.7 29,466.9 43.2,466.9 43.2,481.1 29,481.1 29,495.2 
		43.2,495.2 43.2,523.6 29,523.6 29,537.8 43.2,537.8 43.2,551.9 29,551.9 29,566.1 43.2,566.1 43.2,591.6 29,591.6 29,605.8 
		43.2,605.8 43.2,620 29,620 29,634.1 43.2,634.1 43.2,648.3 29,648.3 29,662.5 	"/>
	
		<rect x="64.4" y="495.2" fill="none" stroke="#000000" stroke-linecap="round" stroke-linejoin="round" width="14.2" height="28.3"/>
	
		<rect x="92.8" y="495.2" fill="none" stroke="#000000" stroke-linecap="round" stroke-linejoin="round" width="14.2" height="28.3"/>
	
		<rect x="121.1" y="495.2" fill="none" stroke="#000000" stroke-linecap="round" stroke-linejoin="round" width="14.2" height="28.3"/>
	
		<rect x="149.5" y="495.2" fill="none" stroke="#000000" stroke-linecap="round" stroke-linejoin="round" width="14.2" height="28.3"/>
	
		<rect x="177.8" y="495.2" fill="none" stroke="#000000" stroke-linecap="round" stroke-linejoin="round" width="14.2" height="28.3"/>
	
		<rect x="206.2" y="495.2" fill="none" stroke="#000000" stroke-linecap="round" stroke-linejoin="round" width="14.2" height="28.3"/>
	
		<rect x="234.5" y="495.2" fill="none" stroke="#000000" stroke-linecap="round" stroke-linejoin="round" width="14.2" height="28.3"/>
	
		<rect x="262.9" y="495.2" fill="none" stroke="#000000" stroke-linecap="round" stroke-linejoin="round" width="14.2" height="28.3"/>
	
		<rect x="291.2" y="495.2" fill="none" stroke="#000000" stroke-linecap="round" stroke-linejoin="round" width="14.2" height="28.3"/>
	<line fill="none" stroke="#000000" stroke-linecap="round" stroke-linejoin="round" x1="326.6" y1="509.4" x2="43.2" y2="509.4"/>
	
		<rect x="177.5" y="537.8" fill="none" stroke="#000000" stroke-linecap="round" stroke-linejoin="round" width="14.2" height="14.2"/>
	
		<rect x="177.5" y="466.9" fill="none" stroke="#000000" stroke-linecap="round" stroke-linejoin="round" width="14.2" height="14.2"/>
	
		<rect x="177.5" y="370.5" fill="none" stroke="#000000" stroke-linecap="round" stroke-linejoin="round" width="14.2" height="14.2"/>
	
		<rect x="177.5" y="634.1" fill="none" stroke="#000000" stroke-linecap="round" stroke-linejoin="round" width="14.2" height="14.2"/>
	<line fill="none" stroke="#000000" stroke-linecap="round" stroke-linejoin="round" x1="326.6" y1="578.9" x2="43.2" y2="578.9"/>
	<line fill="none" stroke="#000000" stroke-linecap="round" stroke-linejoin="round" x1="326.6" y1="440" x2="43.2" y2="440"/>
</g>
<g>
	<polyline fill="none" stroke="#000000" stroke-linecap="round" stroke-linejoin="round" points="340.8,968.6 340.8,954.4 
		326.6,954.4 326.6,940.3 340.8,940.3 340.8,926.1 326.6,926.1 326.6,911.9 340.8,911.9 340.8,897.8 326.6,897.8 326.6,872.2 
		340.8,872.2 340.8,858.1 326.6,858.1 326.6,843.9 340.8,843.9 340.8,829.7 326.6,829.7 326.6,801.4 340.8,801.4 340.8,787.2 
		326.6,787.2 326.6,773 340.8,773 340.8,758.9 326.6,758.9 326.6,733.3 340.8,733.3 340.8,719.2 326.6,719.2 326.6,705 340.8,705 
		340.8,690.8 326.6,690.8 326.6,676.6 340.8,676.6 340.8,662.5 29,662.5 29,676.6 43.2,676.6 43.2,690.8 29,690.8 29,705 43.2,705 
		43.2,719.2 29,719.2 29,733.3 43.2,733.3 43.2,758.9 29,758.9 29,773 43.2,773 43.2,787.2 29,787.2 29,801.4 43.2,801.4 
		43.2,829.7 29,829.7 29,843.9 43.2,843.9 43.2,858.1 29,858.1 29,872.2 43.2,872.2 43.2,897.8 29,897.8 29,911.9 43.2,911.9 
		43.2,926.1 29,926.1 29,940.3 43.2,940.3 43.2,954.4 29,954.4 29,968.6 	"/>
	
		<rect x="64.4" y="801.4" fill="none" stroke="#000000" stroke-linecap="round" stroke-linejoin="round" width="14.2" height="28.3"/>
	
		<rect x="92.8" y="801.4" fill="none" stroke="#000000" stroke-linecap="round" stroke-linejoin="round" width="14.2" height="28.3"/>
	
		<rect x="121.1" y="801.4" fill="none" stroke="#000000" stroke-linecap="round" stroke-linejoin="round" width="14.2" height="28.3"/>
	
		<rect x="149.5" y="801.4" fill="none" stroke="#000000" stroke-linecap="round" stroke-linejoin="round" width="14.2" height="28.3"/>
	
		<rect x="177.8" y="801.4" fill="none" stroke="#000000" stroke-linecap="round" stroke-linejoin="round" width="14.2" height="28.3"/>
	
		<rect x="206.2" y="801.4" fill="none" stroke="#000000" stroke-linecap="round" stroke-linejoin="round" width="14.2" height="28.3"/>
	
		<rect x="234.5" y="801.4" fill="none" stroke="#000000" stroke-linecap="round" stroke-linejoin="round" width="14.2" height="28.3"/>
	
		<rect x="262.9" y="801.4" fill="none" stroke="#000000" stroke-linecap="round" stroke-linejoin="round" width="14.2" height="28.3"/>
	
		<rect x="291.2" y="801.4" fill="none" stroke="#000000" stroke-linecap="round" stroke-linejoin="round" width="14.2" height="28.3"/>
	<line fill="none" stroke="#000000" stroke-linecap="round" stroke-linejoin="round" x1="326.6" y1="815.5" x2="43.2" y2="815.5"/>
	
		<rect x="177.5" y="843.9" fill="none" stroke="#000000" stroke-linecap="round" stroke-linejoin="round" width="14.2" height="14.2"/>
	
		<rect x="177.5" y="773" fill="none" stroke="#000000" stroke-linecap="round" stroke-linejoin="round" width="14.2" height="14.2"/>
	
		<rect x="177.5" y="676.6" fill="none" stroke="#000000" stroke-linecap="round" stroke-linejoin="round" width="14.2" height="14.2"/>
	
		<rect x="177.5" y="940.3" fill="none" stroke="#000000" stroke-linecap="round" stroke-linejoin="round" width="14.2" height="14.2"/>
	<line fill="none" stroke="#000000" stroke-linecap="round" stroke-linejoin="round" x1="326.6" y1="885" x2="43.2" y2="885"/>
	<line fill="none" stroke="#000000" stroke-linecap="round" stroke-linejoin="round" x1="326.6" y1="746.1" x2="43.2" y2="746.1"/>
</g>
<g>
	<polygon fill="none" stroke="#000000" stroke-linecap="round" stroke-linejoin="round" points="29,1274.8 29,1260.6 43.2,1260.6 
		43.2,1246.4 29,1246.4 29,1232.2 43.2,1232.2 43.2,1218.1 29,1218.1 29,1203.9 43.2,1203.9 43.2,1178.4 29,1178.4 29,1164.2 
		43.2,1164.2 43.2,1150 29,1150 29,1135.9 43.2,1135.9 43.2,1107.5 29,1107.5 29,1093.3 43.2,1093.3 43.2,1079.2 29,1079.2 29,1065 
		43.2,1065 43.2,1039.5 29,1039.5 29,1025.3 43.2,1025.3 43.2,1011.1 29,1011.1 29,997 43.2,997 43.2,982.8 29,982.8 29,968.6 
		340.8,968.6 340.8,982.8 326.6,982.8 326.6,997 340.8,997 340.8,1011.1 326.6,1011.1 326.6,1025.3 340.8,1025.3 340.8,1039.5 
		326.6,1039.5 326.6,1065 340.8,1065 340.8,1079.2 326.6,1079.2 326.6,1093.3 340.8,1093.3 340.8,1107.5 326.6,1107.5 326.6,1135.9 
		340.8,1135.9 340.8,1150 326.6,1150 326.6,1164.2 340.8,1164.2 340.8,1178.4 326.6,1178.4 326.6,1203.9 340.8,1203.9 340.8,1218.1 
		326.6,1218.1 326.6,1232.2 340.8,1232.2 340.8,1246.4 326.6,1246.4 326.6,1260.6 340.8,1260.6 340.8,1274.8 	"/>
	
		<rect x="64.4" y="1107.5" fill="none" stroke="#000000" stroke-linecap="round" stroke-linejoin="round" width="14.2" height="28.3"/>
	
		<rect x="92.8" y="1107.5" fill="none" stroke="#000000" stroke-linecap="round" stroke-linejoin="round" width="14.2" height="28.3"/>
	
		<rect x="121.1" y="1107.5" fill="none" stroke="#000000" stroke-linecap="round" stroke-linejoin="round" width="14.2" height="28.3"/>
	
		<rect x="149.5" y="1107.5" fill="none" stroke="#000000" stroke-linecap="round" stroke-linejoin="round" width="14.2" height="28.3"/>
	
		<rect x="177.8" y="1107.5" fill="none" stroke="#000000" stroke-linecap="round" stroke-linejoin="round" width="14.2" height="28.3"/>
	
		<rect x="206.2" y="1107.5" fill="none" stroke="#000000" stroke-linecap="round" stroke-linejoin="round" width="14.2" height="28.3"/>
	
		<rect x="234.5" y="1107.5" fill="none" stroke="#000000" stroke-linecap="round" stroke-linejoin="round" width="14.2" height="28.3"/>
	
		<rect x="262.9" y="1107.5" fill="none" stroke="#000000" stroke-linecap="round" stroke-linejoin="round" width="14.2" height="28.3"/>
	
		<rect x="291.2" y="1107.5" fill="none" stroke="#000000" stroke-linecap="round" stroke-linejoin="round" width="14.2" height="28.3"/>
	
		<line fill="none" stroke="#000000" stroke-linecap="round" stroke-linejoin="round" x1="326.6" y1="1121.7" x2="43.2" y2="1121.7"/>
	
		<rect x="177.5" y="1150" fill="none" stroke="#000000" stroke-linecap="round" stroke-linejoin="round" width="14.2" height="14.2"/>
	
		<rect x="177.5" y="1079.2" fill="none" stroke="#000000" stroke-linecap="round" stroke-linejoin="round" width="14.2" height="14.2"/>
	
		<rect x="177.5" y="982.8" fill="none" stroke="#000000" stroke-linecap="round" stroke-linejoin="round" width="14.2" height="14.2"/>
	
		<rect x="177.5" y="1246.4" fill="none" stroke="#000000" stroke-linecap="round" stroke-linejoin="round" width="14.2" height="14.2"/>
	
		<line fill="none" stroke="#000000" stroke-linecap="round" stroke-linejoin="round" x1="326.6" y1="1191.1" x2="43.2" y2="1191.1"/>
	
		<line fill="none" stroke="#000000" stroke-linecap="round" stroke-linejoin="round" x1="326.6" y1="1052.2" x2="43.2" y2="1052.2"/>
</g>
<g>
	<polyline fill="none" stroke="#000000" stroke-linecap="round" stroke-linejoin="round" points="653.1,370.5 653.1,356.3 
		639,356.3 639,342.2 653.1,342.2 653.1,328 639,328 639,313.8 653.1,313.8 653.1,299.6 639,299.6 639,274.1 653.1,274.1 653.1,260 
		639,260 639,245.8 653.1,245.8 653.1,231.6 639,231.6 639,203.3 653.1,203.3 653.1,189.1 639,189.1 639,174.9 653.1,174.9 
		653.1,160.7 639,160.7 639,135.2 653.1,135.2 653.1,121.1 639,121.1 639,106.9 653.1,106.9 653.1,92.7 639,92.7 639,78.5 
		653.1,78.5 653.1,64.4 341.3,64.4 341.3,78.5 355.5,78.5 355.5,92.7 341.3,92.7 341.3,106.9 355.5,106.9 355.5,121.1 341.3,121.1 
		341.3,135.2 355.5,135.2 355.5,160.7 341.3,160.7 341.3,174.9 355.5,174.9 355.5,189.1 341.3,189.1 341.3,203.3 355.5,203.3 
		355.5,231.6 341.3,231.6 341.3,245.8 355.5,245.8 355.5,260 341.3,260 341.3,274.1 355.5,274.1 355.5,299.6 341.3,299.6 
		341.3,313.8 355.5,313.8 355.5,328 341.3,328 341.3,342.2 355.5,342.2 355.5,356.3 341.3,356.3 341.3,370.5 	"/>
	
		<rect x="376.8" y="203.3" fill="none" stroke="#000000" stroke-linecap="round" stroke-linejoin="round" width="14.2" height="28.3"/>
	
		<rect x="405.1" y="203.3" fill="none" stroke="#000000" stroke-linecap="round" stroke-linejoin="round" width="14.2" height="28.3"/>
	
		<rect x="433.4" y="203.3" fill="none" stroke="#000000" stroke-linecap="round" stroke-linejoin="round" width="14.2" height="28.3"/>
	
		<rect x="461.8" y="203.3" fill="none" stroke="#000000" stroke-linecap="round" stroke-linejoin="round" width="14.2" height="28.3"/>
	
		<rect x="490.1" y="203.3" fill="none" stroke="#000000" stroke-linecap="round" stroke-linejoin="round" width="14.2" height="28.3"/>
	
		<rect x="518.5" y="203.3" fill="none" stroke="#000000" stroke-linecap="round" stroke-linejoin="round" width="14.2" height="28.3"/>
	
		<rect x="546.8" y="203.3" fill="none" stroke="#000000" stroke-linecap="round" stroke-linejoin="round" width="14.2" height="28.3"/>
	
		<rect x="575.2" y="203.3" fill="none" stroke="#000000" stroke-linecap="round" stroke-linejoin="round" width="14.2" height="28.3"/>
	
		<rect x="603.5" y="203.3" fill="none" stroke="#000000" stroke-linecap="round" stroke-linejoin="round" width="14.2" height="28.3"/>
	<line fill="none" stroke="#000000" stroke-linecap="round" stroke-linejoin="round" x1="639" y1="217.4" x2="355.5" y2="217.4"/>
	
		<rect x="489.9" y="245.8" fill="none" stroke="#000000" stroke-linecap="round" stroke-linejoin="round" width="14.2" height="14.2"/>
	
		<rect x="489.9" y="174.9" fill="none" stroke="#000000" stroke-linecap="round" stroke-linejoin="round" width="14.2" height="14.2"/>
	
		<rect x="489.9" y="78.5" fill="none" stroke="#000000" stroke-linecap="round" stroke-linejoin="round" width="14.2" height="14.2"/>
	
		<rect x="489.9" y="342.2" fill="none" stroke="#000000" stroke-linecap="round" stroke-linejoin="round" width="14.2" height="14.2"/>
	<line fill="none" stroke="#000000" stroke-linecap="round" stroke-linejoin="round" x1="639" y1="286.9" x2="355.5" y2="286.9"/>
	<line fill="none" stroke="#000000" stroke-linecap="round" stroke-linejoin="round" x1="639" y1="148" x2="355.5" y2="148"/>
</g>
<g>
	<polyline fill="none" stroke="#000000" stroke-linecap="round" stroke-linejoin="round" points="653.1,676.6 653.1,662.5 
		639,662.5 639,648.3 653.1,648.3 653.1,634.1 639,634.1 639,620 653.1,620 653.1,605.8 639,605.8 639,580.3 653.1,580.3 
		653.1,566.1 639,566.1 639,551.9 653.1,551.9 653.1,537.8 639,537.8 639,509.4 653.1,509.4 653.1,495.2 639,495.2 639,481.1 
		653.1,481.1 653.1,466.9 639,466.9 639,441.4 653.1,441.4 653.1,427.2 639,427.2 639,413 653.1,413 653.1,398.9 639,398.9 
		639,384.7 653.1,384.7 653.1,370.5 341.3,370.5 341.3,384.7 355.5,384.7 355.5,398.9 341.3,398.9 341.3,413 355.5,413 355.5,427.2 
		341.3,427.2 341.3,441.4 355.5,441.4 355.5,466.9 341.3,466.9 341.3,481.1 355.5,481.1 355.5,495.2 341.3,495.2 341.3,509.4 
		355.5,509.4 355.5,537.8 341.3,537.8 341.3,551.9 355.5,551.9 355.5,566.1 341.3,566.1 341.3,580.3 355.5,580.3 355.5,605.8 
		341.3,605.8 341.3,620 355.5,620 355.5,634.1 341.3,634.1 341.3,648.3 355.5,648.3 355.5,662.5 341.3,662.5 341.3,676.6 	"/>
	
		<rect x="376.8" y="509.4" fill="none" stroke="#000000" stroke-linecap="round" stroke-linejoin="round" width="14.2" height="28.3"/>
	
		<rect x="405.1" y="509.4" fill="none" stroke="#000000" stroke-linecap="round" stroke-linejoin="round" width="14.2" height="28.3"/>
	
		<rect x="433.4" y="509.4" fill="none" stroke="#000000" stroke-linecap="round" stroke-linejoin="round" width="14.2" height="28.3"/>
	
		<rect x="461.8" y="509.4" fill="none" stroke="#000000" stroke-linecap="round" stroke-linejoin="round" width="14.2" height="28.3"/>
	
		<rect x="490.1" y="509.4" fill="none" stroke="#000000" stroke-linecap="round" stroke-linejoin="round" width="14.2" height="28.3"/>
	
		<rect x="518.5" y="509.4" fill="none" stroke="#000000" stroke-linecap="round" stroke-linejoin="round" width="14.2" height="28.3"/>
	
		<rect x="546.8" y="509.4" fill="none" stroke="#000000" stroke-linecap="round" stroke-linejoin="round" width="14.2" height="28.3"/>
	
		<rect x="575.2" y="509.4" fill="none" stroke="#000000" stroke-linecap="round" stroke-linejoin="round" width="14.2" height="28.3"/>
	
		<rect x="603.5" y="509.4" fill="none" stroke="#000000" stroke-linecap="round" stroke-linejoin="round" width="14.2" height="28.3"/>
	<line fill="none" stroke="#000000" stroke-linecap="round" stroke-linejoin="round" x1="639" y1="523.6" x2="355.5" y2="523.6"/>
	
		<rect x="489.9" y="551.9" fill="none" stroke="#000000" stroke-linecap="round" stroke-linejoin="round" width="14.2" height="14.2"/>
	
		<rect x="489.9" y="481.1" fill="none" stroke="#000000" stroke-linecap="round" stroke-linejoin="round" width="14.2" height="14.2"/>
	
		<rect x="489.9" y="384.7" fill="none" stroke="#000000" stroke-linecap="round" stroke-linejoin="round" width="14.2" height="14.2"/>
	
		<rect x="489.9" y="648.3" fill="none" stroke="#000000" stroke-linecap="round" stroke-linejoin="round" width="14.2" height="14.2"/>
	<line fill="none" stroke="#000000" stroke-linecap="round" stroke-linejoin="round" x1="639" y1="593" x2="355.5" y2="593"/>
	<line fill="none" stroke="#000000" stroke-linecap="round" stroke-linejoin="round" x1="639" y1="454.1" x2="355.5" y2="454.1"/>
</g>
<g>
	<polyline fill="none" stroke="#000000" stroke-linecap="round" stroke-linejoin="round" points="653.1,982.8 653.1,968.6 
		639,968.6 639,954.4 653.1,954.4 653.1,940.3 639,940.3 639,926.1 653.1,926.1 653.1,911.9 639,911.9 639,886.4 653.1,886.4 
		653.1,872.2 639,872.2 639,858.1 653.1,858.1 653.1,843.9 639,843.9 639,815.5 653.1,815.5 653.1,801.4 639,801.4 639,787.2 
		653.1,787.2 653.1,773 639,773 639,747.5 653.1,747.5 653.1,733.3 639,733.3 639,719.2 653.1,719.2 653.1,705 639,705 639,690.8 
		653.1,690.8 653.1,676.6 341.3,676.6 341.3,690.8 355.5,690.8 355.5,705 341.3,705 341.3,719.2 355.5,719.2 355.5,733.3 
		341.3,733.3 341.3,747.5 355.5,747.5 355.5,773 341.3,773 341.3,787.2 355.5,787.2 355.5,801.4 341.3,801.4 341.3,815.5 
		355.5,815.5 355.5,843.9 341.3,843.9 341.3,858.1 355.5,858.1 355.5,872.2 341.3,872.2 341.3,886.4 355.5,886.4 355.5,911.9 
		341.3,911.9 341.3,926.1 355.5,926.1 355.5,940.3 341.3,940.3 341.3,954.4 355.5,954.4 355.5,968.6 341.3,968.6 341.3,982.8 	"/>
	
		<rect x="376.8" y="815.5" fill="none" stroke="#000000" stroke-linecap="round" stroke-linejoin="round" width="14.2" height="28.3"/>
	
		<rect x="405.1" y="815.5" fill="none" stroke="#000000" stroke-linecap="round" stroke-linejoin="round" width="14.2" height="28.3"/>
	
		<rect x="433.4" y="815.5" fill="none" stroke="#000000" stroke-linecap="round" stroke-linejoin="round" width="14.2" height="28.3"/>
	
		<rect x="461.8" y="815.5" fill="none" stroke="#000000" stroke-linecap="round" stroke-linejoin="round" width="14.2" height="28.3"/>
	
		<rect x="490.1" y="815.5" fill="none" stroke="#000000" stroke-linecap="round" stroke-linejoin="round" width="14.2" height="28.3"/>
	
		<rect x="518.5" y="815.5" fill="none" stroke="#000000" stroke-linecap="round" stroke-linejoin="round" width="14.2" height="28.3"/>
	
		<rect x="546.8" y="815.5" fill="none" stroke="#000000" stroke-linecap="round" stroke-linejoin="round" width="14.2" height="28.3"/>
	
		<rect x="575.2" y="815.5" fill="none" stroke="#000000" stroke-linecap="round" stroke-linejoin="round" width="14.2" height="28.3"/>
	
		<rect x="603.5" y="815.5" fill="none" stroke="#000000" stroke-linecap="round" stroke-linejoin="round" width="14.2" height="28.3"/>
	<line fill="none" stroke="#000000" stroke-linecap="round" stroke-linejoin="round" x1="639" y1="829.7" x2="355.5" y2="829.7"/>
	
		<rect x="489.9" y="858.1" fill="none" stroke="#000000" stroke-linecap="round" stroke-linejoin="round" width="14.2" height="14.2"/>
	
		<rect x="489.9" y="787.2" fill="none" stroke="#000000" stroke-linecap="round" stroke-linejoin="round" width="14.2" height="14.2"/>
	
		<rect x="489.9" y="690.8" fill="none" stroke="#000000" stroke-linecap="round" stroke-linejoin="round" width="14.2" height="14.2"/>
	
		<rect x="489.9" y="954.4" fill="none" stroke="#000000" stroke-linecap="round" stroke-linejoin="round" width="14.2" height="14.2"/>
	<line fill="none" stroke="#000000" stroke-linecap="round" stroke-linejoin="round" x1="639" y1="899.2" x2="355.5" y2="899.2"/>
	<line fill="none" stroke="#000000" stroke-linecap="round" stroke-linejoin="round" x1="639" y1="760.3" x2="355.5" y2="760.3"/>
</g>
<g>
	<polygon fill="none" stroke="#000000" stroke-linecap="round" stroke-linejoin="round" points="341.3,1288.9 341.3,1274.8 
		355.5,1274.8 355.5,1260.6 341.3,1260.6 341.3,1246.4 355.5,1246.4 355.5,1232.2 341.3,1232.2 341.3,1218.1 355.5,1218.1 
		355.5,1192.6 341.3,1192.6 341.3,1178.4 355.5,1178.4 355.5,1164.2 341.3,1164.2 341.3,1150 355.5,1150 355.5,1121.7 341.3,1121.7 
		341.3,1107.5 355.5,1107.5 355.5,1093.3 341.3,1093.3 341.3,1079.2 355.5,1079.2 355.5,1053.7 341.3,1053.7 341.3,1039.5 
		355.5,1039.5 355.5,1025.3 341.3,1025.3 341.3,1011.1 355.5,1011.1 355.5,997 341.3,997 341.3,982.8 653.1,982.8 653.1,997 
		639,997 639,1011.1 653.1,1011.1 653.1,1025.3 639,1025.3 639,1039.5 653.1,1039.5 653.1,1053.7 639,1053.7 639,1079.2 
		653.1,1079.2 653.1,1093.3 639,1093.3 639,1107.5 653.1,1107.5 653.1,1121.7 639,1121.7 639,1150 653.1,1150 653.1,1164.2 
		639,1164.2 639,1178.4 653.1,1178.4 653.1,1192.6 639,1192.6 639,1218.1 653.1,1218.1 653.1,1232.2 639,1232.2 639,1246.4 
		653.1,1246.4 653.1,1260.6 639,1260.6 639,1274.8 653.1,1274.8 653.1,1288.9 	"/>
	
		<rect x="376.8" y="1121.7" fill="none" stroke="#000000" stroke-linecap="round" stroke-linejoin="round" width="14.2" height="28.3"/>
	
		<rect x="405.1" y="1121.7" fill="none" stroke="#000000" stroke-linecap="round" stroke-linejoin="round" width="14.2" height="28.3"/>
	
		<rect x="433.4" y="1121.7" fill="none" stroke="#000000" stroke-linecap="round" stroke-linejoin="round" width="14.2" height="28.3"/>
	
		<rect x="461.8" y="1121.7" fill="none" stroke="#000000" stroke-linecap="round" stroke-linejoin="round" width="14.2" height="28.3"/>
	
		<rect x="490.1" y="1121.7" fill="none" stroke="#000000" stroke-linecap="round" stroke-linejoin="round" width="14.2" height="28.3"/>
	
		<rect x="518.5" y="1121.7" fill="none" stroke="#000000" stroke-linecap="round" stroke-linejoin="round" width="14.2" height="28.3"/>
	
		<rect x="546.8" y="1121.7" fill="none" stroke="#000000" stroke-linecap="round" stroke-linejoin="round" width="14.2" height="28.3"/>
	
		<rect x="575.2" y="1121.7" fill="none" stroke="#000000" stroke-linecap="round" stroke-linejoin="round" width="14.2" height="28.3"/>
	
		<rect x="603.5" y="1121.7" fill="none" stroke="#000000" stroke-linecap="round" stroke-linejoin="round" width="14.2" height="28.3"/>
	<line fill="none" stroke="#000000" stroke-linecap="round" stroke-linejoin="round" x1="639" y1="1135.9" x2="355.5" y2="1135.9"/>
	
		<rect x="489.9" y="1164.2" fill="none" stroke="#000000" stroke-linecap="round" stroke-linejoin="round" width="14.2" height="14.2"/>
	
		<rect x="489.9" y="1093.3" fill="none" stroke="#000000" stroke-linecap="round" stroke-linejoin="round" width="14.2" height="14.2"/>
	
		<rect x="489.9" y="997" fill="none" stroke="#000000" stroke-linecap="round" stroke-linejoin="round" width="14.2" height="14.2"/>
	
		<rect x="489.9" y="1260.6" fill="none" stroke="#000000" stroke-linecap="round" stroke-linejoin="round" width="14.2" height="14.2"/>
	<line fill="none" stroke="#000000" stroke-linecap="round" stroke-linejoin="round" x1="639" y1="1205.3" x2="355.5" y2="1205.3"/>
	<line fill="none" stroke="#000000" stroke-linecap="round" stroke-linejoin="round" x1="639" y1="1066.4" x2="355.5" y2="1066.4"/>
</g>
<g>
	<polyline fill="none" stroke="#000000" stroke-linecap="round" stroke-linejoin="round" points="964.9,356.3 964.9,342.2 
		950.8,342.2 950.8,328 964.9,328 964.9,313.8 950.8,313.8 950.8,299.6 964.9,299.6 964.9,285.5 950.8,285.5 950.8,260 964.9,260 
		964.9,245.8 950.8,245.8 950.8,231.6 964.9,231.6 964.9,217.4 950.8,217.4 950.8,189.1 964.9,189.1 964.9,174.9 950.8,174.9 
		950.8,160.7 964.9,160.7 964.9,146.6 950.8,146.6 950.8,121.1 964.9,121.1 964.9,106.9 950.8,106.9 950.8,92.7 964.9,92.7 
		964.9,78.5 950.8,78.5 950.8,64.4 964.9,64.4 964.9,50.2 653.1,50.2 653.1,64.4 667.3,64.4 667.3,78.5 653.1,78.5 653.1,92.7 
		667.3,92.7 667.3,106.9 653.1,106.9 653.1,121.1 667.3,121.1 667.3,146.6 653.1,146.6 653.1,160.7 667.3,160.7 667.3,174.9 
		653.1,174.9 653.1,189.1 667.3,189.1 667.3,217.4 653.1,217.4 653.1,231.6 667.3,231.6 667.3,245.8 653.1,245.8 653.1,260 
		667.3,260 667.3,285.5 653.1,285.5 653.1,299.6 667.3,299.6 667.3,313.8 653.1,313.8 653.1,328 667.3,328 667.3,342.2 653.1,342.2 
		653.1,356.3 	"/>
	
		<rect x="688.6" y="189.1" fill="none" stroke="#000000" stroke-linecap="round" stroke-linejoin="round" width="14.2" height="28.3"/>
	
		<rect x="716.9" y="189.1" fill="none" stroke="#000000" stroke-linecap="round" stroke-linejoin="round" width="14.2" height="28.3"/>
	
		<rect x="745.3" y="189.1" fill="none" stroke="#000000" stroke-linecap="round" stroke-linejoin="round" width="14.2" height="28.3"/>
	
		<rect x="773.6" y="189.1" fill="none" stroke="#000000" stroke-linecap="round" stroke-linejoin="round" width="14.2" height="28.3"/>
	
		<rect x="801.9" y="189.1" fill="none" stroke="#000000" stroke-linecap="round" stroke-linejoin="round" width="14.2" height="28.3"/>
	
		<rect x="830.3" y="189.1" fill="none" stroke="#000000" stroke-linecap="round" stroke-linejoin="round" width="14.2" height="28.3"/>
	
		<rect x="858.6" y="189.1" fill="none" stroke="#000000" stroke-linecap="round" stroke-linejoin="round" width="14.2" height="28.3"/>
	
		<rect x="887" y="189.1" fill="none" stroke="#000000" stroke-linecap="round" stroke-linejoin="round" width="14.2" height="28.3"/>
	
		<rect x="915.3" y="189.1" fill="none" stroke="#000000" stroke-linecap="round" stroke-linejoin="round" width="14.2" height="28.3"/>
	<line fill="none" stroke="#000000" stroke-linecap="round" stroke-linejoin="round" x1="950.8" y1="203.3" x2="667.3" y2="203.3"/>
	
		<rect x="801.7" y="231.6" fill="none" stroke="#000000" stroke-linecap="round" stroke-linejoin="round" width="14.2" height="14.2"/>
	
		<rect x="801.7" y="160.7" fill="none" stroke="#000000" stroke-linecap="round" stroke-linejoin="round" width="14.2" height="14.2"/>
	
		<rect x="801.7" y="64.4" fill="none" stroke="#000000" stroke-linecap="round" stroke-linejoin="round" width="14.2" height="14.2"/>
	
		<rect x="801.7" y="328" fill="none" stroke="#000000" stroke-linecap="round" stroke-linejoin="round" width="14.2" height="14.2"/>
	<line fill="none" stroke="#000000" stroke-linecap="round" stroke-linejoin="round" x1="950.8" y1="272.7" x2="667.3" y2="272.7"/>
	<line fill="none" stroke="#000000" stroke-linecap="round" stroke-linejoin="round" x1="950.8" y1="133.8" x2="667.3" y2="133.8"/>
</g>
<g>
	<polyline fill="none" stroke="#000000" stroke-linecap="round" stroke-linejoin="round" points="964.9,662.5 964.9,648.3 
		950.8,648.3 950.8,634.1 964.9,634.1 964.9,620 950.8,620 950.8,605.8 964.9,605.8 964.9,591.6 950.8,591.6 950.8,566.1 
		964.9,566.1 964.9,551.9 950.8,551.9 950.8,537.8 964.9,537.8 964.9,523.6 950.8,523.6 950.8,495.2 964.9,495.2 964.9,481.1 
		950.8,481.1 950.8,466.9 964.9,466.9 964.9,452.7 950.8,452.7 950.8,427.2 964.9,427.2 964.9,413 950.8,413 950.8,398.9 
		964.9,398.9 964.9,384.7 950.8,384.7 950.8,370.5 964.9,370.5 964.9,356.3 653.1,356.3 653.1,370.5 667.3,370.5 667.3,384.7 
		653.1,384.7 653.1,398.9 667.3,398.9 667.3,413 653.1,413 653.1,427.2 667.3,427.2 667.3,452.7 653.1,452.7 653.1,466.9 
		667.3,466.9 667.3,481.1 653.1,481.1 653.1,495.2 667.3,495.2 667.3,523.6 653.1,523.6 653.1,537.8 667.3,537.8 667.3,551.9 
		653.1,551.9 653.1,566.1 667.3,566.1 667.3,591.6 653.1,591.6 653.1,605.8 667.3,605.8 667.3,620 653.1,620 653.1,634.1 
		667.3,634.1 667.3,648.3 653.1,648.3 653.1,662.5 	"/>
	
		<rect x="688.6" y="495.2" fill="none" stroke="#000000" stroke-linecap="round" stroke-linejoin="round" width="14.2" height="28.3"/>
	
		<rect x="716.9" y="495.2" fill="none" stroke="#000000" stroke-linecap="round" stroke-linejoin="round" width="14.2" height="28.3"/>
	
		<rect x="745.3" y="495.2" fill="none" stroke="#000000" stroke-linecap="round" stroke-linejoin="round" width="14.2" height="28.3"/>
	
		<rect x="773.6" y="495.2" fill="none" stroke="#000000" stroke-linecap="round" stroke-linejoin="round" width="14.2" height="28.3"/>
	
		<rect x="801.9" y="495.2" fill="none" stroke="#000000" stroke-linecap="round" stroke-linejoin="round" width="14.2" height="28.3"/>
	
		<rect x="830.3" y="495.2" fill="none" stroke="#000000" stroke-linecap="round" stroke-linejoin="round" width="14.2" height="28.3"/>
	
		<rect x="858.6" y="495.2" fill="none" stroke="#000000" stroke-linecap="round" stroke-linejoin="round" width="14.2" height="28.3"/>
	
		<rect x="887" y="495.2" fill="none" stroke="#000000" stroke-linecap="round" stroke-linejoin="round" width="14.2" height="28.3"/>
	
		<rect x="915.3" y="495.2" fill="none" stroke="#000000" stroke-linecap="round" stroke-linejoin="round" width="14.2" height="28.3"/>
	<line fill="none" stroke="#000000" stroke-linecap="round" stroke-linejoin="round" x1="950.8" y1="509.4" x2="667.3" y2="509.4"/>
	
		<rect x="801.7" y="537.8" fill="none" stroke="#000000" stroke-linecap="round" stroke-linejoin="round" width="14.2" height="14.2"/>
	
		<rect x="801.7" y="466.9" fill="none" stroke="#000000" stroke-linecap="round" stroke-linejoin="round" width="14.2" height="14.2"/>
	
		<rect x="801.7" y="370.5" fill="none" stroke="#000000" stroke-linecap="round" stroke-linejoin="round" width="14.2" height="14.2"/>
	
		<rect x="801.7" y="634.1" fill="none" stroke="#000000" stroke-linecap="round" stroke-linejoin="round" width="14.2" height="14.2"/>
	<line fill="none" stroke="#000000" stroke-linecap="round" stroke-linejoin="round" x1="950.8" y1="578.9" x2="667.3" y2="578.9"/>
	<line fill="none" stroke="#000000" stroke-linecap="round" stroke-linejoin="round" x1="950.8" y1="440" x2="667.3" y2="440"/>
</g>
<g>
	<polyline fill="none" stroke="#000000" stroke-linecap="round" stroke-linejoin="round" points="964.9,968.6 964.9,954.4 
		950.8,954.4 950.8,940.3 964.9,940.3 964.9,926.1 950.8,926.1 950.8,911.9 964.9,911.9 964.9,897.8 950.8,897.8 950.8,872.2 
		964.9,872.2 964.9,858.1 950.8,858.1 950.8,843.9 964.9,843.9 964.9,829.7 950.8,829.7 950.8,801.4 964.9,801.4 964.9,787.2 
		950.8,787.2 950.8,773 964.9,773 964.9,758.9 950.8,758.9 950.8,733.3 964.9,733.3 964.9,719.2 950.8,719.2 950.8,705 964.9,705 
		964.9,690.8 950.8,690.8 950.8,676.6 964.9,676.6 964.9,662.5 653.1,662.5 653.1,676.6 667.3,676.6 667.3,690.8 653.1,690.8 
		653.1,705 667.3,705 667.3,719.2 653.1,719.2 653.1,733.3 667.3,733.3 667.3,758.9 653.1,758.9 653.1,773 667.3,773 667.3,787.2 
		653.1,787.2 653.1,801.4 667.3,801.4 667.3,829.7 653.1,829.7 653.1,843.9 667.3,843.9 667.3,858.1 653.1,858.1 653.1,872.2 
		667.3,872.2 667.3,897.8 653.1,897.8 653.1,911.9 667.3,911.9 667.3,926.1 653.1,926.1 653.1,940.3 667.3,940.3 667.3,954.4 
		653.1,954.4 653.1,968.6 	"/>
	
		<rect x="688.6" y="801.4" fill="none" stroke="#000000" stroke-linecap="round" stroke-linejoin="round" width="14.2" height="28.3"/>
	
		<rect x="716.9" y="801.4" fill="none" stroke="#000000" stroke-linecap="round" stroke-linejoin="round" width="14.2" height="28.3"/>
	
		<rect x="745.3" y="801.4" fill="none" stroke="#000000" stroke-linecap="round" stroke-linejoin="round" width="14.2" height="28.3"/>
	
		<rect x="773.6" y="801.4" fill="none" stroke="#000000" stroke-linecap="round" stroke-linejoin="round" width="14.2" height="28.3"/>
	
		<rect x="801.9" y="801.4" fill="none" stroke="#000000" stroke-linecap="round" stroke-linejoin="round" width="14.2" height="28.3"/>
	
		<rect x="830.3" y="801.4" fill="none" stroke="#000000" stroke-linecap="round" stroke-linejoin="round" width="14.2" height="28.3"/>
	
		<rect x="858.6" y="801.4" fill="none" stroke="#000000" stroke-linecap="round" stroke-linejoin="round" width="14.2" height="28.3"/>
	
		<rect x="887" y="801.4" fill="none" stroke="#000000" stroke-linecap="round" stroke-linejoin="round" width="14.2" height="28.3"/>
	
		<rect x="915.3" y="801.4" fill="none" stroke="#000000" stroke-linecap="round" stroke-linejoin="round" width="14.2" height="28.3"/>
	<line fill="none" stroke="#000000" stroke-linecap="round" stroke-linejoin="round" x1="950.8" y1="815.5" x2="667.3" y2="815.5"/>
	
		<rect x="801.7" y="843.9" fill="none" stroke="#000000" stroke-linecap="round" stroke-linejoin="round" width="14.2" height="14.2"/>
	
		<rect x="801.7" y="773" fill="none" stroke="#000000" stroke-linecap="round" stroke-linejoin="round" width="14.2" height="14.2"/>
	
		<rect x="801.7" y="676.6" fill="none" stroke="#000000" stroke-linecap="round" stroke-linejoin="round" width="14.2" height="14.2"/>
	
		<rect x="801.7" y="940.3" fill="none" stroke="#000000" stroke-linecap="round" stroke-linejoin="round" width="14.2" height="14.2"/>
	<line fill="none" stroke="#000000" stroke-linecap="round" stroke-linejoin="round" x1="950.8" y1="885" x2="667.3" y2="885"/>
	<line fill="none" stroke="#000000" stroke-linecap="round" stroke-linejoin="round" x1="950.8" y1="746.1" x2="667.3" y2="746.1"/>
</g>
<g>
	<polygon fill="none" stroke="#000000" stroke-linecap="round" stroke-linejoin="round" points="653.1,1274.8 653.1,1260.6 
		667.3,1260.6 667.3,1246.4 653.1,1246.4 653.1,1232.2 667.3,1232.2 667.3,1218.1 653.1,1218.1 653.1,1203.9 667.3,1203.9 
		667.3,1178.4 653.1,1178.4 653.1,1164.2 667.3,1164.2 667.3,1150 653.1,1150 653.1,1135.9 667.3,1135.9 667.3,1107.5 653.1,1107.5 
		653.1,1093.3 667.3,1093.3 667.3,1079.2 653.1,1079.2 653.1,1065 667.3,1065 667.3,1039.5 653.1,1039.5 653.1,1025.3 667.3,1025.3 
		667.3,1011.1 653.1,1011.1 653.1,997 667.3,997 667.3,982.8 653.1,982.8 653.1,968.6 964.9,968.6 964.9,982.8 950.8,982.8 
		950.8,997 964.9,997 964.9,1011.1 950.8,1011.1 950.8,1025.3 964.9,1025.3 964.9,1039.5 950.8,1039.5 950.8,1065 964.9,1065 
		964.9,1079.2 950.8,1079.2 950.8,1093.3 964.9,1093.3 964.9,1107.5 950.8,1107.5 950.8,1135.9 964.9,1135.9 964.9,1150 950.8,1150 
		950.8,1164.2 964.9,1164.2 964.9,1178.4 950.8,1178.4 950.8,1203.9 964.9,1203.9 964.9,1218.1 950.8,1218.1 950.8,1232.2 
		964.9,1232.2 964.9,1246.4 950.8,1246.4 950.8,1260.6 964.9,1260.6 964.9,1274.8 	"/>
	
		<rect x="688.6" y="1107.5" fill="none" stroke="#000000" stroke-linecap="round" stroke-linejoin="round" width="14.2" height="28.3"/>
	
		<rect x="716.9" y="1107.5" fill="none" stroke="#000000" stroke-linecap="round" stroke-linejoin="round" width="14.2" height="28.3"/>
	
		<rect x="745.3" y="1107.5" fill="none" stroke="#000000" stroke-linecap="round" stroke-linejoin="round" width="14.2" height="28.3"/>
	
		<rect x="773.6" y="1107.5" fill="none" stroke="#000000" stroke-linecap="round" stroke-linejoin="round" width="14.2" height="28.3"/>
	
		<rect x="801.9" y="1107.5" fill="none" stroke="#000000" stroke-linecap="round" stroke-linejoin="round" width="14.2" height="28.3"/>
	
		<rect x="830.3" y="1107.5" fill="none" stroke="#000000" stroke-linecap="round" stroke-linejoin="round" width="14.2" height="28.3"/>
	
		<rect x="858.6" y="1107.5" fill="none" stroke="#000000" stroke-linecap="round" stroke-linejoin="round" width="14.2" height="28.3"/>
	
		<rect x="887" y="1107.5" fill="none" stroke="#000000" stroke-linecap="round" stroke-linejoin="round" width="14.2" height="28.3"/>
	
		<rect x="915.3" y="1107.5" fill="none" stroke="#000000" stroke-linecap="round" stroke-linejoin="round" width="14.2" height="28.3"/>
	
		<line fill="none" stroke="#000000" stroke-linecap="round" stroke-linejoin="round" x1="950.8" y1="1121.7" x2="667.3" y2="1121.7"/>
	
		<rect x="801.7" y="1150" fill="none" stroke="#000000" stroke-linecap="round" stroke-linejoin="round" width="14.2" height="14.2"/>
	
		<rect x="801.7" y="1079.2" fill="none" stroke="#000000" stroke-linecap="round" stroke-linejoin="round" width="14.2" height="14.2"/>
	
		<rect x="801.7" y="982.8" fill="none" stroke="#000000" stroke-linecap="round" stroke-linejoin="round" width="14.2" height="14.2"/>
	
		<rect x="801.7" y="1246.4" fill="none" stroke="#000000" stroke-linecap="round" stroke-linejoin="round" width="14.2" height="14.2"/>
	
		<line fill="none" stroke="#000000" stroke-linecap="round" stroke-linejoin="round" x1="950.8" y1="1191.1" x2="667.3" y2="1191.1"/>
	
		<line fill="none" stroke="#000000" stroke-linecap="round" stroke-linejoin="round" x1="950.8" y1="1052.2" x2="667.3" y2="1052.2"/>
</g>
<g>
	<polyline fill="none" stroke="#000000" stroke-linecap="round" stroke-linejoin="round" points="1277.2,370.5 1277.2,356.3 
		1263.1,356.3 1263.1,342.2 1277.2,342.2 1277.2,328 1263.1,328 1263.1,313.8 1277.2,313.8 1277.2,299.6 1263.1,299.6 1263.1,274.1 
		1277.2,274.1 1277.2,260 1263.1,260 1263.1,245.8 1277.2,245.8 1277.2,231.6 1263.1,231.6 1263.1,203.3 1277.2,203.3 1277.2,189.1 
		1263.1,189.1 1263.1,174.9 1277.2,174.9 1277.2,160.7 1263.1,160.7 1263.1,135.2 1277.2,135.2 1277.2,121.1 1263.1,121.1 
		1263.1,106.9 1277.2,106.9 1277.2,92.7 1263.1,92.7 1263.1,78.5 1277.2,78.5 1277.2,64.4 965.4,64.4 965.4,78.5 979.6,78.5 
		979.6,92.7 965.4,92.7 965.4,106.9 979.6,106.9 979.6,121.1 965.4,121.1 965.4,135.2 979.6,135.2 979.6,160.7 965.4,160.7 
		965.4,174.9 979.6,174.9 979.6,189.1 965.4,189.1 965.4,203.3 979.6,203.3 979.6,231.6 965.4,231.6 965.4,245.8 979.6,245.8 
		979.6,260 965.4,260 965.4,274.1 979.6,274.1 979.6,299.6 965.4,299.6 965.4,313.8 979.6,313.8 979.6,328 965.4,328 965.4,342.2 
		979.6,342.2 979.6,356.3 965.4,356.3 965.4,370.5 	"/>
	
		<rect x="1000.9" y="203.3" fill="none" stroke="#000000" stroke-linecap="round" stroke-linejoin="round" width="14.2" height="28.3"/>
	
		<rect x="1029.2" y="203.3" fill="none" stroke="#000000" stroke-linecap="round" stroke-linejoin="round" width="14.2" height="28.3"/>
	
		<rect x="1057.6" y="203.3" fill="none" stroke="#000000" stroke-linecap="round" stroke-linejoin="round" width="14.2" height="28.3"/>
	
		<rect x="1085.9" y="203.3" fill="none" stroke="#000000" stroke-linecap="round" stroke-linejoin="round" width="14.2" height="28.3"/>
	
		<rect x="1114.3" y="203.3" fill="none" stroke="#000000" stroke-linecap="round" stroke-linejoin="round" width="14.2" height="28.3"/>
	
		<rect x="1142.6" y="203.3" fill="none" stroke="#000000" stroke-linecap="round" stroke-linejoin="round" width="14.2" height="28.3"/>
	
		<rect x="1171" y="203.3" fill="none" stroke="#000000" stroke-linecap="round" stroke-linejoin="round" width="14.2" height="28.3"/>
	
		<rect x="1199.3" y="203.3" fill="none" stroke="#000000" stroke-linecap="round" stroke-linejoin="round" width="14.2" height="28.3"/>
	
		<rect x="1227.6" y="203.3" fill="none" stroke="#000000" stroke-linecap="round" stroke-linejoin="round" width="14.2" height="28.3"/>
	
		<line fill="none" stroke="#000000" stroke-linecap="round" stroke-linejoin="round" x1="1263.1" y1="217.4" x2="979.6" y2="217.4"/>
	
		<rect x="1114" y="245.8" fill="none" stroke="#000000" stroke-linecap="round" stroke-linejoin="round" width="14.2" height="14.2"/>
	
		<rect x="1114" y="174.9" fill="none" stroke="#000000" stroke-linecap="round" stroke-linejoin="round" width="14.2" height="14.2"/>
	
		<rect x="1114" y="78.5" fill="none" stroke="#000000" stroke-linecap="round" stroke-linejoin="round" width="14.2" height="14.2"/>
	
		<rect x="1114" y="342.2" fill="none" stroke="#000000" stroke-linecap="round" stroke-linejoin="round" width="14.2" height="14.2"/>
	
		<line fill="none" stroke="#000000" stroke-linecap="round" stroke-linejoin="round" x1="1263.1" y1="286.9" x2="979.6" y2="286.9"/>
	<line fill="none" stroke="#000000" stroke-linecap="round" stroke-linejoin="round" x1="1263.1" y1="148" x2="979.6" y2="148"/>
</g>
<g>
	<polyline fill="none" stroke="#000000" stroke-linecap="round" stroke-linejoin="round" points="1277.2,676.6 1277.2,662.5 
		1263.1,662.5 1263.1,648.3 1277.2,648.3 1277.2,634.1 1263.1,634.1 1263.1,620 1277.2,620 1277.2,605.8 1263.1,605.8 1263.1,580.3 
		1277.2,580.3 1277.2,566.1 1263.1,566.1 1263.1,551.9 1277.2,551.9 1277.2,537.8 1263.1,537.8 1263.1,509.4 1277.2,509.4 
		1277.2,495.2 1263.1,495.2 1263.1,481.1 1277.2,481.1 1277.2,466.9 1263.1,466.9 1263.1,441.4 1277.2,441.4 1277.2,427.2 
		1263.1,427.2 1263.1,413 1277.2,413 1277.2,398.9 1263.1,398.9 1263.1,384.7 1277.2,384.7 1277.2,370.5 965.4,370.5 965.4,384.7 
		979.6,384.7 979.6,398.9 965.4,398.9 965.4,413 979.6,413 979.6,427.2 965.4,427.2 965.4,441.4 979.6,441.4 979.6,466.9 
		965.4,466.9 965.4,481.1 979.6,481.1 979.6,495.2 965.4,495.2 965.4,509.4 979.6,509.4 979.6,537.8 965.4,537.8 965.4,551.9 
		979.6,551.9 979.6,566.1 965.4,566.1 965.4,580.3 979.6,580.3 979.6,605.8 965.4,605.8 965.4,620 979.6,620 979.6,634.1 
		965.4,634.1 965.4,648.3 979.6,648.3 979.6,662.5 965.4,662.5 965.4,676.6 	"/>
	
		<rect x="1000.9" y="509.4" fill="none" stroke="#000000" stroke-linecap="round" stroke-linejoin="round" width="14.2" height="28.3"/>
	
		<rect x="1029.2" y="509.4" fill="none" stroke="#000000" stroke-linecap="round" stroke-linejoin="round" width="14.2" height="28.3"/>
	
		<rect x="1057.6" y="509.4" fill="none" stroke="#000000" stroke-linecap="round" stroke-linejoin="round" width="14.2" height="28.3"/>
	
		<rect x="1085.9" y="509.4" fill="none" stroke="#000000" stroke-linecap="round" stroke-linejoin="round" width="14.2" height="28.3"/>
	
		<rect x="1114.3" y="509.4" fill="none" stroke="#000000" stroke-linecap="round" stroke-linejoin="round" width="14.2" height="28.3"/>
	
		<rect x="1142.6" y="509.4" fill="none" stroke="#000000" stroke-linecap="round" stroke-linejoin="round" width="14.2" height="28.3"/>
	
		<rect x="1171" y="509.4" fill="none" stroke="#000000" stroke-linecap="round" stroke-linejoin="round" width="14.2" height="28.3"/>
	
		<rect x="1199.3" y="509.4" fill="none" stroke="#000000" stroke-linecap="round" stroke-linejoin="round" width="14.2" height="28.3"/>
	
		<rect x="1227.6" y="509.4" fill="none" stroke="#000000" stroke-linecap="round" stroke-linejoin="round" width="14.2" height="28.3"/>
	
		<line fill="none" stroke="#000000" stroke-linecap="round" stroke-linejoin="round" x1="1263.1" y1="523.6" x2="979.6" y2="523.6"/>
	
		<rect x="1114" y="551.9" fill="none" stroke="#000000" stroke-linecap="round" stroke-linejoin="round" width="14.2" height="14.2"/>
	
		<rect x="1114" y="481.1" fill="none" stroke="#000000" stroke-linecap="round" stroke-linejoin="round" width="14.2" height="14.2"/>
	
		<rect x="1114" y="384.7" fill="none" stroke="#000000" stroke-linecap="round" stroke-linejoin="round" width="14.2" height="14.2"/>
	
		<rect x="1114" y="648.3" fill="none" stroke="#000000" stroke-linecap="round" stroke-linejoin="round" width="14.2" height="14.2"/>
	<line fill="none" stroke="#000000" stroke-linecap="round" stroke-linejoin="round" x1="1263.1" y1="593" x2="979.6" y2="593"/>
	
		<line fill="none" stroke="#000000" stroke-linecap="round" stroke-linejoin="round" x1="1263.1" y1="454.1" x2="979.6" y2="454.1"/>
</g>
<g>
	<polyline fill="none" stroke="#000000" stroke-linecap="round" stroke-linejoin="round" points="1277.2,982.8 1277.2,968.6 
		1263.1,968.6 1263.1,954.4 1277.2,954.4 1277.2,940.3 1263.1,940.3 1263.1,926.1 1277.2,926.1 1277.2,911.9 1263.1,911.9 
		1263.1,886.4 1277.2,886.4 1277.2,872.2 1263.1,872.2 1263.1,858.1 1277.2,858.1 1277.2,843.9 1263.1,843.9 1263.1,815.5 
		1277.2,815.5 1277.2,801.4 1263.1,801.4 1263.1,787.2 1277.2,787.2 1277.2,773 1263.1,773 1263.1,747.5 1277.2,747.5 1277.2,733.3 
		1263.1,733.3 1263.1,719.2 1277.2,719.2 1277.2,705 1263.1,705 1263.1,690.8 1277.2,690.8 1277.2,676.6 965.4,676.6 965.4,690.8 
		979.6,690.8 979.6,705 965.4,705 965.4,719.2 979.6,719.2 979.6,733.3 965.4,733.3 965.4,747.5 979.6,747.5 979.6,773 965.4,773 
		965.4,787.2 979.6,787.2 979.6,801.4 965.4,801.4 965.4,815.5 979.6,815.5 979.6,843.9 965.4,843.9 965.4,858.1 979.6,858.1 
		979.6,872.2 965.4,872.2 965.4,886.4 979.6,886.4 979.6,911.9 965.4,911.9 965.4,926.1 979.6,926.1 979.6,940.3 965.4,940.3 
		965.4,954.4 979.6,954.4 979.6,968.6 965.4,968.6 965.4,982.8 	"/>
	
		<rect x="1000.9" y="815.5" fill="none" stroke="#000000" stroke-linecap="round" stroke-linejoin="round" width="14.2" height="28.3"/>
	
		<rect x="1029.2" y="815.5" fill="none" stroke="#000000" stroke-linecap="round" stroke-linejoin="round" width="14.2" height="28.3"/>
	
		<rect x="1057.6" y="815.5" fill="none" stroke="#000000" stroke-linecap="round" stroke-linejoin="round" width="14.2" height="28.3"/>
	
		<rect x="1085.9" y="815.5" fill="none" stroke="#000000" stroke-linecap="round" stroke-linejoin="round" width="14.2" height="28.3"/>
	
		<rect x="1114.3" y="815.5" fill="none" stroke="#000000" stroke-linecap="round" stroke-linejoin="round" width="14.2" height="28.3"/>
	
		<rect x="1142.6" y="815.5" fill="none" stroke="#000000" stroke-linecap="round" stroke-linejoin="round" width="14.2" height="28.3"/>
	
		<rect x="1171" y="815.5" fill="none" stroke="#000000" stroke-linecap="round" stroke-linejoin="round" width="14.2" height="28.3"/>
	
		<rect x="1199.3" y="815.5" fill="none" stroke="#000000" stroke-linecap="round" stroke-linejoin="round" width="14.2" height="28.3"/>
	
		<rect x="1227.6" y="815.5" fill="none" stroke="#000000" stroke-linecap="round" stroke-linejoin="round" width="14.2" height="28.3"/>
	
		<line fill="none" stroke="#000000" stroke-linecap="round" stroke-linejoin="round" x1="1263.1" y1="829.7" x2="979.6" y2="829.7"/>
	
		<rect x="1114" y="858.1" fill="none" stroke="#000000" stroke-linecap="round" stroke-linejoin="round" width="14.2" height="14.2"/>
	
		<rect x="1114" y="787.2" fill="none" stroke="#000000" stroke-linecap="round" stroke-linejoin="round" width="14.2" height="14.2"/>
	
		<rect x="1114" y="690.8" fill="none" stroke="#000000" stroke-linecap="round" stroke-linejoin="round" width="14.2" height="14.2"/>
	
		<rect x="1114" y="954.4" fill="none" stroke="#000000" stroke-linecap="round" stroke-linejoin="round" width="14.2" height="14.2"/>
	
		<line fill="none" stroke="#000000" stroke-linecap="round" stroke-linejoin="round" x1="1263.1" y1="899.2" x2="979.6" y2="899.2"/>
	
		<line fill="none" stroke="#000000" stroke-linecap="round" stroke-linejoin="round" x1="1263.1" y1="760.3" x2="979.6" y2="760.3"/>
</g>
<g>
	<polygon fill="none" stroke="#000000" stroke-linecap="round" stroke-linejoin="round" points="965.4,1288.9 965.4,1274.8 
		979.6,1274.8 979.6,1260.6 965.4,1260.6 965.4,1246.4 979.6,1246.4 979.6,1232.2 965.4,1232.2 965.4,1218.1 979.6,1218.1 
		979.6,1192.6 965.4,1192.6 965.4,1178.4 979.6,1178.4 979.6,1164.2 965.4,1164.2 965.4,1150 979.6,1150 979.6,1121.7 965.4,1121.7 
		965.4,1107.5 979.6,1107.5 979.6,1093.3 965.4,1093.3 965.4,1079.2 979.6,1079.2 979.6,1053.7 965.4,1053.7 965.4,1039.5 
		979.6,1039.5 979.6,1025.3 965.4,1025.3 965.4,1011.1 979.6,1011.1 979.6,997 965.4,997 965.4,982.8 1277.2,982.8 1277.2,997 
		1263.1,997 1263.1,1011.1 1277.2,1011.1 1277.2,1025.3 1263.1,1025.3 1263.1,1039.5 1277.2,1039.5 1277.2,1053.7 1263.1,1053.7 
		1263.1,1079.2 1277.2,1079.2 1277.2,1093.3 1263.1,1093.3 1263.1,1107.5 1277.2,1107.5 1277.2,1121.7 1263.1,1121.7 1263.1,1150 
		1277.2,1150 1277.2,1164.2 1263.1,1164.2 1263.1,1178.4 1277.2,1178.4 1277.2,1192.6 1263.1,1192.6 1263.1,1218.1 1277.2,1218.1 
		1277.2,1232.2 1263.1,1232.2 1263.1,1246.4 1277.2,1246.4 1277.2,1260.6 1263.1,1260.6 1263.1,1274.8 1277.2,1274.8 1277.2,1288.9 
			"/>
	
		<rect x="1000.9" y="1121.7" fill="none" stroke="#000000" stroke-linecap="round" stroke-linejoin="round" width="14.2" height="28.3"/>
	
		<rect x="1029.2" y="1121.7" fill="none" stroke="#000000" stroke-linecap="round" stroke-linejoin="round" width="14.2" height="28.3"/>
	
		<rect x="1057.6" y="1121.7" fill="none" stroke="#000000" stroke-linecap="round" stroke-linejoin="round" width="14.2" height="28.3"/>
	
		<rect x="1085.9" y="1121.7" fill="none" stroke="#000000" stroke-linecap="round" stroke-linejoin="round" width="14.2" height="28.3"/>
	
		<rect x="1114.3" y="1121.7" fill="none" stroke="#000000" stroke-linecap="round" stroke-linejoin="round" width="14.2" height="28.3"/>
	
		<rect x="1142.6" y="1121.7" fill="none" stroke="#000000" stroke-linecap="round" stroke-linejoin="round" width="14.2" height="28.3"/>
	
		<rect x="1171" y="1121.7" fill="none" stroke="#000000" stroke-linecap="round" stroke-linejoin="round" width="14.2" height="28.3"/>
	
		<rect x="1199.3" y="1121.7" fill="none" stroke="#000000" stroke-linecap="round" stroke-linejoin="round" width="14.2" height="28.3"/>
	
		<rect x="1227.6" y="1121.7" fill="none" stroke="#000000" stroke-linecap="round" stroke-linejoin="round" width="14.2" height="28.3"/>
	
		<line fill="none" stroke="#000000" stroke-linecap="round" stroke-linejoin="round" x1="1263.1" y1="1135.9" x2="979.6" y2="1135.9"/>
	
		<rect x="1114" y="1164.2" fill="none" stroke="#000000" stroke-linecap="round" stroke-linejoin="round" width="14.2" height="14.2"/>
	
		<rect x="1114" y="1093.3" fill="none" stroke="#000000" stroke-linecap="round" stroke-linejoin="round" width="14.2" height="14.2"/>
	<rect x="1114" y="997" fill="none" stroke="#000000" stroke-linecap="round" stroke-linejoin="round" width="14.2" height="14.2"/>
	
		<rect x="1114" y="1260.6" fill="none" stroke="#000000" stroke-linecap="round" stroke-linejoin="round" width="14.2" height="14.2"/>
	
		<line fill="none" stroke="#000000" stroke-linecap="round" stroke-linejoin="round" x1="1263.1" y1="1205.3" x2="979.6" y2="1205.3"/>
	
		<line fill="none" stroke="#000000" stroke-linecap="round" stroke-linejoin="round" x1="1263.1" y1="1066.4" x2="979.6" y2="1066.4"/>
</g>
<polyline fill="none" stroke="#000000" stroke-linecap="round" stroke-linejoin="round" points="1459.9,433.7 1474.1,433.7 
	1474.1,263.6 1459.9,263.6 "/>
<polyline fill="none" stroke="#000000" stroke-linecap="round" stroke-linejoin="round" points="1346.5,433.7 1445.7,433.7 
	1445.7,447.8 "/>
<polyline fill="none" stroke="#000000" stroke-linecap="round" stroke-linejoin="round" points="1332.4,249.4 1332.4,263.6 
	1318.2,263.6 1318.2,299 1304,299 1304,313.2 1318.2,313.2 1318.2,384 1304,384 1304,398.2 1318.2,398.2 1318.2,433.7 1332.4,433.7 
	1332.4,447.8 "/>
<polyline fill="none" stroke="#000000" stroke-linecap="round" stroke-linejoin="round" points="1445.7,249.4 1445.7,263.6 
	1346.5,263.6 "/>
<polygon fill="none" stroke="#000000" stroke-linecap="round" stroke-linejoin="round" points="1488.3,79.3 1474.1,79.3 
	1474.1,65.2 1459.9,65.2 1459.9,79.3 1360.7,79.3 1360.7,65.2 1346.5,65.2 1346.5,79.3 1332.4,79.3 1332.4,114.8 1318.2,114.8 
	1318.2,128.9 1332.4,128.9 1332.4,199.8 1318.2,199.8 1318.2,214 1332.4,214 1332.4,249.4 1346.5,249.4 1346.5,263.6 1360.7,263.6 
	1360.7,249.4 1459.9,249.4 1459.9,263.6 1474.1,263.6 1474.1,249.4 1488.3,249.4 "/>
<polyline fill="none" stroke="#000000" stroke-linecap="round" stroke-linejoin="round" points="1459.9,802.2 1474.1,802.2 
	1474.1,632.1 1459.9,632.1 "/>
<polyline fill="none" stroke="#000000" stroke-linecap="round" stroke-linejoin="round" points="1346.5,802.2 1445.7,802.2 
	1445.7,816.3 "/>
<polyline fill="none" stroke="#000000" stroke-linecap="round" stroke-linejoin="round" points="1332.4,617.9 1332.4,632.1 
	1318.2,632.1 1318.2,667.5 1304,667.5 1304,681.7 1318.2,681.7 1318.2,752.6 1304,752.6 1304,766.7 1318.2,766.7 1318.2,802.2 
	1332.4,802.2 1332.4,816.3 "/>
<polyline fill="none" stroke="#000000" stroke-linecap="round" stroke-linejoin="round" points="1445.7,617.9 1445.7,632.1 
	1346.5,632.1 "/>
<polygon fill="none" stroke="#000000" stroke-linecap="round" stroke-linejoin="round" points="1488.3,447.8 1474.1,447.8 
	1474.1,433.7 1459.9,433.7 1459.9,447.8 1360.7,447.8 1360.7,433.7 1346.5,433.7 1346.5,447.8 1332.4,447.8 1332.4,483.3 
	1318.2,483.3 1318.2,497.4 1332.4,497.4 1332.4,568.3 1318.2,568.3 1318.2,582.5 1332.4,582.5 1332.4,617.9 1346.5,617.9 
	1346.5,632.1 1360.7,632.1 1360.7,617.9 1459.9,617.9 1459.9,632.1 1474.1,632.1 1474.1,617.9 1488.3,617.9 "/>
<polyline fill="none" stroke="#000000" stroke-linecap="round" stroke-linejoin="round" points="1459.9,1170.7 1474.1,1170.7 
	1474.1,1000.6 1459.9,1000.6 "/>
<polyline fill="none" stroke="#000000" stroke-linecap="round" stroke-linejoin="round" points="1346.5,1170.7 1445.7,1170.7 
	1445.7,1184.8 "/>
<polyline fill="none" stroke="#000000" stroke-linecap="round" stroke-linejoin="round" points="1332.4,986.4 1332.4,1000.6 
	1318.2,1000.6 1318.2,1036 1304,1036 1304,1050.2 1318.2,1050.2 1318.2,1121.1 1304,1121.1 1304,1135.2 1318.2,1135.2 
	1318.2,1170.7 1332.4,1170.7 1332.4,1184.8 "/>
<polyline fill="none" stroke="#000000" stroke-linecap="round" stroke-linejoin="round" points="1445.7,986.4 1445.7,1000.6 
	1346.5,1000.6 "/>
<polygon fill="none" stroke="#000000" stroke-linecap="round" stroke-linejoin="round" points="1488.3,816.3 1474.1,816.3 
	1474.1,802.2 1459.9,802.2 1459.9,816.3 1360.7,816.3 1360.7,802.2 1346.5,802.2 1346.5,816.3 1332.4,816.3 1332.4,851.8 
	1318.2,851.8 1318.2,865.9 1332.4,865.9 1332.4,936.8 1318.2,936.8 1318.2,951 1332.4,951 1332.4,986.4 1346.5,986.4 1346.5,1000.6 
	1360.7,1000.6 1360.7,986.4 1459.9,986.4 1459.9,1000.6 1474.1,1000.6 1474.1,986.4 1488.3,986.4 "/>
<polygon fill="none" stroke="#000000" stroke-linecap="round" stroke-linejoin="round" points="1488.3,1184.8 1474.1,1184.8 
	1474.1,1170.7 1459.9,1170.7 1459.9,1184.8 1360.7,1184.8 1360.7,1170.7 1346.5,1170.7 1346.5,1184.8 1332.4,1184.8 1332.4,1220.3 
	1318.2,1220.3 1318.2,1234.4 1332.4,1234.4 1332.4,1305.3 1318.2,1305.3 1318.2,1319.5 1332.4,1319.5 1332.4,1354.9 1346.5,1354.9 
	1346.5,1369.1 1360.7,1369.1 1360.7,1354.9 1459.9,1354.9 1459.9,1369.1 1474.1,1369.1 1474.1,1354.9 1488.3,1354.9 "/>
<polyline fill="none" stroke="#000000" stroke-linecap="round" stroke-linejoin="round" points="1516.6,1000.6 1502.4,1000.6 
	1502.4,1170.7 1516.6,1170.7 "/>
<polyline fill="none" stroke="#000000" stroke-linecap="round" stroke-linejoin="round" points="1630,1000.6 1530.8,1000.6 
	1530.8,986.4 "/>
<polyline fill="none" stroke="#000000" stroke-linecap="round" stroke-linejoin="round" points="1644.2,1184.8 1644.2,1170.7 
	1658.3,1170.7 1658.3,1135.2 1672.5,1135.2 1672.5,1121.1 1658.3,1121.1 1658.3,1050.2 1672.5,1050.2 1672.5,1036 1658.3,1036 
	1658.3,1000.6 1644.2,1000.6 1644.2,986.4 "/>
<polyline fill="none" stroke="#000000" stroke-linecap="round" stroke-linejoin="round" points="1530.8,1184.8 1530.8,1170.7 
	1630,1170.7 "/>
<polyline fill="none" stroke="#000000" stroke-linecap="round" stroke-linejoin="round" points="1488.3,1354.9 1502.4,1354.9 
	1502.4,1369.1 1516.6,1369.1 1516.6,1354.9 1615.8,1354.9 1615.8,1369.1 1630,1369.1 1630,1354.9 1644.2,1354.9 1644.2,1319.5 
	1658.3,1319.5 1658.3,1305.3 1644.2,1305.3 1644.2,1234.4 1658.3,1234.4 1658.3,1220.3 1644.2,1220.3 1644.2,1184.8 1630,1184.8 
	1630,1170.7 1615.8,1170.7 1615.8,1184.8 1516.6,1184.8 1516.6,1170.7 1502.4,1170.7 1502.4,1184.8 1488.3,1184.8 "/>
<polyline fill="none" stroke="#000000" stroke-linecap="round" stroke-linejoin="round" points="1516.6,632.1 1502.4,632.1 
	1502.4,802.2 1516.6,802.2 "/>
<polyline fill="none" stroke="#000000" stroke-linecap="round" stroke-linejoin="round" points="1630,632.1 1530.8,632.1 
	1530.8,617.9 "/>
<polyline fill="none" stroke="#000000" stroke-linecap="round" stroke-linejoin="round" points="1644.2,816.3 1644.2,802.2 
	1658.3,802.2 1658.3,766.7 1672.5,766.7 1672.5,752.6 1658.3,752.6 1658.3,681.7 1672.5,681.7 1672.5,667.5 1658.3,667.5 
	1658.3,632.1 1644.2,632.1 1644.2,617.9 "/>
<polyline fill="none" stroke="#000000" stroke-linecap="round" stroke-linejoin="round" points="1530.8,816.3 1530.8,802.2 
	1630,802.2 "/>
<polyline fill="none" stroke="#000000" stroke-linecap="round" stroke-linejoin="round" points="1488.3,986.4 1502.4,986.4 
	1502.4,1000.6 1516.6,1000.6 1516.6,986.4 1615.8,986.4 1615.8,1000.6 1630,1000.6 1630,986.4 1644.2,986.4 1644.2,951 1658.3,951 
	1658.3,936.8 1644.2,936.8 1644.2,865.9 1658.3,865.9 1658.3,851.8 1644.2,851.8 1644.2,816.3 1630,816.3 1630,802.2 1615.8,802.2 
	1615.8,816.3 1516.6,816.3 1516.6,802.2 1502.4,802.2 1502.4,816.3 1488.3,816.3 "/>
<polyline fill="none" stroke="#000000" stroke-linecap="round" stroke-linejoin="round" points="1516.6,263.6 1502.4,263.6 
	1502.4,433.7 1516.6,433.7 "/>
<polyline fill="none" stroke="#000000" stroke-linecap="round" stroke-linejoin="round" points="1630,263.6 1530.8,263.6 
	1530.8,249.4 "/>
<polyline fill="none" stroke="#000000" stroke-linecap="round" stroke-linejoin="round" points="1644.2,447.8 1644.2,433.7 
	1658.3,433.7 1658.3,398.2 1672.5,398.2 1672.5,384 1658.3,384 1658.3,313.2 1672.5,313.2 1672.5,299 1658.3,299 1658.3,263.6 
	1644.2,263.6 1644.2,249.4 "/>
<polyline fill="none" stroke="#000000" stroke-linecap="round" stroke-linejoin="round" points="1530.8,447.8 1530.8,433.7 
	1630,433.7 "/>
<polyline fill="none" stroke="#000000" stroke-linecap="round" stroke-linejoin="round" points="1488.3,617.9 1502.4,617.9 
	1502.4,632.1 1516.6,632.1 1516.6,617.9 1615.8,617.9 1615.8,632.1 1630,632.1 1630,617.9 1644.2,617.9 1644.2,582.5 1658.3,582.5 
	1658.3,568.3 1644.2,568.3 1644.2,497.4 1658.3,497.4 1658.3,483.3 1644.2,483.3 1644.2,447.8 1630,447.8 1630,433.7 1615.8,433.7 
	1615.8,447.8 1516.6,447.8 1516.6,433.7 1502.4,433.7 1502.4,447.8 1488.3,447.8 "/>
<polyline fill="none" stroke="#000000" stroke-linecap="round" stroke-linejoin="round" points="1488.3,249.4 1502.4,249.4 
	1502.4,263.6 1516.6,263.6 1516.6,249.4 1615.8,249.4 1615.8,263.6 1630,263.6 1630,249.4 1644.2,249.4 1644.2,214 1658.3,214 
	1658.3,199.8 1644.2,199.8 1644.2,128.9 1658.3,128.9 1658.3,114.8 1644.2,114.8 1644.2,79.3 1630,79.3 1630,65.2 1615.8,65.2 
	1615.8,79.3 1516.6,79.3 1516.6,65.2 1502.4,65.2 1502.4,79.3 1488.3,79.3 "/>
</svg>
